<svg xmlns="http://www.w3.org/2000/svg" viewBox="-3 -3.2 106 106">
  <style>
    .st0{fill:#FFFFFF;}
  </style>
  <g id="btc">
    <circle cx="50" cy="49.8" r="50"/>
    <path class="st0" d="M66.5 47.5c3.6-2 6-5 5.4-10.6-1-8-8-10-16-11V16h-6v10h-5V16h-6v10.3H26V33h5c2.4 0 3.3 1.7 3.5 3v11.7h.7-.7V64c0 .8-.6 2-2.4 2 1 .2-4 0-4 0l-1 7.6h12V84h6.7V73.7h5V84H57V74c10.5-.6 18-3.3 19-13.2.6-8-3-11.6-9-13zm-21-14c3.5 0 14.7-1 14.7 6.3 0 7-11 6.3-14.7 6.3V34zm0 32.6V53c4.3 0 17.6-1.2 17.6 7 0 7-13 6-17 6z"/>
  </g>
</svg>
