<svg xmlns="http://www.w3.org/2000/svg" viewBox="-3 -3.2 106 106">
  <style>
    .st0{fill:#FFFFFF;}
  </style>
  <g id="nmc">
    <circle cx="50" cy="49.8" r="50"/>
    <path class="st0" d="M36.7 45l-.4 1.2-6 21c-.7 3-2.7 4.5-5.5 5.2-1 .3-2.2 0-3.3 0-.6 0-1 0-1.7-.2-.3 0-.3 0-.2-.4l2.4-8.5 7-25c.8-3.3 1.6-6.5 2.6-9.7 1-2.8 3-4.4 5.7-5 1-.2 1.8 0 2.7 0l2.2.2c.2 0 .4 0 .5.3l7.6 12 13 19 .2.6.8-2.8L69.7 33c.8-2.8 3.2-5 6-5.4h2.7l2 .5c.3 0 .3 0 .2.7L78.2 37l-9.5 34c-.8 3-4 5.2-7 5l-4-.3-.2-.2L49.7 64 37 45h-.3zm23 23v-.3l1.5-5v-1c-7-10-13.7-20-20.5-30l-.2-.2v.3c-.6 1.7-1 3.5-1.5 5.2v.7c7 10 13.7 20 20.6 30v.3z"/>
    <path d="M59.7 68l-.2-.3-20.5-30c0-.3-.2-.5 0-.8l1.3-6h.3L61 61c.2.4.2.6 0 1l-1.3 5v.5z"/>
  </g>
</svg>
