<svg xmlns="http://www.w3.org/2000/svg" viewBox="-3 -3.2 106 106">
  <style>
    .st0{fill:#FFFFFF;}
  </style>
  <g id="ppc">
    <circle cx="50" cy="49.8" r="50"/>
    <path class="st0" d="M66 23.2c-3-1.7-8-2.2-13.2-2.2H33.2v45h-1.6v6.7h1.6v10h8v-10h2.5v10h6.7v-10h1.3V66h-1.3v-7.3H54c7 0 13 .5 18.5-6.4 2-3 3.4-6.7 3.7-10.3.8-7.4-2.3-15-10-18.8zM44 67h-2.5V26.4H44V67zm25.7-21.2c-1 2.3-1.8 3.6-3.8 5v-1C67 43 65 35.3 54 31c8.7 5 12 13.8 8 19.5-6.7 1-11.7-4.6-11.7-11v-12c16.2.6 22.3 10 19.2 18.3z"/>
  </g>
</svg>
