<svg xmlns="http://www.w3.org/2000/svg" xmlns:xlink="http://www.w3.org/1999/xlink" viewBox="0 0 256 256">
  <defs>
    <path id="a" d="M96 3.4L159.6 28l-1.6 4L94.4 7.5l1.6-4zm-20.2 64h39.4v4.2H75.8v-4.3zM54 22.4h68.4V27H54v-4.4zm3 68.8L93.7 77l1.6 4-36.8 14.3-1.5-4zM20.5 57.5l63.8-24.7 1.6 4-64 24.7-2-4zM48 119.7l29-26.5 3 3.2L50.7 123l-3-3.3zM1.5 101.3l50.5-46 3 3-50.5 46.2-3-3.2zm49 47.8L68 114l4 2-17.5 35-4-2zM1 149l30.4-61.2 4 2-30.7 61L1 149zm62 26.8l3.6-39.2 4.3.4-4 39-5-.5zM16.5 193l6.3-68 4.3.4-6 68-4-.3zm68 2.4l-11-38 4.2-1L88.5 194l-4 1.2zm-37.2 33.2l-18.7-65.8 4.2-1.2 18.7 65.8-4.2 1.2zm64.7-22.3L88.3 175l3.4-2.7 23.7 31.4-3.4 2.6zm-22.5 44.4L48.3 196l3.4-2.5L93 248l-3.5 2.7zm52-43.8L108 186l2.3-3.7 33.5 20.7-2.4 3.7zm-5 49l-58.2-36 2.3-4 58 36-2.2 3zm32.5-60l-38.7-8 .8-4 39 7-1 4zm13.2 48L115 232l.8-4.2 67.2 12.6-.8 4.2zm9-68l-38.8 7-.8-4 38.7-8 .8 4zm29.5 40l-67.2 13-.8-4 67.3-13v4zm-16.4-66l-33.5 21-2.3-4 33.5-20 2.3 3zm42 26l-58 36-2.4-4 58-36 2 3zm-38.8-55l-23.7 32-3.4-3 23.6-31 3.6 2zm48.8 9L215 186l-3.3-2.6 41.2-54.6 3 2.6zM200 93l-10.7 38-4.2-1.2 11-38 4 1.3zm49-8.6l-18.6 65-4-1.7L245 83l4 1.3zm-66.6-15l3.6 39h-4.4L178 70l4.3-.3zM225 44l6.2 68-4.2.5-6.3-68.2 4.3-.4zm-67.5 10L175 89.6l-4 2-17.4-35.3 3.8-2zm30.2-39l30.5 61-4 2L184 16.8l4-2zM129 48.5L158 75l-2.8 3.3-29-26.5 2.8-3.2zM143 .8l50.6 46-3 3.3-50.4-46 3-3zM100 53l36.7 14.2-1.6 4L99 57l1.5-4z"/>
  </defs>
  <clipPath id="b">
    <use xlink:href="#a" overflow="visible"/>
  </clipPath>
  <g clip-path="url(#b)">
    <defs>
      <path id="c" d="M254.3-1.2h4v259.6h-4V-1.2z"/>
    </defs>
    <clipPath id="d">
      <use xlink:href="#c" overflow="visible"/>
    </clipPath>
    <g clip-path="url(#d)" fill="#F48220">
      <path d="M254.3-1.2h2v259.6h-2V-1.2m2 0h2v259.6h-2V-1.2"/>
    </g>
    <defs>
      <path id="e" d="M207-1.2h51.3v259.6H207V-1.2z"/>
    </defs>
    <clipPath id="f">
      <use xlink:href="#e" overflow="visible"/>
    </clipPath>
    <g clip-path="url(#f)">
      <path fill="#FCB817" d="M207-1.2h4.2v259.6H207V-1.2"/>
      <path fill="#FBB216" d="M211.2-1.2h4.3v259.6h-4.3V-1.2"/>
      <path fill="#FAAD19" d="M215.5-1.2h4.3v259.6h-4.3V-1.2"/>
      <path fill="#FAA91A" d="M219.8-1.2h4.3v259.6h-4V-1.2"/>
      <path fill="#F9A31D" d="M224-1.2h4.3v259.6H224V-1.2"/>
      <path fill="#F89E1E" d="M228.3-1.2h4.3v259.6h-4.3V-1.2"/>
      <path fill="#F7991F" d="M232.6-1.2h4.3v259.6h-5V-1.2"/>
      <path fill="#F79520" d="M237-1.2h4.2v259.6H237V-1.2"/>
      <path fill="#F69120" d="M241.2-1.2h4.3v259.6h-4.3V-1.2"/>
      <path fill="#F58B21" d="M245.5-1.2h4.3v259.6h-4.3V-1.2"/>
      <path fill="#F58620" d="M249.8-1.2h4.3v259.6h-4V-1.2"/>
      <path fill="#F48220" d="M254-1.2h4.3v259.6H254V-1.2"/>
    </g>
    <defs>
      <path id="g" d="M155.3-1.2H211v259.6h-55.7V-1.2z"/>
    </defs>
    <clipPath id="h">
      <use xlink:href="#g" overflow="visible"/>
    </clipPath>
    <g clip-path="url(#h)" fill="#FCB817">
      <path d="M155.3-1.2H183v259.6h-27.7V-1.2m27.7 0h28v259.6h-28V-1.2"/>
    </g>
    <defs>
      <path id="i" d="M126.5-1.2h32.8v259.6h-32.8V-1.2z"/>
    </defs>
    <clipPath id="j">
      <use xlink:href="#i" overflow="visible"/>
    </clipPath>
    <g clip-path="url(#j)">
      <path fill="#FFD98F" d="M126.5-1.2h1.8v259.6h-1.8V-1.2"/>
      <path fill="#FFD68A" d="M128.3-1.2h1.7v259.6h-1.7V-1.2"/>
      <path fill="#FFD485" d="M130-1.2h1.7v259.6H130V-1.2"/>
      <path fill="#FFD380" d="M131.7-1.2h1.7v259.6h-1.7V-1.2"/>
      <path fill="#FFD079" d="M133.4-1.2h1.8v259.6h-1.8V-1.2"/>
      <path fill="#FFCF76" d="M135.2-1.2h1.7v259.6h-2V-1.2"/>
      <path fill="#FFCD70" d="M137-1.2h1.6v259.6H137V-1.2"/>
      <path fill="#FFCC69" d="M138.6-1.2h1.7v259.6h-1.7V-1.2"/>
      <path fill="#FFC962" d="M140.3-1.2h1.8v259.6h-1V-1.2"/>
      <path fill="#FFC85B" d="M142-1.2h1.8v259.6H142V-1.2"/>
      <path fill="#FFC556" d="M143.8-1.2h1.7v259.6h-1.7V-1.2"/>
      <path fill="#FFC54E" d="M145.5-1.2h1.7v259.6h-1.7V-1.2"/>
      <path fill="#FDC245" d="M147.2-1.2h1.8v259.6h-1.8V-1.2"/>
      <path fill="#FDC03D" d="M149-1.2h1.7v259.6H149V-1.2"/>
      <path fill="#FDBE34" d="M150.7-1.2h1.7v259.6h-1.7V-1.2"/>
      <path fill="#FDBD2C" d="M152.4-1.2h1.7v259.6h-1V-1.2"/>
      <path fill="#FDBB24" d="M154-1.2h2v259.6h-2V-1.2"/>
      <path fill="#FCB91C" d="M156-1.2h1.6v259.6H156V-1.2"/>
      <path fill="#FCB817" d="M157.6-1.2h1.7v259.6h-1.7V-1.2"/>
    </g>
    <defs>
      <path id="k" d="M97.8-1.2h32.8v259.6H97.8V-1.2z"/>
    </defs>
    <clipPath id="l">
      <use xlink:href="#k" overflow="visible"/>
    </clipPath>
    <g clip-path="url(#l)">
      <path fill="#FCB817" d="M97.8-1.2h1.8v259.6h-1.8V-1.2"/>
      <path fill="#FCB91C" d="M99.6-1.2h1.7v259.6h-1.7V-1.2"/>
      <path fill="#FDBB24" d="M101.3-1.2h1.7v259.6h-1.7V-1.2"/>
      <path fill="#FDBD2C" d="M103-1.2h1.7v259.6H103V-1.2"/>
      <path fill="#FDBE34" d="M104.7-1.2h1.8v259.6h-1.8V-1.2"/>
      <path fill="#FDC03D" d="M106.5-1.2h1.7v259.6h-1.7V-1.2"/>
      <path fill="#FDC245" d="M108.2-1.2h1.7v259.6h-2V-1.2"/>
      <path fill="#FFC54E" d="M110-1.2h1.6v259.6H110V-1.2"/>
      <path fill="#FFC556" d="M111.6-1.2h1.8v259.6h-1.8V-1.2"/>
      <path fill="#FFC85B" d="M113.4-1.2h1.7v259.6h-1V-1.2"/>
      <path fill="#FFC962" d="M115-1.2h1.8v259.6H115V-1.2"/>
      <path fill="#FFCC69" d="M116.8-1.2h1.7v259.6h-1.7V-1.2"/>
      <path fill="#FFCD70" d="M118.5-1.2h1.8v259.6h-1.8V-1.2"/>
      <path fill="#FFCF76" d="M120.3-1.2h1.7v259.6h-1.7V-1.2"/>
      <path fill="#FFD079" d="M122-1.2h1.7v259.6H122V-1.2"/>
      <path fill="#FFD380" d="M123.7-1.2h1.7v259.6h-1.7V-1.2"/>
      <path fill="#FFD485" d="M125.4-1.2h1.8v259.6h-1.8V-1.2"/>
      <path fill="#FFD68A" d="M127.2-1.2h1.7v259.6h-2V-1.2"/>
      <path fill="#FFD98F" d="M129-1.2h1.6v259.6H129V-1.2"/>
    </g>
    <defs>
      <path id="m" d="M49-1.2h53v259.6H49V-1.2z"/>
    </defs>
    <clipPath id="n">
      <use xlink:href="#m" overflow="visible"/>
    </clipPath>
    <g clip-path="url(#n)" fill="#FCB817">
      <path d="M49-1.2h26.5v259.6H49V-1.2"/>
      <path d="M75.5-1.2H102v259.6H75.4V-1.2"/>
    </g>
    <defs>
      <path id="o" d="M-1.2-1.2H53v259.6H-1V-1.2z"/>
    </defs>
    <clipPath id="p">
      <use xlink:href="#o" overflow="visible"/>
    </clipPath>
    <g clip-path="url(#p)">
      <path fill="#F48220" d="M-1.2-1.2h4.5v259.6h-4.5V-1.2"/>
      <path fill="#F58620" d="M3.3-1.2H8v259.6H3.2V-1.2"/>
      <path fill="#F58B21" d="M8-1.2h4.4v259.6H8V-1.2"/>
      <path fill="#F69120" d="M12.4-1.2H17v259.6h-4.6V-1.2"/>
      <path fill="#F79520" d="M17-1.2h4.4v259.6H17V-1.2"/>
      <path fill="#F7991F" d="M21.4-1.2H26v259.6h-4.6V-1.2"/>
      <path fill="#F89E1E" d="M26-1.2h4.5v259.6H26V-1.2"/>
      <path fill="#F9A31D" d="M30.5-1.2H35v259.6h-4.5V-1.2"/>
      <path fill="#FAA91A" d="M35-1.2h4.5v259.6H35V-1.2"/>
      <path fill="#FAAD19" d="M39.5-1.2H44v259.6h-4.5V-1.2"/>
      <path fill="#FBB216" d="M44-1.2h4.6v259.6H44V-1.2"/>
      <path fill="#FCB817" d="M48.6-1.2H53v259.6h-4.4V-1.2"/>
    </g>
  </g>
  <path fill="none" d="M96 3.4L159.5 28l-1.5 4L94.4 7.5M75.8 67.3h39.4v4.3H75.8zM54 22.6h68.4V27H54zm3 68.7L93.7 77l1.5 4-36.7 14.3m-38-37.8l63.8-24.7 1.5 4L22 61.5m26 58.2l29-26.5 3 3.2L50.7 123M55 58.5l-50.5 46-3-3 50.7-46zM50.6 149l17.6-35 3.8 1.8L54.5 151M1 148.7l30.3-61.2 4 2-30.6 61m58.3 25l3.6-39.2 4.3.4-4 39.3m-40-50.7l-7 68-5-.3 6-68zm57 70l-11-38 4-1L88 194m-56-32.4l19 65.8-4.2 1.2L28 162.8zm79.4 44.7L88.2 175l3.5-2.7 23.7 31.4m-26 47l-41-54.7 3.3-2.5L93 248m48.4-41L108 186l2.2-3.7 33.5 20.7m-7.3 53.4l-58-36 2-3.7 58.3 36m30.3-56l-38.7-7.3.8-4.3 39 8m13 52l-68-13 1-4 67 13m8-63l-38 8-1-4 39-7m31 44l-68 11-1-4 67-12m-16-62l-34 21-2-3 34-20m44 30l-58 36-3-3 58-36m-36-52l-24 31-3-2 24-32m52 13l-40 54-3-2 41-55m-53-35l-11 38-4-1 11-38m30 57l19-66 4 1-19 65zm-45-80l3 40-5 1-4-40m47-26l6 68h-4l-6-68m-63 9l18 36-4 2-17-35m34-42l31 61-4 2-30-61m-55 31l29 26-2 3-29-27m65-2L140 4l3-3.2 50.4 46zm-91 3l36 14-1 4-37-14"/>
  <defs>
    <path id="q" d="M96 3.4L159.6 28l-1.6 4L94.4 7.5l1.6-4zm-20.2 64h39.4v4.2H75.8v-4.3zM54 22.4h68.4V27H54v-4.4zm3 68.8L93.7 77l1.6 4-36.8 14.3-1.5-4zM20.5 57.5l63.8-24.7 1.6 4-64 24.7-2-4zM48 119.7l29-26.5 3 3.2L50.7 123l-3-3.3zM1.5 101.3l50.5-46 3 3-50.5 46.2-3-3.2zm49 47.8L68 114l4 2-17.5 35-4-2zM1 149l30.4-61.2 4 2-30.7 61L1 149zm62 26.8l3.6-39.2 4.3.4-4 39-5-.5zM16.5 193l6.3-68 4.3.4-6 68-4-.3zm68 2.4l-11-38 4.2-1L88.5 194l-4 1.2zm-37.2 33.2l-18.7-65.8 4.2-1.2 18.7 65.8-4.2 1.2zm64.7-22.3L88.3 175l3.4-2.7 23.7 31.4-3.4 2.6zm-22.5 44.4L48.3 196l3.4-2.5L93 248l-3.5 2.7zm52-43.8L108 186l2.3-3.7 33.5 20.7-2.4 3.7zm-5 49l-58.2-36 2.3-4 58 36-2.2 3zm32.5-60l-38.7-8 .8-4 39 7-1 4zm13.2 48L115 232l.8-4.2 67.2 12.6-.8 4.2zm9-68l-38.8 7-.8-4 38.7-8 .8 4zm29.5 40l-67.2 13-.8-4 67.3-13v4zm-16.4-66l-33.5 21-2.3-4 33.5-20 2.3 3zm42 26l-58 36-2.4-4 58-36 2 3zm-38.8-55l-23.7 32-3.4-3 23.6-31 3.6 2zm48.8 9L215 186l-3.3-2.6 41.2-54.6 3 2.6zM200 93l-10.7 38-4.2-1.2 11-38 4 1.3zm49-8.6l-18.6 65-4-1.7L245 83l4 1.3zm-66.6-15l3.6 39h-4.4L178 70l4.3-.3zM225 44l6.2 68-4.2.5-6.3-68.2 4.3-.4zm-67.5 10L175 89.6l-4 2-17.4-35.3 3.8-2zm30.2-39l30.5 61-4 2L184 16.8l4-2zM129 48.5L158 75l-2.8 3.3-29-26.5 2.8-3.2zM143 .8l50.6 46-3 3.3-50.4-46 3-3zM100 53l36.7 14.2-1.6 4L99 57l1.5-4z"/>
  </defs>
  <clipPath id="r">
    <use xlink:href="#q" overflow="visible"/>
  </clipPath>
  <g clip-path="url(#r)">
    <path fill="#F48220" d="M176.7 71.5l-4 4.3-21.7-20-2 5.5L122.6 51v5.2H92.4l2.6 6.6-28 11 4.3 4.5L50 98l6 3-13 26 5.8.4-2.7 28.8 6-1.7 8 28.2 6-4L83 202l3.2-5 24.8 15.3 1.2-6.2 28.8 6-1.5-6 28.5-6-3-5 24.8-15-5-4 17.5-23-5.7-1 8-28-6.7 1-3-29-6 3-13-26zm-55.3-59l47.3 43L153.5 25l11-5.4 29.2 58.7-3.2-35 12.2-1 6 65.7 10-34.8 11.8 3.4-17.6 61.7 20-27 10 7.3-39 52 29-18.4 6 10.4-55 34 34-6.3 2 12-64 12 34 6.5-3 12-64-12 29 18.4-7 10.4-55-34.2 21 27.6-10 7.4-40-52.8L74 232l-12 3.4L44 173l-3 34.7-12.3-1 6-64L20 173l-11-5.4 29.4-59.3-26.7 24.3-8.3-9 48-44L20 92l-4.4-11.4 62.8-24.3h-36V44h62L73.7 32.2 78 20.8 138 44l-25-22.5 8.2-9z"/>
    <defs>
      <path id="s" d="M176.7 71.5l-4 4.3-21.7-20-2 5.5L122.6 51v5.2H92.4l2.6 6.6-28 11 4.3 4.5L50 98l6 3-13 26 5.8.4-2.7 28.8 6-1.7 8 28.2 6-4L83 202l3.2-5 24.8 15.3 1.2-6.2 28.8 6-1.5-6 28.5-6-3-5 24.8-15-5-4 17.5-23-5.7-1 8-28-6.7 1-3-29-6 3-13-26zm-55.3-59l47.3 43L153.5 25l11-5.4 29.2 58.7-3.2-35 12.2-1 6 65.7 10-34.8 11.8 3.4-17.6 61.7 20-27 10 7.3-39 52 29-18.4 6 10.4-55 34 34-6.3 2 12-64 12 34 6.5-3 12-64-12 29 18.4-7 10.4-55-34.2 21 27.6-10 7.4-40-52.8L74 232l-12 3.4L44 173l-3 34.7-12.3-1 6-64L20 173l-11-5.4 29.4-59.3-26.7 24.3-8.3-9 48-44L20 92l-4.4-11.4 62.8-24.3h-36V44h62L73.7 32.2 78 20.8 138 44l-25-22.5 8.2-9z"/>
    </defs>
    <clipPath id="t">
      <use xlink:href="#s" overflow="visible"/>
    </clipPath>
    <g clip-path="url(#t)">
      <path fill="#F48220" d="M164.4 84.6l-3.3 3.7-18-16.8-1 4.7-22-8.5V72H93l2.3 5.7L71.5 87l3.7 4L57 107.4l5.2 2.6-11 22.2 5 .5L54 157l5-1.5 6.8 24 4.6-3.5 15 19.8 2.7-4.5 22 13 1-5.4 25 4-1-6 24-5-3-5 21-13-4-4 14-19-5-2 7-24h-5l-3-24-5 2-10-22zM93.2 49l43.4 17-23-21 .6-.5H100l.7 1.7-7.5 3zm-29 15h45l-27-10.5-14 5.4h.8l-4.8 4zM41.7 89.7l46.6-18H55.5L43.8 82.4l1.3.6-3 6.8zm-12 31.6l35.2-32-29 11-7 13v.2l-1 7.8zm-7 6.3l.5-.3v-.5l-.4.7zm8 27.7l21.8-44-24 21.8-1.2 14h1l2.3 9zM43.3 185l4.3-46L34 167l3.7 13.2 1-.8 4.6 6zm23 24.4l-13-45.5-3 30 9 12 .5-1 6.4 4zM69 219l-.4-1-.7-.4 1 1.3zm28 5l-29.6-39 8.7 30.6 13 7.8v-1l8 1.5zm33 2.2l-40.3-25 18.7 25 14 2.5-.2-1 7.8-1.5zm32-9.8l-47-8.8 26.6 16.4 14-2.5-.5-.7 7-4.3zm26.2-20.7l-47 8.8 30.8 5.7 12-7.5-.7-.5 5-6.5zm17.3-29l-41 25.3 30.7-5.6 8.4-11.2-.6-.2 2.6-8.2zm4.8-32.4l-28.3 38 26.8-16.8 3.7-13-1.3.2-.8-8.3zm-6.6-32l-12.5 44 18-23.8-1.2-14-1 .4-3.2-7zm2.8-9.6l-.3 1.2.6 1-.4-3zm-21.2-19.2l4.5 48.8 8.5-30.4-6.5-13h-.4l-6.2-6zM184 64h.4v.6l.7.6-13-26.6 6-2.6 28 55 2 .4-3-27.7 6-.7 6 62 1 .5-1 1v2.6l9-31 6 2-17 61v2l18-23 5 4-37 50v1h-1l-1 2 26-16 3 5-53 33-1 1h-1l-1 1 30-5 1 6-62 11v1h-1l-1 1 30 5-1 6-62-11v1-1h-2l26 16-3 5-54-34-1 1 14 19-4 4-38-50h-1v-1l-1-1 9 31-6 2-18-62h1l-.2-2-3 30.6-6-1 6-63-.6-1L10 153l-5.4-2.5 28.2-57-.3-.7.8-.3 1-2-23.6 22-4-4 48-43.7-27.4 10-2.3-6 58.5-22.3.3-.8h1l3.5-2H56.6v-6h62.6L92.7 28l2.2-5.6L155 46l-21.4-20 4-4.5L184 64.2zm-23.4 13l-14-28 7-3.7 4 8 22 43.8-3-31-10.4-9-.2 1-8.2-3-4-8-7 4-12-4h-10l36 33z"/>
    </g>
    <path fill="none" d="M176.7 71.5l-4 4.3-21.7-20-2 5.6-26.3-10.2v5H92.4L95 63 67 73.6l4.3 4.6L50 98l5.8 3-13 26 6 .5-2.7 28.7 6-1.6 8 28.2 6-4L83 202l3.2-5 25 15.2 1-6.2 28.7 5.4-2-6.2 29-5.2-3-5.3 24-15.4-5-3.8 17-23.2-6-1.6 8-27.7-7 .6-3-29.2-6 2.8"/>
    <path fill="none" d="M121.4 12.4l47.3 43-15-30.3 11-5 29 59-3.2-35 12.2-1 6 66 10-35 11.8 4-17.5 61 20-27 10 8-39 52 29-18 6.4 10-55.2 34 34.2-7 2.3 12-64 12 34.3 7-2 12-64-12 29.6 19-6.6 10-55-34 21 28-9.8 8-40-53 10 35-12 4-17.6-63-3.2 34-12.2-1 6-64-15 30-11-6 29.4-59L12 133l-8.3-9 48-44L20 92l-4.4-11.4 62.8-24.3h-36V44h62L73.6 32.2 78 20.8 138 44l-25-22.6"/>
  </g>
  <path fill="none" d="M96 3.4L159.5 28l-1.5 4L94.4 7.5M75.8 67.3h39.4v4.3H75.8zM54 22.6h68.4V27H54zm3 68.7L93.7 77l1.5 4-36.7 14.3m-38-37.8l63.8-24.7 1.5 4L22 61.5m26 58.2l29-26.5 3 3.2L50.7 123M55 58.5l-50.5 46-3-3 50.7-46zM50.6 149l17.6-35 3.8 1.8L54.5 151M1 148.7l30.3-61.2 4 2-30.6 61m58.3 25l3.6-39.2 4.3.4-4 39.3m-40-50.7l-7 68-5-.3 6-68zm57 70l-11-38 4-1L88 194m-56-32.4l19 65.8-4.2 1.2L28 162.8zm79.4 44.7L88.2 175l3.5-2.7 23.7 31.4m-26 47l-41-54.7 3.3-2.5L93 248m48.4-41L108 186l2.2-3.7 33.5 20.7m-7.3 53.4l-58-36 2-3.7 58.3 36m30.3-56l-38.7-7.3.8-4.3 39 8m13 52l-68-13 1-4 67 13m8-63l-38 8-1-4 39-7m31 44l-68 11-1-4 67-12m-16-62l-34 21-2-3 34-20m44 30l-58 36-3-3 58-36m-36-52l-24 31-3-2 24-32m52 13l-40 54-3-2 41-55m-53-35l-11 38-4-1 11-38m30 57l19-66 4 1-19 65zm-45-80l3 40-5 1-4-40m47-26l6 68h-4l-6-68m-63 9l18 36-4 2-17-35m34-42l31 61-4 2-30-61m-55 31l29 26-2 3-29-27m65-2L140 4l3-3.2 50.4 46zm-91 3l36 14-1 4-37-14"/>
  <defs>
    <path id="u" d="M180.7 67.5l-4 4.3L155.2 52l-2 5.4-26.2-10v5H96.5L99 59 71 69.5l4.4 4.6L54 94l6 3-13 26 5.8.4-2.7 28.8 6-1.7 8 28.3 6-4L87 198l3.3-5.2 24.8 15.4 2-6.2 29 5.4-1-6.2 28-5.2-3-6 25-15.3-5-3.7 18-23-5-1.5 7-27.5-6 .6-2-29.2-5 3-13-26zm-55.2-59l47.3 43L157.6 21l11-5.5 29.2 58.7-3.2-35 12.2-1 6 65.7 10-35 11.8 3-17.6 62 20.4-27 9.8 7-39.2 52 29.5-19 6.5 11-55 34 34.2-7 2.3 12-64.2 12 34.4 6-2.3 12-64.2-12 29.8 18-6.7 10L97 211l21 27.7-9.8 7.3-40-52.7 10 34.4-12 3.3-17.6-62-3.2 34.8-12.2-1 6-64-15 30.4-11-5.5 29.4-59.3L16 128.7l-8.4-9 48-44L24 88l-4.4-11.4 62.8-24.3h-36V40h62L77.7 28.2 82 16.8 142 40l-25-22.5 8.3-9z"/>
  </defs>
  <clipPath id="v">
    <use xlink:href="#u" overflow="visible"/>
  </clipPath>
  <g clip-path="url(#v)">
    <defs>
      <path id="w" d="M245.2 6.3h4v242.2h-4V6.3z"/>
    </defs>
    <clipPath id="x">
      <use xlink:href="#w" overflow="visible"/>
    </clipPath>
    <g clip-path="url(#x)" fill="#F48220">
      <path d="M245.2 6.3h2v242.2h-2V6.3m2 0h2v242.2h-2V6.3"/>
    </g>
    <defs>
      <path id="y" d="M207.4 6.3h41.8v242.2h-41.8V6.3z"/>
    </defs>
    <clipPath id="z">
      <use xlink:href="#y" overflow="visible"/>
    </clipPath>
    <g clip-path="url(#z)">
      <path fill="#FCB817" d="M207.4 6.3h3.5v242.2h-4V6.3"/>
      <path fill="#FBB216" d="M211 6.3h3.4v242.2H211V6.3"/>
      <path fill="#FAAD19" d="M214.4 6.3h3.5v242.2h-4V6.3"/>
      <path fill="#FAA91A" d="M218 6.3h3.4v242.2H218V6.3"/>
      <path fill="#F9A31D" d="M221.4 6.3h3.4v242.2h-3.4V6.3"/>
      <path fill="#F89E1E" d="M224.8 6.3h3.5v242.2h-3.5V6.3"/>
      <path fill="#F7991F" d="M228.3 6.3h3.5v242.2h-3.5V6.3"/>
      <path fill="#F79520" d="M231.8 6.3h3.5v242.2h-3.5V6.3"/>
      <path fill="#F69120" d="M235.3 6.3h3.5v242.2h-3.5V6.3"/>
      <path fill="#F58B21" d="M238.8 6.3h3.5v242.2h-3.5V6.3"/>
      <path fill="#F58620" d="M242.3 6.3h3.4v242.2h-3.4V6.3"/>
      <path fill="#F48220" d="M245.7 6.3h3.5v242.2h-3.5V6.3"/>
    </g>
    <defs>
      <path id="A" d="M167 6.3h44.5v242.2H167V6.3z"/>
    </defs>
    <clipPath id="B">
      <use xlink:href="#A" overflow="visible"/>
    </clipPath>
    <g clip-path="url(#B)" fill="#FCB817">
      <path d="M167 6.3h22.3v242.2H167V6.3m22.3 0h22.2v242.2h-22.2V6.3"/>
    </g>
    <defs>
      <path id="C" d="M125.3 6.3H171v242.2h-45.7V6.3z"/>
    </defs>
    <clipPath id="D">
      <use xlink:href="#C" overflow="visible"/>
    </clipPath>
    <g clip-path="url(#D)">
      <path fill="#FFD98F" d="M125.3 6.3h2.4v242.2h-2.4V6.3"/>
      <path fill="#FFD68A" d="M127.7 6.3h2.4v242.2h-2V6.3"/>
      <path fill="#FFD485" d="M130 6.3h2.5v242.2H130V6.3"/>
      <path fill="#FFD380" d="M132.5 6.3h2.5v242.2h-2.5V6.3"/>
      <path fill="#FFD079" d="M135 6.3h2.4v242.2H135V6.3"/>
      <path fill="#FFCF76" d="M137.4 6.3h2.4v242.2h-2.4V6.3"/>
      <path fill="#FFCD70" d="M139.8 6.3h2.4v242.2h-2.4V6.3"/>
      <path fill="#FFCC69" d="M142.2 6.3h2.4v242.2h-2.4V6.3"/>
      <path fill="#FFC962" d="M144.6 6.3h2.4v242.2h-2.4V6.3"/>
      <path fill="#FFC85B" d="M147 6.3h2.4v242.2H147V6.3"/>
      <path fill="#FFC556" d="M149.4 6.3h2.4v242.2h-2.4V6.3"/>
      <path fill="#FFC54E" d="M151.8 6.3h2.4v242.2h-2.4V6.3"/>
      <path fill="#FDC245" d="M154.2 6.3h2.5v242.2h-2.5V6.3"/>
      <path fill="#FDC03D" d="M156.7 6.3h2.4v242.2h-2V6.3"/>
      <path fill="#FDBE34" d="M159 6.3h2.5v242.2H159V6.3"/>
      <path fill="#FDBD2C" d="M161.5 6.3h2.4v242.2h-3V6.3"/>
      <path fill="#FDBB24" d="M164 6.3h2.3v242.2H164V6.3"/>
      <path fill="#FCB91C" d="M166.3 6.3h2.4v242.2h-2.4V6.3"/>
      <path fill="#FCB817" d="M168.7 6.3h2.4v242.2h-2V6.3"/>
    </g>
    <defs>
      <path id="E" d="M81 6.3h48.4v242.2H81V6.3z"/>
    </defs>
    <clipPath id="F">
      <use xlink:href="#E" overflow="visible"/>
    </clipPath>
    <g clip-path="url(#F)">
      <path fill="#FCB817" d="M81 6.3h2.4v242.2H81V6.3"/>
      <path fill="#FCB91C" d="M83.4 6.3H86v242.2h-2.6V6.3"/>
      <path fill="#FDBB24" d="M86 6.3h2.5v242.2H86V6.3"/>
      <path fill="#FDBD2C" d="M88.5 6.3H91v242.2h-2.5V6.3"/>
      <path fill="#FDBE34" d="M91 6.3h2.6v242.2H91V6.3"/>
      <path fill="#FDC03D" d="M93.6 6.3h2.6v242.2h-2.6V6.3"/>
      <path fill="#FDC245" d="M96.2 6.3h2.5v242.2h-2.5V6.3"/>
      <path fill="#FFC54E" d="M98.7 6.3h2.6v242.2h-2.6V6.3"/>
      <path fill="#FFC556" d="M101.3 6.3h2.6v242.2h-3V6.3"/>
      <path fill="#FFC85B" d="M104 6.3h2.4v242.2H104V6.3"/>
      <path fill="#FFC962" d="M106.4 6.3h2.6v242.2h-2.6V6.3"/>
      <path fill="#FFCC69" d="M109 6.3h2.5v242.2H109V6.3"/>
      <path fill="#FFCD70" d="M111.5 6.3h2.6v242.2h-2V6.3"/>
      <path fill="#FFCF76" d="M114 6.3h2.6v242.2H114V6.3"/>
      <path fill="#FFD079" d="M116.6 6.3h2.6v242.2h-2.6V6.3"/>
      <path fill="#FFD380" d="M119.2 6.3h2.5v242.2h-2.5V6.3"/>
      <path fill="#FFD485" d="M121.7 6.3h2.6v242.2h-2.6V6.3"/>
      <path fill="#FFD68A" d="M124.3 6.3h2.5v242.2h-2.5V6.3"/>
      <path fill="#FFD98F" d="M126.8 6.3h2.6v242.2h-2.6V6.3"/>
    </g>
    <defs>
      <path id="G" d="M43.2 6.3H85v242.2H43V6.3z"/>
    </defs>
    <clipPath id="H">
      <use xlink:href="#G" overflow="visible"/>
    </clipPath>
    <g clip-path="url(#H)" fill="#FCB817">
      <path d="M43.2 6.3h21v242.2H43V6.3"/>
      <path d="M64 6.3h21v242.2H64V6.3"/>
    </g>
    <defs>
      <path id="I" d="M5.5 6.3h41.8v242.2H5.5V6.3z"/>
    </defs>
    <clipPath id="J">
      <use xlink:href="#I" overflow="visible"/>
    </clipPath>
    <g clip-path="url(#J)">
      <path fill="#F48220" d="M5.5 6.3H9v242.2H5.5V6.3"/>
      <path fill="#F58620" d="M9 6.3h3.4v242.2H9V6.3"/>
      <path fill="#F58B21" d="M12.4 6.3H16v242.2h-3.6V6.3"/>
      <path fill="#F69120" d="M16 6.3h3.4v242.2H16V6.3"/>
      <path fill="#F79520" d="M19.4 6.3H23v242.2h-3.6V6.3"/>
      <path fill="#F7991F" d="M23 6.3h3.4v242.2H23V6.3"/>
      <path fill="#F89E1E" d="M26.4 6.3h3.4v242.2h-3.4V6.3"/>
      <path fill="#F9A31D" d="M29.8 6.3h3.5v242.2h-3.5V6.3"/>
      <path fill="#FAA91A" d="M33.3 6.3h3.5v242.2h-3.5V6.3"/>
      <path fill="#FAAD19" d="M36.8 6.3h3.5v242.2h-3.5V6.3"/>
      <path fill="#FBB216" d="M40.3 6.3h3.5v242.2h-3.5V6.3"/>
      <path fill="#FCB817" d="M43.8 6.3h3.5v242.2h-3.5V6.3"/>
    </g>
  </g>
  <path fill="none" d="M180.7 67.5l-4 4.3-21.6-20-2 5.6-26-10.2v5H97l2 6.8-28 10.6 4.4 4.6L54 94l5.8 3-13 26 6 .5-2.7 28.7 6-1.7 8 28.3 6-4L87 198l3.2-5.2 25 15.4 1-6.2 28.7 5.4-2-6.2 29-5.2-3-5.3 24-15.5-5-3.7 17-23.2-6-1.6 8-27.7-7 .6-3-29.2-6 2.8"/>
  <path fill="none" d="M125.5 8.4l47.2 43-15-30.4 11-5.4 29 58.6-3.2-35 12.2-1 6 65.7 10-35 11.8 3-17.5 62 20.4-27 9.8 7-39.2 52 29.5-19 6.5 11-55.7 34 34.2-7 2.2 12-64.3 12 34.6 7-2.3 12-64-12 29.5 18-6.5 10-55.2-34 21 27-9.8 7-40-53 10 34-12 3-17-63-3.3 34-12.2-1 6-64L24 169l-11-5.4 29.4-59.3-26.6 24.3-8.3-9 48-44L24 88l-4.4-11.4 62.8-24.3h-36V40h62L77.7 28.2l4.5-11.4L142 40l-25-22.6"/>
  <defs>
    <path id="K" d="M180.7 67.5l-4 4.3L155.2 52l-2 5.4-26.2-10v5H96.5L99 59 71 69.5l4.4 4.6L54 94l6 3-13 26 5.8.4-2.7 28.8 6-1.7 8 28.3 6-4L87 198l3.3-5.2 24.8 15.4 2-6.2 29 5.4-1-6.2 28-5.2-3-6 25-15.3-5-3.7 18-23-5-1.5 7-27.5-6 .6-2-29.2-5 3-13-26zm-55.2-59l47.3 43L157.6 21l11-5.5 29.2 58.7-3.2-35 12.2-1 6 65.7 10-35 11.8 3-17.6 62 20.4-27 9.8 7-39.2 52 29.5-19 6.5 11-55 34 34.2-7 2.3 12-64.2 12 34.4 6-2.3 12-64.2-12 29.8 18-6.7 10L97 211l21 27.7-9.8 7.3-40-52.7 10 34.4-12 3.3-17.6-62-3.2 34.8-12.2-1 6-64-15 30.4-11-5.5 29.4-59.3L16 128.7l-8.4-9 48-44L24 88l-4.4-11.4 62.8-24.3h-36V40h62L77.7 28.2 82 16.8 142 40l-25-22.5 8.3-9z"/>
  </defs>
  <clipPath id="L">
    <use xlink:href="#K" overflow="visible"/>
  </clipPath>
  <g clip-path="url(#L)">
    <path fill="#F48220" d="M168.4 80.6l-3.4 3.7-18.5-16.8-1.8 4.7-22-8.5V68h-26l2.3 5.7L75.5 83l3.7 4L61 103.4l5.2 2.6-11 22.2 5 .5L58 153l5-1.5 6.8 24 4.6-3.5 15 19.8 2.7-4.5 22 13 1-5.4 25 4-1-6 24-5-3-5 21-13-4-3 15-20-5-2 6-23h-5l-2-25-5 2-10-22zM97.2 45l43.4 17-23-21 .7-.6H104l.8 1.7-7.6 3zm-29 15h45L86 49.4l-14 5.4.7.7-4.8 4.3zM45.7 86l46.6-18H59.5L47.8 78.4l1.2.6-3.3 6.8zm-12 31.6l35.2-32-29 11-7 13v.2l-1 7.8zm-7 6.3l.5-1v-1h-.4zm8 27l22-44-24 21-1.3 14h1l2.3 8zm12.6 30l4.3-46L38 162l3.7 13.2 1-1 4.6 6zm23 24l-13-46-3 30 9 12 .5-1 6.4 4zm2.7 10l-.4-1-.7-1 1 1zm28 5l-29.6-39 8.6 30 13 7v-1l8 1zm33 2l-40.3-25 18.7 25 14 2v-1l7.6-2zm32-10l-47-9 26.5 16 14-2-.6-1 7-5zm26.2-21l-47 9 30.8 6 12-8-.6-1 5-7zm17.4-29l-41 25 30.7-5 8.5-11h-.7l3-8zm4.7-33L186 168l26.8-16.6 3.7-13-1.3.2-.8-8.3zm-6.6-31l-12.5 44 18-24-1.2-14h-1l-3.2-7zm2.8-10l-.3 1 .6 1-.4-3zm-21.2-19l4.5 48 8.5-31-6.5-13h-.3l-6.3-6zm-1.3-9h1.3L176 34l5.4-2.7 27.8 55h1.4L208 59l6-.4 5.7 62 1 .5-.8 1v3l9-31 5 2-17 61-1 2 18-23 4 4-38 50v1h-1l-1 2 26-16 3 5-53 33-1 1h-1l-1 1 30-5 1 6-62 11-1 1h-1l-1 1 31 6-1 6-62-12h-1l-1-1h-2l26 16-4 5-53-32-1 1 17 23-5 4-35-52h-1v-2l-1-1 8 30-6 2-17-60-1-2-3 31h-6l6-62h-1l-13 25-6-2 29-58-1-.3 1-.7 1-2-24 22-4-4 48-43-24 6-2-6 58-23v-1l1 1 3-2H60v-6h63L96.8 25l2.2-6 60 23-21.4-20 4-4.5L188.2 60zm-23.3 13l-14-28 7-4 4 8 22 44-3-32-10.4-10h-.2l-8-3-4-8-7 3-12-5h-10l36 33z"/>
  </g>
  <path fill="none" d="M180.7 67.5l-4 4.3-21.6-20-2 5.6-26-10.2v5H97l2 6.8-28 10.6 4.4 4.6L54 94l5.8 3-13 26 6 .5-2.7 28.7 6-1.7 8 28.3 6-4L87 198l3.2-5.2 25 15.4 1-6.2 28.7 5.4-2-6.2 29-5.2-3-5.3 24-15.5-5-3.7 17-23.2-6-1.6 8-27.7-7 .6-3-29.2-6 2.8"/>
  <path fill="none" d="M125.5 8.4l47.2 43-15-30.4 11-5.4 29 58.6-3.2-35 12.2-1 6 65.7 10-35 11.8 3-17.5 62 20.4-27 9.8 7-39.2 52 29.5-19 6.5 11-55.7 34 34.2-7 2.2 12-64.3 12 34.6 7-2.3 12-64-12 29.5 18-6.5 10-55.2-34 21 27-9.8 7-40-53 10 34-12 3-17-63-3.3 34-12.2-1 6-64L24 169l-11-5.4 29.4-59.3-26.6 24.3-8.3-9 48-44L24 88l-4.4-11.4 62.8-24.3h-36V40h62L77.7 28.2l4.5-11.4L142 40l-25-22.6"/>
  <defs>
    <path id="M" d="M172.4 76.6l-3.3 3.7-18-16.8-1 4.7-22-8.5V64h-26l3 5.7L80 79l3.6 4L65 99.3l5 2.6-11 22h5l-2 24 5-2 7 24 4.5-4 15 19 2.5-4 21 13 1-6 24.4 4-1-6 24-5-2.8-5 21-14-4.2-3 14.8-20-4.8-1 6.6-23h-5.7L188 91l-5 2-10.6-21zM101.2 41l43.4 17-23-21 .6-.5H108l.7 1.7-7.5 3zm-29 15h45l-27-10.5-14 5.4h.8l-4.8 4zM49.7 82l46.6-18H63.5L51.8 74.4l1.2.6-3.3 6.8zm-12 31.5l35.2-32-29 11-7 13v.2l-1 7.8zm-7 6.4l.5-1v-1h-.4zm8 27l22-44-24 22-1.3 14h1l2.3 8zm12.6 30l4.3-46L42 158l3.7 13.2 1-1 4.6 6zm23 24l-13-46-2.8 30 9 12 .4-1 6 4zm2.7 10l-.4-1-.7-1 1 1zm28 5l-29.6-39 8.6 30 13 7v-1l8 1zm33 2l-40.3-25 18.7 25 14 2v-1l7.6-2zm32-10l-47-9 26.5 16 14-2-.5-1 7-5zm26.2-21l-47 9 30.8 6 12-8-.6-1 5-6zm17.4-29l-41 25 30.7-5 8.4-11h-.6l3-8zm4.8-33L190 164l27-16.6 3.6-13-1.3.2-.8-8.3zm-6.7-31l-12.5 44 18-24-1.2-14h-1l-3.2-7zm2.8-10l-.3 1 .6 1-.4-3zm-21.2-19l4.5 48 8.5-30-6.5-13h-.4l-6.2-6zm-1.3-9h1.3L180 30l5.4-2.7 27.8 55h1.4L212 55l6-.4 5.7 62 1 .5-.8 1v3l9-31 5 2-17 61-1 2 18-23 4 4-38 50v1h-1l-1 2 26-16 3 5-54 33v1h-1l-1 1 30-5 1 6-62 12-1 1h-1l-2 1 30 6-1 6-62-11-1 1-1-1h-2l26 16-3 5-53-33h-1l19 21-5 4-38-50h-1v-2l-1-2 9 31-6 2-15-63h-1l-1-2-2 31-6-1 6-62.2v-.3l-12 24-5-3 28-57 1-.3 1-2-24 22-4-5 47-43-27 10-2-6 58-23 1-1h1l4-2H65v-6h62.6l-26.8-10 2.2-5 60 23-21.5-19 4-5 46.7 43zm-23.3 13l-14-28 7-4 4 8 22 44-3-32-10.4-10h-.2l-8-3-4-8-7 3-12-5h-10l36 33z"/>
  </defs>
  <clipPath id="N">
    <use xlink:href="#M" overflow="visible"/>
  </clipPath>
  <g clip-path="url(#N)">
    <defs>
      <path id="O" d="M241.6 11.7h4v234.5h-4V11.7z"/>
    </defs>
    <clipPath id="P">
      <use xlink:href="#O" overflow="visible"/>
    </clipPath>
    <g clip-path="url(#P)" fill="#F48220">
      <path d="M241.6 11.7h2v234.5h-2V11.7m2 0h2v234.5h-2V11.7"/>
    </g>
    <defs>
      <path id="Q" d="M202.7 11.7h43v234.5h-43V11.7z"/>
    </defs>
    <clipPath id="R">
      <use xlink:href="#Q" overflow="visible"/>
    </clipPath>
    <g clip-path="url(#R)">
      <path fill="#FCB817" d="M202.7 11.7h3.6v234.5h-3.6V11.7"/>
      <path fill="#FBB216" d="M206.3 11.7h3.6v234.5h-4V11.7"/>
      <path fill="#FAAD19" d="M210 11.7h3.5v234.5H210V11.7"/>
      <path fill="#FAA91A" d="M213.5 11.7h3.5v234.5h-3.5V11.7"/>
      <path fill="#F9A31D" d="M217 11.7h3.6v234.5H217V11.7"/>
      <path fill="#F89E1E" d="M220.6 11.7h3.6v234.5h-3.6V11.7"/>
      <path fill="#F7991F" d="M224.2 11.7h3.6v234.5h-3.6V11.7"/>
      <path fill="#F79520" d="M227.8 11.7h3.6v234.5h-3.6V11.7"/>
      <path fill="#F69120" d="M231.4 11.7h3.6v234.5h-3.6V11.7"/>
      <path fill="#F58B21" d="M235 11.7h3.5v234.5H235V11.7"/>
      <path fill="#F58620" d="M238.5 11.7h3.6v234.5h-3V11.7"/>
      <path fill="#F48220" d="M242 11.7h3.7v234.5H242V11.7"/>
    </g>
    <defs>
      <path id="S" d="M162.5 11.7h44.3v234.5h-44.3V11.7z"/>
    </defs>
    <clipPath id="T">
      <use xlink:href="#S" overflow="visible"/>
    </clipPath>
    <g clip-path="url(#T)" fill="#FCB817">
      <path d="M162.5 11.7h22v234.5h-22V11.7m22 0H207v234.5h-22.2V11.7"/>
    </g>
    <defs>
      <path id="U" d="M127.4 11.7h39v234.5h-39V11.7z"/>
    </defs>
    <clipPath id="V">
      <use xlink:href="#U" overflow="visible"/>
    </clipPath>
    <g clip-path="url(#V)">
      <path fill="#FFD98F" d="M127.4 11.7h2v234.5h-2V11.7"/>
      <path fill="#FFD68A" d="M129.5 11.7h2v234.5h-2V11.7"/>
      <path fill="#FFD485" d="M131.5 11.7h2v234.5h-2V11.7"/>
      <path fill="#FFD380" d="M133.6 11.7h2v234.5h-2V11.7"/>
      <path fill="#FFD079" d="M135.6 11.7h2v234.5h-2V11.7"/>
      <path fill="#FFCF76" d="M137.7 11.7h2v234.5h-2V11.7"/>
      <path fill="#FFCD70" d="M139.8 11.7h2v234.5h-2V11.7"/>
      <path fill="#FFCC69" d="M141.8 11.7h2v234.5h-2V11.7"/>
      <path fill="#FFC962" d="M144 11.7h2v234.5h-2V11.7"/>
      <path fill="#FFC85B" d="M146 11.7h2v234.5h-2V11.7"/>
      <path fill="#FFC556" d="M148 11.7h2v234.5h-2V11.7"/>
      <path fill="#FFC54E" d="M150 11.7h2v234.5h-2V11.7"/>
      <path fill="#FDC245" d="M152 11.7h2.2v234.5h-2V11.7"/>
      <path fill="#FDC03D" d="M154.2 11.7h2v234.5h-2V11.7"/>
      <path fill="#FDBE34" d="M156.2 11.7h2v234.5h-2V11.7"/>
      <path fill="#FDBD2C" d="M158.3 11.7h2v234.5h-2V11.7"/>
      <path fill="#FDBB24" d="M160.3 11.7h2v234.5h-2V11.7"/>
      <path fill="#FCB91C" d="M162.4 11.7h2v234.5h-2V11.7"/>
      <path fill="#FCB817" d="M164.5 11.7h2v234.5h-2V11.7"/>
    </g>
    <defs>
      <path id="W" d="M87.2 11.7h44.3v234.5H87.2V11.7z"/>
    </defs>
    <clipPath id="X">
      <use xlink:href="#W" overflow="visible"/>
    </clipPath>
    <g clip-path="url(#X)">
      <path fill="#FCB817" d="M87.2 11.7h2.3v234.5h-2.3V11.7"/>
      <path fill="#FCB91C" d="M89.5 11.7h2.3v234.5h-2.3V11.7"/>
      <path fill="#FDBB24" d="M91.8 11.7h2.4v234.5h-2.4V11.7"/>
      <path fill="#FDBD2C" d="M94.2 11.7h2.3v234.5h-2.3V11.7"/>
      <path fill="#FDBE34" d="M96.5 11.7h2.3v234.5h-2.3V11.7"/>
      <path fill="#FDC03D" d="M98.8 11.7h2.3v234.5h-2V11.7"/>
      <path fill="#FDC245" d="M101 11.7h2.5v234.5H101V11.7"/>
      <path fill="#FFC54E" d="M103.5 11.7h2.3v234.5h-2.3V11.7"/>
      <path fill="#FFC556" d="M105.8 11.7h2.3v234.5h-2V11.7"/>
      <path fill="#FFC85B" d="M108 11.7h2.5v234.5H108V11.7"/>
      <path fill="#FFC962" d="M110.5 11.7h2.3v234.5h-2.3V11.7"/>
      <path fill="#FFCC69" d="M112.8 11.7h2.3v234.5h-2V11.7"/>
      <path fill="#FFCD70" d="M115 11.7h2.5v234.5H115V11.7"/>
      <path fill="#FFCF76" d="M117.5 11.7h2.3v234.5h-2.3V11.7"/>
      <path fill="#FFD079" d="M119.8 11.7h2.3v234.5h-2V11.7"/>
      <path fill="#FFD380" d="M122 11.7h2.5v234.5H122V11.7"/>
      <path fill="#FFD485" d="M124.5 11.7h2.3v234.5h-2.3V11.7"/>
      <path fill="#FFD68A" d="M126.8 11.7h2.3v234.5h-2V11.7"/>
      <path fill="#FFD98F" d="M129 11.7h2.5v234.5H129V11.7"/>
    </g>
    <defs>
      <path id="Y" d="M47 11.7h44v234.5H47V11.7z"/>
    </defs>
    <clipPath id="Z">
      <use xlink:href="#Y" overflow="visible"/>
    </clipPath>
    <g clip-path="url(#Z)" fill="#FCB817">
      <path d="M47 11.7h22v234.5H47V11.7m22 0h22.2v234.5h-22V11.7"/>
    </g>
    <defs>
      <path id="aa" d="M10.5 11.7H51v234.5H10.5V11.7z"/>
    </defs>
    <clipPath id="ab">
      <use xlink:href="#aa" overflow="visible"/>
    </clipPath>
    <g clip-path="url(#ab)">
      <path fill="#F48220" d="M10.5 11.7H14v234.5h-3.5V11.7"/>
      <path fill="#F58620" d="M14 11.7h3.3v234.5H14V11.7"/>
      <path fill="#F58B21" d="M17.3 11.7h3.4v234.5h-3.4V11.7"/>
      <path fill="#F69120" d="M20.7 11.7H24v234.5h-3.3V11.7"/>
      <path fill="#F79520" d="M24 11.7h3.4v234.5H24V11.7"/>
      <path fill="#F7991F" d="M27.4 11.7h3.4v234.5h-3.4V11.7"/>
      <path fill="#F89E1E" d="M30.8 11.7H34v234.5h-3V11.7"/>
      <path fill="#F9A31D" d="M34 11.7h3.5v234.5H34V11.7"/>
      <path fill="#FAA91A" d="M37.5 11.7H41v234.5h-3.5V11.7"/>
      <path fill="#FAAD19" d="M41 11.7h3v234.5h-3V11.7"/>
      <path fill="#FBB216" d="M44.2 11.7h3.4v234.5h-3.4V11.7"/>
      <path fill="#FCB817" d="M47.6 11.7H51v234.5h-3.4V11.7"/>
    </g>
  </g>
  <path fill="none" d="M172.4 76.6l-3.3 3.6-18-16.8-2 4.6-22-8.4V64h-26l3 5.7L80 79l3.6 4-18 16.5 5 2.6-10.8 22 5 1-2.4 24 5-1 7 24 4.6-3 15 19 2.7-4 21 13 1-5 24.3 5-1-5 24-5-3-4 21-13-4.2-3 15-19-5-1 6.7-24-6 1-2-24-5 3m-82-57L145 59l-23-21v-.8h-14l1 2M72 56h45L90 45.4l-14 5.4.8.7m-27 30.3l46.5-18H63.5L51.8 74.4l1.3.6m-15 38.3l35-32-28 11-6 13 1 .2m-8 14.2l1-.3v-.5m8 28l22-44-24 22-1 14 1-1m15 38l4-46-14 28 4 13 1-1m27 31l-13-46-2 30 9 12 1-1m9 14v-2m29 6l-30-39 8 31 13 8v-1m41 4l-42-24 19 25 14 2v-1m40-12l-47-9 27 17 14-2v-1m33-25l-47 8 31 6 13-8m22-35l-41 26 31-5 9-12h-.3m7.3-40l-31 37 27-17 3.6-13h-2m-8-40l-13 44 18-24-1.3-14h-1m0-16.7v2l1 1m-22-22l5 49 9-30-7-13h-1"/>
  <path fill="none" d="M192 56h.5v.6l.8.6L180 30.6l5.4-2.7 27.8 55h1.4L212 55l6-.4 5.7 62 1 .6-.8 1v3l9-31 5 1.7-17 61-1 1 18-24 4 3-38 50v1h-1l-1 1 26-16 3 5-53 33v1l-1-1-2 1 30-6 1 6-62 11h-1l-1-1h-1l30 5-1 6-62-12-1 1-1-1h-1l26 16-3 5-53-33h-1l17 23-5 4-38-50h-1v-1l-1-2 8 30-6 2-17-60-1-1v-3l-2 31-6-1 6-63v-1l-11 28-5-3 28-57 1-2-23 24-4-5 49-42-28 10-2-6 58-22v-1l4-1.7H64v-6h63l-26.4-10 2.2-5.7L163 38l-21.4-20 4-4.5"/>
  <path fill="none" d="M168.7 69.2l-14-28 7-3.7 4 8 22 43.8-3-31.7-10.4-9.5-.2 1-8-3-4-8-7 4-12-4h-10"/>
</svg>
