<?xml version="1.0" encoding="utf-8"?>
<!-- Generator: Adobe Illustrator 16.0.4, SVG Export Plug-In . SVG Version: 6.00 Build 0)  -->
<!DOCTYPE svg PUBLIC "-//W3C//DTD SVG 1.1//EN" "http://www.w3.org/Graphics/SVG/1.1/DTD/svg11.dtd">
<svg version="1.1" id="Layer_1" xmlns="http://www.w3.org/2000/svg" xmlns:xlink="http://www.w3.org/1999/xlink" x="0px" y="0px"
	 width="256px" height="256px" viewBox="0 0 256 256" enable-background="new 0 0 256 256" xml:space="preserve">
<g>
	<g>
		<g>
			<g>
				<defs>
					<path id="SVGID_1_" d="M95.9,3.4l63.8,24.7l-1.6,4L94.3,7.4L95.9,3.4z M75.8,67.3h39.4v4.3H75.8V67.3z M54,22.6h68.4v4.3H54
						V22.6z M57,91.3l36.7-14.2l1.6,4L58.5,95.3L57,91.3z M20.5,57.5l63.8-24.7l1.6,4L22.1,61.5L20.5,57.5z M47.9,119.7L77,93.2
						l2.9,3.2l-29.1,26.5L47.9,119.7z M1.6,101.3l50.5-46.1l2.9,3.2L4.5,104.5L1.6,101.3z M50.6,149.1l17.6-35.2l3.9,1.9l-17.5,35.2
						L50.6,149.1z M0.9,148.7l30.5-61.2l3.9,1.9L4.7,150.6L0.9,148.7z M63,175.5l3.6-39.2l4.3,0.4l-3.6,39.2L63,175.5z M16.5,193.1
						l6.3-68.1l4.3,0.4l-6.3,68.1L16.5,193.1z M84.4,195.4l-10.8-37.9l4.1-1.2l10.8,37.9L84.4,195.4z M47.3,228.6l-18.7-65.8
						l4.2-1.2l18.7,65.8L47.3,228.6z M112,206.3l-23.7-31.4l3.4-2.6l23.7,31.4L112,206.3z M89.5,250.7l-41.2-54.6l3.4-2.6l41.2,54.6
						L89.5,250.7z M141.4,206.9L108,186.2l2.3-3.7l33.5,20.7L141.4,206.9z M136.4,256.4l-58.1-36l2.3-3.7l58.1,36L136.4,256.4z
						 M169,196.6l-38.7-7.2l0.8-4.3l38.7,7.2L169,196.6z M182.2,244.6L115,232l0.8-4.2l67.2,12.6L182.2,244.6z M191.1,177l-38.7,7.2
						l-0.8-4.2l38.7-7.2L191.1,177z M220.7,217l-67.2,12.6l-0.8-4.2l67.2-12.6L220.7,217z M204.3,151.1l-33.5,20.7l-2.3-3.7
						l33.5-20.7L204.3,151.1z M246.3,177.6l-58.1,36l-2.3-3.7l58.1-36L246.3,177.6z M207.5,121.8l-23.7,31.4l-3.4-2.6l23.7-31.4
						L207.5,121.8z M256.3,131.4L215.1,186l-3.4-2.6l41.2-54.6L256.3,131.4z M200.1,93.6l-10.8,37.9l-4.2-1.2L196,92.4L200.1,93.6z
						 M249.1,84.9l-18.7,65.8l-4.1-1.2L245,83.7L249.1,84.9z M182.3,70.2l3.6,39.2l-4.3,0.4L178,70.6L182.3,70.2z M224.8,44.4
						l6.3,68.1l-4.3,0.4l-6.3-68.1L224.8,44.4z M157.4,54.4l17.6,35.2l-3.9,1.9l-17.5-35.2L157.4,54.4z M187.7,14.9l30.5,61.2
						l-3.9,1.9l-30.5-61.2L187.7,14.9z M129,48.6l29.1,26.5l-2.9,3.2l-29.1-26.5L129,48.6z M143.1,0.8l50.5,46.1l-2.9,3.2L140.2,4
						L143.1,0.8z M100,53l36.7,14.2l-1.6,4L98.5,57L100,53z"/>
				</defs>
				<clipPath id="SVGID_2_">
					<use xlink:href="#SVGID_1_"  overflow="visible"/>
				</clipPath>
				<g clip-path="url(#SVGID_2_)">
					<g>
						<defs>
							<polygon id="SVGID_3_" points="254.3,-1.2 258.3,-1.2 258.3,258.4 254.3,258.4 254.3,-1.2 							"/>
						</defs>
						<clipPath id="SVGID_4_">
							<use xlink:href="#SVGID_3_"  overflow="visible"/>
						</clipPath>
						<g clip-path="url(#SVGID_4_)">
							<polygon fill="#F48220" points="254.3,-1.2 256.3,-1.2 256.3,258.4 254.3,258.4 254.3,-1.2 							"/>
							<polygon fill="#F48220" points="256.3,-1.2 258.3,-1.2 258.3,258.4 256.3,258.4 256.3,-1.2 							"/>
						</g>
					</g>
					<g>
						<defs>
							<polygon id="SVGID_5_" points="206.9,-1.2 258.3,-1.2 258.3,258.4 206.9,258.4 206.9,-1.2 							"/>
						</defs>
						<clipPath id="SVGID_6_">
							<use xlink:href="#SVGID_5_"  overflow="visible"/>
						</clipPath>
						<g clip-path="url(#SVGID_6_)">
							<polygon fill="#FCB817" points="206.9,-1.2 211.2,-1.2 211.2,258.4 206.9,258.4 206.9,-1.2 							"/>
							<polygon fill="#FBB216" points="211.2,-1.2 215.5,-1.2 215.5,258.4 211.2,258.4 211.2,-1.2 							"/>
							<polygon fill="#FAAD19" points="215.5,-1.2 219.8,-1.2 219.8,258.4 215.5,258.4 215.5,-1.2 							"/>
							<polygon fill="#FAA91A" points="219.8,-1.2 224.1,-1.2 224.1,258.4 219.8,258.4 219.8,-1.2 							"/>
							<polygon fill="#F9A31D" points="224.1,-1.2 228.3,-1.2 228.3,258.4 224.1,258.4 224.1,-1.2 							"/>
							<polygon fill="#F89E1E" points="228.3,-1.2 232.6,-1.2 232.6,258.4 228.3,258.4 228.3,-1.2 							"/>
							<polygon fill="#F7991F" points="232.6,-1.2 236.9,-1.2 236.9,258.4 232.6,258.4 232.6,-1.2 							"/>
							<polygon fill="#F79520" points="236.9,-1.2 241.2,-1.2 241.2,258.4 236.9,258.4 236.9,-1.2 							"/>
							<polygon fill="#F69120" points="241.2,-1.2 245.5,-1.2 245.5,258.4 241.2,258.4 241.2,-1.2 							"/>
							<polygon fill="#F58B21" points="245.5,-1.2 249.8,-1.2 249.8,258.4 245.5,258.4 245.5,-1.2 							"/>
							<polygon fill="#F58620" points="249.8,-1.2 254.1,-1.2 254.1,258.4 249.8,258.4 249.8,-1.2 							"/>
							<polygon fill="#F48220" points="254.1,-1.2 258.3,-1.2 258.3,258.4 254.1,258.4 254.1,-1.2 							"/>
						</g>
					</g>
					<g>
						<defs>
							<polygon id="SVGID_7_" points="155.3,-1.2 211,-1.2 211,258.4 155.3,258.4 155.3,-1.2 							"/>
						</defs>
						<clipPath id="SVGID_8_">
							<use xlink:href="#SVGID_7_"  overflow="visible"/>
						</clipPath>
						<g clip-path="url(#SVGID_8_)">
							<polygon fill="#FCB817" points="155.3,-1.2 183.1,-1.2 183.1,258.4 155.3,258.4 155.3,-1.2 							"/>
							<polygon fill="#FCB817" points="183.1,-1.2 211,-1.2 211,258.4 183.1,258.4 183.1,-1.2 							"/>
						</g>
					</g>
					<g>
						<defs>
							<polygon id="SVGID_9_" points="126.5,-1.2 159.3,-1.2 159.3,258.4 126.5,258.4 126.5,-1.2 							"/>
						</defs>
						<clipPath id="SVGID_10_">
							<use xlink:href="#SVGID_9_"  overflow="visible"/>
						</clipPath>
						<g clip-path="url(#SVGID_10_)">
							<polygon fill="#FFD98F" points="126.5,-1.2 128.3,-1.2 128.3,258.4 126.5,258.4 126.5,-1.2 							"/>
							<polygon fill="#FFD68A" points="128.3,-1.2 130,-1.2 130,258.4 128.3,258.4 128.3,-1.2 							"/>
							<polygon fill="#FFD485" points="130,-1.2 131.7,-1.2 131.7,258.4 130,258.4 130,-1.2 							"/>
							<polygon fill="#FFD380" points="131.7,-1.2 133.4,-1.2 133.4,258.4 131.7,258.4 131.7,-1.2 							"/>
							<polygon fill="#FFD079" points="133.4,-1.2 135.2,-1.2 135.2,258.4 133.4,258.4 133.4,-1.2 							"/>
							<polygon fill="#FFCF76" points="135.2,-1.2 136.9,-1.2 136.9,258.4 135.2,258.4 135.2,-1.2 							"/>
							<polygon fill="#FFCD70" points="136.9,-1.2 138.6,-1.2 138.6,258.4 136.9,258.4 136.9,-1.2 							"/>
							<polygon fill="#FFCC69" points="138.6,-1.2 140.3,-1.2 140.3,258.4 138.6,258.4 138.6,-1.2 							"/>
							<polygon fill="#FFC962" points="140.3,-1.2 142.1,-1.2 142.1,258.4 140.3,258.4 140.3,-1.2 							"/>
							<polygon fill="#FFC85B" points="142.1,-1.2 143.8,-1.2 143.8,258.4 142.1,258.4 142.1,-1.2 							"/>
							<polygon fill="#FFC556" points="143.8,-1.2 145.5,-1.2 145.5,258.4 143.8,258.4 143.8,-1.2 							"/>
							<polygon fill="#FFC54E" points="145.5,-1.2 147.2,-1.2 147.2,258.4 145.5,258.4 145.5,-1.2 							"/>
							<polygon fill="#FDC245" points="147.2,-1.2 149,-1.2 149,258.4 147.2,258.4 147.2,-1.2 							"/>
							<polygon fill="#FDC03D" points="149,-1.2 150.7,-1.2 150.7,258.4 149,258.4 149,-1.2 							"/>
							<polygon fill="#FDBE34" points="150.7,-1.2 152.4,-1.2 152.4,258.4 150.7,258.4 150.7,-1.2 							"/>
							<polygon fill="#FDBD2C" points="152.4,-1.2 154.1,-1.2 154.1,258.4 152.4,258.4 152.4,-1.2 							"/>
							<polygon fill="#FDBB24" points="154.1,-1.2 155.9,-1.2 155.9,258.4 154.1,258.4 154.1,-1.2 							"/>
							<polygon fill="#FCB91C" points="155.9,-1.2 157.6,-1.2 157.6,258.4 155.9,258.4 155.9,-1.2 							"/>
							<polygon fill="#FCB817" points="157.6,-1.2 159.3,-1.2 159.3,258.4 157.6,258.4 157.6,-1.2 							"/>
						</g>
					</g>
					<g>
						<defs>
							<polygon id="SVGID_11_" points="97.8,-1.2 130.6,-1.2 130.6,258.4 97.8,258.4 97.8,-1.2 							"/>
						</defs>
						<clipPath id="SVGID_12_">
							<use xlink:href="#SVGID_11_"  overflow="visible"/>
						</clipPath>
						<g clip-path="url(#SVGID_12_)">
							<polygon fill="#FCB817" points="97.8,-1.2 99.6,-1.2 99.6,258.4 97.8,258.4 97.8,-1.2 							"/>
							<polygon fill="#FCB91C" points="99.6,-1.2 101.3,-1.2 101.3,258.4 99.6,258.4 99.6,-1.2 							"/>
							<polygon fill="#FDBB24" points="101.3,-1.2 103,-1.2 103,258.4 101.3,258.4 101.3,-1.2 							"/>
							<polygon fill="#FDBD2C" points="103,-1.2 104.7,-1.2 104.7,258.4 103,258.4 103,-1.2 							"/>
							<polygon fill="#FDBE34" points="104.7,-1.2 106.5,-1.2 106.5,258.4 104.7,258.4 104.7,-1.2 							"/>
							<polygon fill="#FDC03D" points="106.5,-1.2 108.2,-1.2 108.2,258.4 106.5,258.4 106.5,-1.2 							"/>
							<polygon fill="#FDC245" points="108.2,-1.2 109.9,-1.2 109.9,258.4 108.2,258.4 108.2,-1.2 							"/>
							<polygon fill="#FFC54E" points="109.9,-1.2 111.6,-1.2 111.6,258.4 109.9,258.4 109.9,-1.2 							"/>
							<polygon fill="#FFC556" points="111.6,-1.2 113.4,-1.2 113.4,258.4 111.6,258.4 111.6,-1.2 							"/>
							<polygon fill="#FFC85B" points="113.4,-1.2 115.1,-1.2 115.1,258.4 113.4,258.4 113.4,-1.2 							"/>
							<polygon fill="#FFC962" points="115.1,-1.2 116.8,-1.2 116.8,258.4 115.1,258.4 115.1,-1.2 							"/>
							<polygon fill="#FFCC69" points="116.8,-1.2 118.5,-1.2 118.5,258.4 116.8,258.4 116.8,-1.2 							"/>
							<polygon fill="#FFCD70" points="118.5,-1.2 120.3,-1.2 120.3,258.4 118.5,258.4 118.5,-1.2 							"/>
							<polygon fill="#FFCF76" points="120.3,-1.2 122,-1.2 122,258.4 120.3,258.4 120.3,-1.2 							"/>
							<polygon fill="#FFD079" points="122,-1.2 123.7,-1.2 123.7,258.4 122,258.4 122,-1.2 							"/>
							<polygon fill="#FFD380" points="123.7,-1.2 125.4,-1.2 125.4,258.4 123.7,258.4 123.7,-1.2 							"/>
							<polygon fill="#FFD485" points="125.4,-1.2 127.2,-1.2 127.2,258.4 125.4,258.4 125.4,-1.2 							"/>
							<polygon fill="#FFD68A" points="127.2,-1.2 128.9,-1.2 128.9,258.4 127.2,258.4 127.2,-1.2 							"/>
							<polygon fill="#FFD98F" points="128.9,-1.2 130.6,-1.2 130.6,258.4 128.9,258.4 128.9,-1.2 							"/>
						</g>
					</g>
					<g>
						<defs>
							<polygon id="SVGID_13_" points="49,-1.2 101.9,-1.2 101.9,258.4 49,258.4 49,-1.2 							"/>
						</defs>
						<clipPath id="SVGID_14_">
							<use xlink:href="#SVGID_13_"  overflow="visible"/>
						</clipPath>
						<g clip-path="url(#SVGID_14_)">
							<polygon fill="#FCB817" points="49,-1.2 75.5,-1.2 75.5,258.4 49,258.4 49,-1.2 							"/>
							<polygon fill="#FCB817" points="75.5,-1.2 101.9,-1.2 101.9,258.4 75.5,258.4 75.5,-1.2 							"/>
						</g>
					</g>
					<g>
						<defs>
							<polygon id="SVGID_15_" points="-1.2,-1.2 53.1,-1.2 53.1,258.4 -1.2,258.4 -1.2,-1.2 							"/>
						</defs>
						<clipPath id="SVGID_16_">
							<use xlink:href="#SVGID_15_"  overflow="visible"/>
						</clipPath>
						<g clip-path="url(#SVGID_16_)">
							<polygon fill="#F48220" points="-1.2,-1.2 3.3,-1.2 3.3,258.4 -1.2,258.4 -1.2,-1.2 							"/>
							<polygon fill="#F58620" points="3.3,-1.2 7.9,-1.2 7.9,258.4 3.3,258.4 3.3,-1.2 							"/>
							<polygon fill="#F58B21" points="7.9,-1.2 12.4,-1.2 12.4,258.4 7.9,258.4 7.9,-1.2 							"/>
							<polygon fill="#F69120" points="12.4,-1.2 16.9,-1.2 16.9,258.4 12.4,258.4 12.4,-1.2 							"/>
							<polygon fill="#F79520" points="16.9,-1.2 21.4,-1.2 21.4,258.4 16.9,258.4 16.9,-1.2 							"/>
							<polygon fill="#F7991F" points="21.4,-1.2 26,-1.2 26,258.4 21.4,258.4 21.4,-1.2 							"/>
							<polygon fill="#F89E1E" points="26,-1.2 30.5,-1.2 30.5,258.4 26,258.4 26,-1.2 							"/>
							<polygon fill="#F9A31D" points="30.5,-1.2 35,-1.2 35,258.4 30.5,258.4 30.5,-1.2 							"/>
							<polygon fill="#FAA91A" points="35,-1.2 39.5,-1.2 39.5,258.4 35,258.4 35,-1.2 							"/>
							<polygon fill="#FAAD19" points="39.5,-1.2 44.1,-1.2 44.1,258.4 39.5,258.4 39.5,-1.2 							"/>
							<polygon fill="#FBB216" points="44.1,-1.2 48.6,-1.2 48.6,258.4 44.1,258.4 44.1,-1.2 							"/>
							<polygon fill="#FCB817" points="48.6,-1.2 53.1,-1.2 53.1,258.4 48.6,258.4 48.6,-1.2 							"/>
						</g>
					</g>
				</g>
			</g>
			<polygon fill="none" points="95.9,3.4 159.6,28.1 158.1,32.1 94.3,7.4 			"/>
			<rect x="75.8" y="67.3" fill="none" width="39.4" height="4.3"/>
			<rect x="54" y="22.6" fill="none" width="68.4" height="4.3"/>
			<polygon fill="none" points="57,91.3 93.7,77.1 95.2,81.1 58.5,95.3 			"/>
			<polygon fill="none" points="20.5,57.5 84.3,32.8 85.8,36.8 22.1,61.5 			"/>
			<polygon fill="none" points="47.9,119.7 77,93.2 79.9,96.4 50.8,122.9 			"/>
			
				<rect x="-5.8" y="77.7" transform="matrix(-0.739 0.6737 -0.6737 -0.739 103.1359 119.8571)" fill="none" width="68.4" height="4.3"/>
			<polygon fill="none" points="50.6,149.1 68.2,113.9 72,115.8 54.5,151.1 			"/>
			<polygon fill="none" points="0.9,148.7 31.3,87.5 35.2,89.4 4.7,150.6 			"/>
			<polygon fill="none" points="63,175.5 66.6,136.3 70.9,136.7 67.3,175.9 			"/>
			
				<rect x="-12.4" y="157.1" transform="matrix(-9.223391e-02 0.9957 -0.9957 -9.223391e-02 182.3467 152.2691)" fill="none" width="68.4" height="4.3"/>
			<polygon fill="none" points="84.4,195.4 73.6,157.5 77.8,156.3 88.6,194.2 			"/>
			
				<rect x="5.9" y="192.9" transform="matrix(0.2737 0.9618 -0.9618 0.2737 216.75 103.1596)" fill="none" width="68.4" height="4.3"/>
			<polygon fill="none" points="112,206.3 88.3,174.9 91.8,172.3 115.5,203.7 			"/>
			<polygon fill="none" points="89.5,250.7 48.3,196.1 51.7,193.5 92.9,248.1 			"/>
			<polygon fill="none" points="141.4,206.9 108,186.2 110.2,182.5 143.7,203.2 			"/>
			<polygon fill="none" points="136.4,256.4 78.3,220.4 80.5,216.7 138.7,252.7 			"/>
			<polygon fill="none" points="169,196.6 130.3,189.4 131.1,185.1 169.8,192.4 			"/>
			<polygon fill="none" points="182.2,244.6 115,232 115.8,227.8 183,240.3 			"/>
			<polygon fill="none" points="191.1,177 152.4,184.3 151.6,180 190.3,172.8 			"/>
			<polygon fill="none" points="220.7,217 153.5,229.6 152.7,225.3 219.9,212.8 			"/>
			<polygon fill="none" points="204.3,151.1 170.8,171.8 168.5,168.1 202,147.4 			"/>
			<polygon fill="none" points="246.3,177.6 188.2,213.6 185.9,210 244,174 			"/>
			<polygon fill="none" points="207.5,121.8 183.8,153.2 180.3,150.6 204.1,119.2 			"/>
			<polygon fill="none" points="256.3,131.4 215.1,186 211.7,183.4 252.9,128.8 			"/>
			<polygon fill="none" points="200.1,93.6 189.4,131.5 185.2,130.3 196,92.4 			"/>
			
				<rect x="203.5" y="115.1" transform="matrix(0.2737 -0.9618 0.9618 0.2737 59.9027 313.736)" fill="none" width="68.4" height="4.3"/>
			<polygon fill="none" points="182.3,70.2 185.9,109.4 181.6,109.9 178,70.6 			"/>
			<polygon fill="none" points="224.8,44.4 231.1,112.5 226.8,112.9 220.5,44.8 			"/>
			<polygon fill="none" points="157.4,54.4 174.9,89.6 171.1,91.5 153.5,56.3 			"/>
			<polygon fill="none" points="187.7,14.9 218.2,76.1 214.3,78.1 183.9,16.8 			"/>
			<polygon fill="none" points="129,48.6 158.1,75.1 155.2,78.3 126.1,51.7 			"/>
			
				<rect x="132.7" y="23.3" transform="matrix(-0.7389 -0.6738 0.6738 -0.7389 273.0486 156.7253)" fill="none" width="68.4" height="4.3"/>
			<polygon fill="none" points="100,53 136.7,67.2 135.2,71.2 98.5,57 			"/>
		</g>
		<g>
			<g>
				<defs>
					<path id="SVGID_17_" d="M95.9,3.4l63.8,24.7l-1.6,4L94.3,7.4L95.9,3.4z M75.8,67.3h39.4v4.3H75.8V67.3z M54,22.6h68.4v4.3H54
						V22.6z M57,91.3l36.7-14.2l1.6,4L58.5,95.3L57,91.3z M20.5,57.5l63.8-24.7l1.6,4L22.1,61.5L20.5,57.5z M47.9,119.7L77,93.2
						l2.9,3.2l-29.1,26.5L47.9,119.7z M1.6,101.3l50.5-46.1l2.9,3.2L4.5,104.5L1.6,101.3z M50.6,149.1l17.6-35.2l3.9,1.9l-17.5,35.2
						L50.6,149.1z M0.9,148.7l30.5-61.2l3.9,1.9L4.7,150.6L0.9,148.7z M63,175.5l3.6-39.2l4.3,0.4l-3.6,39.2L63,175.5z M16.5,193.1
						l6.3-68.1l4.3,0.4l-6.3,68.1L16.5,193.1z M84.4,195.4l-10.8-37.9l4.1-1.2l10.8,37.9L84.4,195.4z M47.3,228.6l-18.7-65.8
						l4.2-1.2l18.7,65.8L47.3,228.6z M112,206.3l-23.7-31.4l3.4-2.6l23.7,31.4L112,206.3z M89.5,250.7l-41.2-54.6l3.4-2.6l41.2,54.6
						L89.5,250.7z M141.4,206.9L108,186.2l2.3-3.7l33.5,20.7L141.4,206.9z M136.4,256.4l-58.1-36l2.3-3.7l58.1,36L136.4,256.4z
						 M169,196.6l-38.7-7.2l0.8-4.3l38.7,7.2L169,196.6z M182.2,244.6L115,232l0.8-4.2l67.2,12.6L182.2,244.6z M191.1,177l-38.7,7.2
						l-0.8-4.2l38.7-7.2L191.1,177z M220.7,217l-67.2,12.6l-0.8-4.2l67.2-12.6L220.7,217z M204.3,151.1l-33.5,20.7l-2.3-3.7
						l33.5-20.7L204.3,151.1z M246.3,177.6l-58.1,36l-2.3-3.7l58.1-36L246.3,177.6z M207.5,121.8l-23.7,31.4l-3.4-2.6l23.7-31.4
						L207.5,121.8z M256.3,131.4L215.1,186l-3.4-2.6l41.2-54.6L256.3,131.4z M200.1,93.6l-10.8,37.9l-4.2-1.2L196,92.4L200.1,93.6z
						 M249.1,84.9l-18.7,65.8l-4.1-1.2L245,83.7L249.1,84.9z M182.3,70.2l3.6,39.2l-4.3,0.4L178,70.6L182.3,70.2z M224.8,44.4
						l6.3,68.1l-4.3,0.4l-6.3-68.1L224.8,44.4z M157.4,54.4l17.6,35.2l-3.9,1.9l-17.5-35.2L157.4,54.4z M187.7,14.9l30.5,61.2
						l-3.9,1.9l-30.5-61.2L187.7,14.9z M129,48.6l29.1,26.5l-2.9,3.2l-29.1-26.5L129,48.6z M143.1,0.8l50.5,46.1l-2.9,3.2L140.2,4
						L143.1,0.8z M100,53l36.7,14.2l-1.6,4L98.5,57L100,53z"/>
				</defs>
				<clipPath id="SVGID_18_">
					<use xlink:href="#SVGID_17_"  overflow="visible"/>
				</clipPath>
				<g clip-path="url(#SVGID_18_)">
					<path fill="#F48220" d="M176.7,71.5l-3.9,4.3L151,55.9l-2.1,5.4l-26.2-10.2v5.1H92.4l2.6,6.6L67.1,73.7l4.2,4.6L49.9,97.9l6,3
						l-13,26l5.9,0.5l-2.7,28.8l5.9-1.7l8,28.2l5.3-4L83,202.1l3.2-5.2l24.8,15.4l1.2-6.2l28.7,5.4l-1.1-6.2l28.3-5.3l-3.2-5.2
						l24.9-15.4l-5-3.8l17.5-23.2l-5.7-1.6l7.9-27.8l-6.6,0.6l-2.7-29.2l-5.7,2.8L176.7,71.5z M121.4,12.4l47.3,43.1l-15.2-30.4
						l11-5.5l29.2,58.7l-3.2-35l12.2-1.1l6.1,65.8l9.9-34.8l11.8,3.4l-17.6,61.7l20.4-27.1l9.8,7.4L204,170.5l29.5-18.3l6.5,10.4
						l-55.1,34.1l34.3-6.4l2.3,12.1l-64.2,12l34.4,6.4l-2.2,12l-64.2-12l29.7,18.4l-6.5,10.4l-55.2-34.2l20.8,27.6l-9.8,7.4
						l-39.9-52.8l9.8,34.4l-11.8,3.4L44.5,173l-3.2,34.7l-12.2-1.1l5.9-63.9l-15.1,30.4l-11-5.5l29.5-59.3l-26.7,24.3l-8.3-9.1
						l48.1-43.9L19.8,92l-4.4-11.4l62.8-24.3H42.1V44h62.1L73.7,32.2l4.4-11.4L137.9,44l-24.7-22.5L121.4,12.4z"/>
					<g>
						<g>
							<defs>
								<path id="SVGID_19_" d="M176.7,71.5l-3.9,4.3L151,55.9l-2.1,5.4l-26.2-10.2v5.1H92.4l2.6,6.6L67.1,73.7l4.2,4.6L49.9,97.9
									l6,3l-13,26l5.9,0.5l-2.7,28.8l5.9-1.7l8,28.2l5.3-4L83,202.1l3.2-5.2l24.8,15.4l1.2-6.2l28.7,5.4l-1.1-6.2l28.3-5.3
									l-3.2-5.2l24.9-15.4l-5-3.8l17.5-23.2l-5.7-1.6l7.9-27.8l-6.6,0.6l-2.7-29.2l-5.7,2.8L176.7,71.5z M121.4,12.4l47.3,43.1
									l-15.2-30.4l11-5.5l29.2,58.7l-3.2-35l12.2-1.1l6.1,65.8l9.9-34.8l11.8,3.4l-17.6,61.7l20.4-27.1l9.8,7.4L204,170.5
									l29.5-18.3l6.5,10.4l-55.1,34.1l34.3-6.4l2.3,12.1l-64.2,12l34.4,6.4l-2.2,12l-64.2-12l29.7,18.4l-6.5,10.4l-55.2-34.2
									l20.8,27.6l-9.8,7.4l-39.9-52.8l9.8,34.4l-11.8,3.4L44.5,173l-3.2,34.7l-12.2-1.1l5.9-63.9l-15.1,30.4l-11-5.5l29.5-59.3
									l-26.7,24.3l-8.3-9.1l48.1-43.9L19.8,92l-4.4-11.4l62.8-24.3H42.1V44h62.1L73.7,32.2l4.4-11.4L137.9,44l-24.7-22.5
									L121.4,12.4z"/>
							</defs>
							<clipPath id="SVGID_20_">
								<use xlink:href="#SVGID_19_"  overflow="visible"/>
							</clipPath>
							<g clip-path="url(#SVGID_20_)">
								<path fill="#F48220" d="M164.4,84.6l-3.3,3.7l-18.5-16.8l-1.8,4.7l-22-8.5v4.2H92.9l2.3,5.8l-23.7,9.2l3.7,4l-18.2,16.6
									l5.2,2.6l-11,22.1l5,0.5l-2.3,24.3l5.1-1.5l6.8,24l4.6-3.5l14.9,19.8l2.8-4.5l21.1,13l1-5.4l24.3,4.5l-1-5.4l24-4.5
									l-2.8-4.5l21.1-13.1l-4.3-3.2l14.8-19.6l-4.9-1.4l6.7-23.5l-5.7,0.5l-2.3-24.7l-5,2.5L164.4,84.6z M93.2,49.1L136.6,66
									l-22.9-20.9l0.5-0.6h-14.2l0.7,1.7L93.2,49.1z M64.2,63.9h45l-27-10.4l-13.9,5.4l0.7,0.7L64.2,63.9z M41.7,89.8l46.6-18
									H55.5L43.8,82.4l1.3,0.6L41.7,89.8z M29.8,121.4l35.1-32l-28.5,11l-6.5,13.1l0.6,0.1L29.8,121.4z M22.8,127.7l0.4-0.3l0-0.5
									L22.8,127.7z M30.6,155.4l21.9-44l-23.9,21.8l-1.3,14.1l0.9-0.2L30.6,155.4z M43.3,185.2l4.3-45.9l-13.7,27.5l3.8,13.2
									l1.1-0.8L43.3,185.2z M66.2,209.5L53.2,164l-2.8,30.5l8.9,11.8l0.5-0.8L66.2,209.5z M68.9,219l-0.2-0.8l-0.7-0.5L68.9,219z
									 M96.9,224l-29.4-39l8.7,30.7l12.6,7.8l0.2-1L96.9,224z M130.1,226.3l-40.3-24.9l18.7,24.8l14,2.6l-0.2-1L130.1,226.3z
									 M162.1,216.5l-47-8.8l26.6,16.4l13.9-2.6l-0.4-0.7L162.1,216.5z M188.3,195.8l-47,8.8l30.8,5.7l12-7.5l-0.8-0.5
									L188.3,195.8z M205.6,166.8l-40.9,25.3l30.6-5.7l8.4-11.2l-0.6-0.2L205.6,166.8z M210.4,134.4l-28.5,37.8l26.9-16.7
									l3.7-12.9l-1.3,0.1L210.4,134.4z M203.8,102.5l-12.5,44l18.1-23.9l-1.3-14.1l-1,0.5L203.8,102.5z M206.6,92.8l-0.3,1.2
									l0.6,1.1L206.6,92.8z M185.4,73.6l4.5,48.8l8.6-30.4L192,78.9l-0.4,0.4L185.4,73.6z M184,64.2l0.5,0l0.1,0.5l0.6,0.6
									L172,38.6l5.4-2.7l27.8,55.8l1.4,0.4l-2.6-27.8l6-0.6l5.7,61.9l0.9,0.6l-0.7,0.9l0.3,2.8l8.7-30.7l5.8,1.7l-17.3,60.8
									l-0.4,1.4l17.9-23.7l4.8,3.6l-37.8,50l0.2,0.9l-1,0.2l-1,1.3l25.9-16l3.2,5.1L172,217.5l-0.2,0.9l-0.9-0.2l-1.3,0.8
									l30.1-5.6l1.1,5.9L139,230.8l-0.5,0.8l-0.9-0.5l-1.5,0.3l30.3,5.7l-1.1,5.9l-62-11.6l-0.6,0.4l-0.5-0.6l-1.7-0.3l26.2,16.2
									l-3.2,5.1l-53.7-33.2l-0.9,0.3l17.2,22.7l-4.8,3.6l-37.6-49.9l-1.4-0.1l0.1-1.5l-1.3-1.7l8.6,30.3l-5.8,1.7L26.8,164
									l-0.4-0.2l0.2-0.4l-0.6-2l-2.8,30.5l-6-0.6l5.8-62.5l-0.5-0.5L10,153.5l-5.4-2.7l28.2-56.7l-0.3-0.7l0.8-0.3l1-2l-23.6,21.5
									l-4.1-4.5l48-43.7L27.3,74.6L25.1,69l58.4-22.6l0.3-0.8l0.9,0.3l3.6-1.4H56.6v-6h62.6L92.7,28.2l2.2-5.6l60.2,23.3
									l-21.6-19.7l4.1-4.5L184,64.2z M160.7,77.2l-14-28.1l7-3.7l4,7.9l21.9,43.9l-2.9-31.8l-10.4-9.5l-0.2,0.5l-8.3-3.2l-4-7.9
									l-7.1,3.5l-12-4.5h-9.9L160.7,77.2z"/>
							</g>
						</g>
						<polygon fill="none" points="176.7,71.5 172.8,75.8 151,55.9 148.9,61.4 122.7,51.2 122.7,56.3 92.4,56.3 95,62.9 67.1,73.7 
							71.3,78.3 49.9,97.9 55.8,100.9 42.9,126.9 48.7,127.5 46.1,156.2 52,154.6 60,182.8 65.3,178.8 83,202.1 86.2,196.9 
							111.1,212.2 112.2,206 140.9,211.4 139.8,205.2 168.1,199.9 164.9,194.7 189.7,179.3 184.8,175.5 202.3,152.3 196.6,150.7 
							204.5,123 198,123.6 195.3,94.4 189.5,97.2 						"/>
						<polygon fill="none" points="121.4,12.4 168.7,55.5 153.6,25.1 164.6,19.6 193.8,78.3 190.5,43.3 202.7,42.1 208.8,107.9 
							218.7,73.1 230.5,76.5 212.9,138.2 233.4,111.2 243.2,118.6 204,170.5 233.4,152.2 239.9,162.6 184.8,196.8 219,190.4 
							221.3,202.4 157.1,214.4 191.5,220.8 189.2,232.9 125,220.9 154.8,239.3 148.3,249.7 93.1,215.6 113.9,243.1 104.2,250.5 
							64.3,197.7 74.1,232.1 62.3,235.5 44.5,173 41.3,207.8 29.1,206.6 35,142.7 19.9,173.1 8.9,167.6 38.4,108.4 11.8,132.7 
							3.5,123.6 51.6,79.7 19.8,92 15.4,80.6 78.2,56.3 42.1,56.3 42.1,44 104.1,44 73.7,32.2 78.2,20.8 137.9,44 113.2,21.4 						
							"/>
					</g>
				</g>
			</g>
			<polygon fill="none" points="95.9,3.4 159.6,28.1 158.1,32.1 94.3,7.4 			"/>
			<rect x="75.8" y="67.3" fill="none" width="39.4" height="4.3"/>
			<rect x="54" y="22.6" fill="none" width="68.4" height="4.3"/>
			<polygon fill="none" points="57,91.3 93.7,77.1 95.2,81.1 58.5,95.3 			"/>
			<polygon fill="none" points="20.5,57.5 84.3,32.8 85.8,36.8 22.1,61.5 			"/>
			<polygon fill="none" points="47.9,119.7 77,93.2 79.9,96.4 50.8,122.9 			"/>
			
				<rect x="-5.8" y="77.7" transform="matrix(-0.739 0.6737 -0.6737 -0.739 103.1359 119.8571)" fill="none" width="68.4" height="4.3"/>
			<polygon fill="none" points="50.6,149.1 68.2,113.9 72,115.8 54.5,151.1 			"/>
			<polygon fill="none" points="0.9,148.7 31.3,87.5 35.2,89.4 4.7,150.6 			"/>
			<polygon fill="none" points="63,175.5 66.6,136.3 70.9,136.7 67.3,175.9 			"/>
			
				<rect x="-12.4" y="157.1" transform="matrix(-9.223391e-02 0.9957 -0.9957 -9.223391e-02 182.3467 152.2691)" fill="none" width="68.4" height="4.3"/>
			<polygon fill="none" points="84.4,195.4 73.6,157.5 77.8,156.3 88.6,194.2 			"/>
			
				<rect x="5.9" y="192.9" transform="matrix(0.2737 0.9618 -0.9618 0.2737 216.75 103.1596)" fill="none" width="68.4" height="4.3"/>
			<polygon fill="none" points="112,206.3 88.3,174.9 91.8,172.3 115.5,203.7 			"/>
			<polygon fill="none" points="89.5,250.7 48.3,196.1 51.7,193.5 92.9,248.1 			"/>
			<polygon fill="none" points="141.4,206.9 108,186.2 110.2,182.5 143.7,203.2 			"/>
			<polygon fill="none" points="136.4,256.4 78.3,220.4 80.5,216.7 138.7,252.7 			"/>
			<polygon fill="none" points="169,196.6 130.3,189.4 131.1,185.1 169.8,192.4 			"/>
			<polygon fill="none" points="182.2,244.6 115,232 115.8,227.8 183,240.3 			"/>
			<polygon fill="none" points="191.1,177 152.4,184.3 151.6,180 190.3,172.8 			"/>
			<polygon fill="none" points="220.7,217 153.5,229.6 152.7,225.3 219.9,212.8 			"/>
			<polygon fill="none" points="204.3,151.1 170.8,171.8 168.5,168.1 202,147.4 			"/>
			<polygon fill="none" points="246.3,177.6 188.2,213.6 185.9,210 244,174 			"/>
			<polygon fill="none" points="207.5,121.8 183.8,153.2 180.3,150.6 204.1,119.2 			"/>
			<polygon fill="none" points="256.3,131.4 215.1,186 211.7,183.4 252.9,128.8 			"/>
			<polygon fill="none" points="200.1,93.6 189.4,131.5 185.2,130.3 196,92.4 			"/>
			
				<rect x="203.5" y="115.1" transform="matrix(0.2737 -0.9618 0.9618 0.2737 59.9027 313.736)" fill="none" width="68.4" height="4.3"/>
			<polygon fill="none" points="182.3,70.2 185.9,109.4 181.6,109.9 178,70.6 			"/>
			<polygon fill="none" points="224.8,44.4 231.1,112.5 226.8,112.9 220.5,44.8 			"/>
			<polygon fill="none" points="157.4,54.4 174.9,89.6 171.1,91.5 153.5,56.3 			"/>
			<polygon fill="none" points="187.7,14.9 218.2,76.1 214.3,78.1 183.9,16.8 			"/>
			<polygon fill="none" points="129,48.6 158.1,75.1 155.2,78.3 126.1,51.7 			"/>
			
				<rect x="132.7" y="23.3" transform="matrix(-0.7389 -0.6738 0.6738 -0.7389 273.0486 156.7253)" fill="none" width="68.4" height="4.3"/>
			<polygon fill="none" points="100,53 136.7,67.2 135.2,71.2 98.5,57 			"/>
		</g>
	</g>
	<g>
		<g>
			<g>
				<defs>
					<path id="SVGID_21_" d="M180.7,67.5l-3.9,4.3l-21.7-19.8l-2.1,5.4l-26.2-10.1v5H96.5l2.6,6.6L71.1,69.7l4.2,4.6L53.9,93.9l6,3
						l-13,26l5.9,0.5l-2.7,28.8l5.9-1.7l8,28.3l5.3-4L87,198.1l3.3-5.3l24.8,15.4l1.2-6.2l28.7,5.4l-1.2-6.2l28.4-5.3l-3.2-5.2
						l24.9-15.4l-4.9-3.7l17.5-23.2l-5.6-1.6l7.9-27.7l-6.6,0.6l-2.7-29.2l-5.7,2.9L180.7,67.5z M125.5,8.4l47.3,43.1L157.6,21
						l11-5.5l29.2,58.7l-3.2-35l12.2-1.1l6.1,65.8l9.9-34.8l11.8,3.4L217,134.2l20.4-27.1l9.8,7.4L208,166.4l29.5-18.2l6.5,10.4
						l-55.1,34.1l34.3-6.4l2.3,12l-64.2,12l34.4,6.4l-2.3,12.1l-64.2-12l29.7,18.4l-6.5,10.4l-55.2-34.2l20.8,27.6l-9.8,7.4
						l-39.9-52.8l9.8,34.4l-11.8,3.4L48.5,169l-3.2,34.8l-12.2-1.1l5.9-63.9l-15.1,30.4l-11-5.5l29.5-59.3l-26.7,24.3l-8.3-9.1
						l48.1-43.9L23.8,88l-4.4-11.4l62.8-24.3H46.1V40h62.1L77.7,28.2l4.4-11.4L141.9,40l-24.7-22.5L125.5,8.4z"/>
				</defs>
				<clipPath id="SVGID_22_">
					<use xlink:href="#SVGID_21_"  overflow="visible"/>
				</clipPath>
				<g clip-path="url(#SVGID_22_)">
					<g>
						<defs>
							<polygon id="SVGID_23_" points="245.2,6.3 249.2,6.3 249.2,248.5 245.2,248.5 245.2,6.3 							"/>
						</defs>
						<clipPath id="SVGID_24_">
							<use xlink:href="#SVGID_23_"  overflow="visible"/>
						</clipPath>
						<g clip-path="url(#SVGID_24_)">
							<polygon fill="#F48220" points="245.2,6.3 247.2,6.3 247.2,248.5 245.2,248.5 245.2,6.3 							"/>
							<polygon fill="#F48220" points="247.2,6.3 249.2,6.3 249.2,248.5 247.2,248.5 247.2,6.3 							"/>
						</g>
					</g>
					<g>
						<defs>
							<polygon id="SVGID_25_" points="207.4,6.3 249.2,6.3 249.2,248.5 207.4,248.5 207.4,6.3 							"/>
						</defs>
						<clipPath id="SVGID_26_">
							<use xlink:href="#SVGID_25_"  overflow="visible"/>
						</clipPath>
						<g clip-path="url(#SVGID_26_)">
							<polygon fill="#FCB817" points="207.4,6.3 210.9,6.3 210.9,248.5 207.4,248.5 207.4,6.3 							"/>
							<polygon fill="#FBB216" points="210.9,6.3 214.4,6.3 214.4,248.5 210.9,248.5 210.9,6.3 							"/>
							<polygon fill="#FAAD19" points="214.4,6.3 217.9,6.3 217.9,248.5 214.4,248.5 214.4,6.3 							"/>
							<polygon fill="#FAA91A" points="217.9,6.3 221.4,6.3 221.4,248.5 217.9,248.5 217.9,6.3 							"/>
							<polygon fill="#F9A31D" points="221.4,6.3 224.8,6.3 224.8,248.5 221.4,248.5 221.4,6.3 							"/>
							<polygon fill="#F89E1E" points="224.8,6.3 228.3,6.3 228.3,248.5 224.8,248.5 224.8,6.3 							"/>
							<polygon fill="#F7991F" points="228.3,6.3 231.8,6.3 231.8,248.5 228.3,248.5 228.3,6.3 							"/>
							<polygon fill="#F79520" points="231.8,6.3 235.3,6.3 235.3,248.5 231.8,248.5 231.8,6.3 							"/>
							<polygon fill="#F69120" points="235.3,6.3 238.8,6.3 238.8,248.5 235.3,248.5 235.3,6.3 							"/>
							<polygon fill="#F58B21" points="238.8,6.3 242.3,6.3 242.3,248.5 238.8,248.5 238.8,6.3 							"/>
							<polygon fill="#F58620" points="242.3,6.3 245.7,6.3 245.7,248.5 242.3,248.5 242.3,6.3 							"/>
							<polygon fill="#F48220" points="245.7,6.3 249.2,6.3 249.2,248.5 245.7,248.5 245.7,6.3 							"/>
						</g>
					</g>
					<g>
						<defs>
							<polygon id="SVGID_27_" points="167.1,6.3 211.5,6.3 211.5,248.5 167.1,248.5 167.1,6.3 							"/>
						</defs>
						<clipPath id="SVGID_28_">
							<use xlink:href="#SVGID_27_"  overflow="visible"/>
						</clipPath>
						<g clip-path="url(#SVGID_28_)">
							<polygon fill="#FCB817" points="167.1,6.3 189.3,6.3 189.3,248.5 167.1,248.5 167.1,6.3 							"/>
							<polygon fill="#FCB817" points="189.3,6.3 211.5,6.3 211.5,248.5 189.3,248.5 189.3,6.3 							"/>
						</g>
					</g>
					<g>
						<defs>
							<polygon id="SVGID_29_" points="125.3,6.3 171.1,6.3 171.1,248.5 125.3,248.5 125.3,6.3 							"/>
						</defs>
						<clipPath id="SVGID_30_">
							<use xlink:href="#SVGID_29_"  overflow="visible"/>
						</clipPath>
						<g clip-path="url(#SVGID_30_)">
							<polygon fill="#FFD98F" points="125.3,6.3 127.7,6.3 127.7,248.5 125.3,248.5 125.3,6.3 							"/>
							<polygon fill="#FFD68A" points="127.7,6.3 130.1,6.3 130.1,248.5 127.7,248.5 127.7,6.3 							"/>
							<polygon fill="#FFD485" points="130.1,6.3 132.5,6.3 132.5,248.5 130.1,248.5 130.1,6.3 							"/>
							<polygon fill="#FFD380" points="132.5,6.3 135,6.3 135,248.5 132.5,248.5 132.5,6.3 							"/>
							<polygon fill="#FFD079" points="135,6.3 137.4,6.3 137.4,248.5 135,248.5 135,6.3 							"/>
							<polygon fill="#FFCF76" points="137.4,6.3 139.8,6.3 139.8,248.5 137.4,248.5 137.4,6.3 							"/>
							<polygon fill="#FFCD70" points="139.8,6.3 142.2,6.3 142.2,248.5 139.8,248.5 139.8,6.3 							"/>
							<polygon fill="#FFCC69" points="142.2,6.3 144.6,6.3 144.6,248.5 142.2,248.5 142.2,6.3 							"/>
							<polygon fill="#FFC962" points="144.6,6.3 147,6.3 147,248.5 144.6,248.5 144.6,6.3 							"/>
							<polygon fill="#FFC85B" points="147,6.3 149.4,6.3 149.4,248.5 147,248.5 147,6.3 							"/>
							<polygon fill="#FFC556" points="149.4,6.3 151.8,6.3 151.8,248.5 149.4,248.5 149.4,6.3 							"/>
							<polygon fill="#FFC54E" points="151.8,6.3 154.2,6.3 154.2,248.5 151.8,248.5 151.8,6.3 							"/>
							<polygon fill="#FDC245" points="154.2,6.3 156.7,6.3 156.7,248.5 154.2,248.5 154.2,6.3 							"/>
							<polygon fill="#FDC03D" points="156.7,6.3 159.1,6.3 159.1,248.5 156.7,248.5 156.7,6.3 							"/>
							<polygon fill="#FDBE34" points="159.1,6.3 161.5,6.3 161.5,248.5 159.1,248.5 159.1,6.3 							"/>
							<polygon fill="#FDBD2C" points="161.5,6.3 163.9,6.3 163.9,248.5 161.5,248.5 161.5,6.3 							"/>
							<polygon fill="#FDBB24" points="163.9,6.3 166.3,6.3 166.3,248.5 163.9,248.5 163.9,6.3 							"/>
							<polygon fill="#FCB91C" points="166.3,6.3 168.7,6.3 168.7,248.5 166.3,248.5 166.3,6.3 							"/>
							<polygon fill="#FCB817" points="168.7,6.3 171.1,6.3 171.1,248.5 168.7,248.5 168.7,6.3 							"/>
						</g>
					</g>
					<g>
						<defs>
							<polygon id="SVGID_31_" points="80.9,6.3 129.4,6.3 129.4,248.5 80.9,248.5 80.9,6.3 							"/>
						</defs>
						<clipPath id="SVGID_32_">
							<use xlink:href="#SVGID_31_"  overflow="visible"/>
						</clipPath>
						<g clip-path="url(#SVGID_32_)">
							<polygon fill="#FCB817" points="80.9,6.3 83.4,6.3 83.4,248.5 80.9,248.5 80.9,6.3 							"/>
							<polygon fill="#FCB91C" points="83.4,6.3 86,6.3 86,248.5 83.4,248.5 83.4,6.3 							"/>
							<polygon fill="#FDBB24" points="86,6.3 88.5,6.3 88.5,248.5 86,248.5 86,6.3 							"/>
							<polygon fill="#FDBD2C" points="88.5,6.3 91.1,6.3 91.1,248.5 88.5,248.5 88.5,6.3 							"/>
							<polygon fill="#FDBE34" points="91.1,6.3 93.6,6.3 93.6,248.5 91.1,248.5 91.1,6.3 							"/>
							<polygon fill="#FDC03D" points="93.6,6.3 96.2,6.3 96.2,248.5 93.6,248.5 93.6,6.3 							"/>
							<polygon fill="#FDC245" points="96.2,6.3 98.7,6.3 98.7,248.5 96.2,248.5 96.2,6.3 							"/>
							<polygon fill="#FFC54E" points="98.7,6.3 101.3,6.3 101.3,248.5 98.7,248.5 98.7,6.3 							"/>
							<polygon fill="#FFC556" points="101.3,6.3 103.9,6.3 103.9,248.5 101.3,248.5 101.3,6.3 							"/>
							<polygon fill="#FFC85B" points="103.9,6.3 106.4,6.3 106.4,248.5 103.9,248.5 103.9,6.3 							"/>
							<polygon fill="#FFC962" points="106.4,6.3 109,6.3 109,248.5 106.4,248.5 106.4,6.3 							"/>
							<polygon fill="#FFCC69" points="109,6.3 111.5,6.3 111.5,248.5 109,248.5 109,6.3 							"/>
							<polygon fill="#FFCD70" points="111.5,6.3 114.1,6.3 114.1,248.5 111.5,248.5 111.5,6.3 							"/>
							<polygon fill="#FFCF76" points="114.1,6.3 116.6,6.3 116.6,248.5 114.1,248.5 114.1,6.3 							"/>
							<polygon fill="#FFD079" points="116.6,6.3 119.2,6.3 119.2,248.5 116.6,248.5 116.6,6.3 							"/>
							<polygon fill="#FFD380" points="119.2,6.3 121.7,6.3 121.7,248.5 119.2,248.5 119.2,6.3 							"/>
							<polygon fill="#FFD485" points="121.7,6.3 124.3,6.3 124.3,248.5 121.7,248.5 121.7,6.3 							"/>
							<polygon fill="#FFD68A" points="124.3,6.3 126.8,6.3 126.8,248.5 124.3,248.5 124.3,6.3 							"/>
							<polygon fill="#FFD98F" points="126.8,6.3 129.4,6.3 129.4,248.5 126.8,248.5 126.8,6.3 							"/>
						</g>
					</g>
					<g>
						<defs>
							<polygon id="SVGID_33_" points="43.2,6.3 84.9,6.3 84.9,248.5 43.2,248.5 43.2,6.3 							"/>
						</defs>
						<clipPath id="SVGID_34_">
							<use xlink:href="#SVGID_33_"  overflow="visible"/>
						</clipPath>
						<g clip-path="url(#SVGID_34_)">
							<polygon fill="#FCB817" points="43.2,6.3 64.1,6.3 64.1,248.5 43.2,248.5 43.2,6.3 							"/>
							<polygon fill="#FCB817" points="64.1,6.3 84.9,6.3 84.9,248.5 64.1,248.5 64.1,6.3 							"/>
						</g>
					</g>
					<g>
						<defs>
							<polygon id="SVGID_35_" points="5.5,6.3 47.3,6.3 47.3,248.5 5.5,248.5 5.5,6.3 							"/>
						</defs>
						<clipPath id="SVGID_36_">
							<use xlink:href="#SVGID_35_"  overflow="visible"/>
						</clipPath>
						<g clip-path="url(#SVGID_36_)">
							<polygon fill="#F48220" points="5.5,6.3 9,6.3 9,248.5 5.5,248.5 5.5,6.3 							"/>
							<polygon fill="#F58620" points="9,6.3 12.4,6.3 12.4,248.5 9,248.5 9,6.3 							"/>
							<polygon fill="#F58B21" points="12.4,6.3 15.9,6.3 15.9,248.5 12.4,248.5 12.4,6.3 							"/>
							<polygon fill="#F69120" points="15.9,6.3 19.4,6.3 19.4,248.5 15.9,248.5 15.9,6.3 							"/>
							<polygon fill="#F79520" points="19.4,6.3 22.9,6.3 22.9,248.5 19.4,248.5 19.4,6.3 							"/>
							<polygon fill="#F7991F" points="22.9,6.3 26.4,6.3 26.4,248.5 22.9,248.5 22.9,6.3 							"/>
							<polygon fill="#F89E1E" points="26.4,6.3 29.8,6.3 29.8,248.5 26.4,248.5 26.4,6.3 							"/>
							<polygon fill="#F9A31D" points="29.8,6.3 33.3,6.3 33.3,248.5 29.8,248.5 29.8,6.3 							"/>
							<polygon fill="#FAA91A" points="33.3,6.3 36.8,6.3 36.8,248.5 33.3,248.5 33.3,6.3 							"/>
							<polygon fill="#FAAD19" points="36.8,6.3 40.3,6.3 40.3,248.5 36.8,248.5 36.8,6.3 							"/>
							<polygon fill="#FBB216" points="40.3,6.3 43.8,6.3 43.8,248.5 40.3,248.5 40.3,6.3 							"/>
							<polygon fill="#FCB817" points="43.8,6.3 47.3,6.3 47.3,248.5 43.8,248.5 43.8,6.3 							"/>
						</g>
					</g>
				</g>
			</g>
			<polygon fill="none" points="180.7,67.5 176.8,71.8 155.1,51.9 152.9,57.4 126.7,47.2 126.7,52.3 96.5,52.3 99,58.9 71.1,69.7 
				75.4,74.3 53.9,93.9 59.8,96.9 46.9,122.9 52.7,123.5 50.1,152.2 56,150.5 64.1,178.8 69.4,174.8 87,198.1 90.2,192.8 
				115.1,208.2 116.2,202 144.9,207.4 143.8,201.2 172.1,195.9 168.9,190.7 193.8,175.2 188.8,171.5 206.3,148.3 200.7,146.7 
				208.5,119 202,119.6 199.3,90.4 193.5,93.2 			"/>
			<polygon fill="none" points="125.5,8.4 172.7,51.5 157.6,21 168.6,15.6 197.8,74.2 194.5,39.3 206.7,38.1 212.8,103.9 
				222.7,69.1 234.5,72.5 217,134.2 237.4,107.1 247.2,114.5 208,166.4 237.5,148.2 243.9,158.6 188.8,192.8 223,186.4 225.3,198.4 
				161.1,210.4 195.5,216.8 193.2,228.9 129.1,216.9 158.8,235.3 152.3,245.7 97.1,211.5 118,239.1 108.2,246.5 68.3,193.7 
				78.1,228.1 66.3,231.4 48.5,169 45.3,203.7 33.1,202.6 39,138.7 23.9,169.1 12.9,163.6 42.4,104.3 15.8,128.6 7.5,119.6 
				55.6,75.7 23.8,88 19.4,76.6 82.2,52.3 46.1,52.3 46.1,40 108.2,40 77.7,28.2 82.2,16.8 141.9,40 117.2,17.4 			"/>
		</g>
		<g>
			<g>
				<defs>
					<path id="SVGID_37_" d="M180.7,67.5l-3.9,4.3l-21.7-19.8l-2.1,5.4l-26.2-10.1v5H96.5l2.6,6.6L71.1,69.7l4.2,4.6L53.9,93.9l6,3
						l-13,26l5.9,0.5l-2.7,28.8l5.9-1.7l8,28.3l5.3-4L87,198.1l3.3-5.3l24.8,15.4l1.2-6.2l28.7,5.4l-1.2-6.2l28.4-5.3l-3.2-5.2
						l24.9-15.4l-4.9-3.7l17.5-23.2l-5.6-1.6l7.9-27.7l-6.6,0.6l-2.7-29.2l-5.7,2.9L180.7,67.5z M125.5,8.4l47.3,43.1L157.6,21
						l11-5.5l29.2,58.7l-3.2-35l12.2-1.1l6.1,65.8l9.9-34.8l11.8,3.4L217,134.2l20.4-27.1l9.8,7.4L208,166.4l29.5-18.2l6.5,10.4
						l-55.1,34.1l34.3-6.4l2.3,12l-64.2,12l34.4,6.4l-2.3,12.1l-64.2-12l29.7,18.4l-6.5,10.4l-55.2-34.2l20.8,27.6l-9.8,7.4
						l-39.9-52.8l9.8,34.4l-11.8,3.4L48.5,169l-3.2,34.8l-12.2-1.1l5.9-63.9l-15.1,30.4l-11-5.5l29.5-59.3l-26.7,24.3l-8.3-9.1
						l48.1-43.9L23.8,88l-4.4-11.4l62.8-24.3H46.1V40h62.1L77.7,28.2l4.4-11.4L141.9,40l-24.7-22.5L125.5,8.4z"/>
				</defs>
				<clipPath id="SVGID_38_">
					<use xlink:href="#SVGID_37_"  overflow="visible"/>
				</clipPath>
				<g clip-path="url(#SVGID_38_)">
					<path fill="#F48220" d="M168.4,80.6l-3.4,3.7l-18.5-16.8l-1.8,4.7l-22.1-8.5v4.2H96.9l2.3,5.8l-23.7,9.2l3.7,4l-18.2,16.6
						l5.2,2.6l-11,22.1l5,0.5l-2.3,24.3l5.1-1.5l6.8,24l4.6-3.5l14.9,19.8l2.8-4.5l21.1,13l1-5.4l24.3,4.6l-1-5.4l24-4.5l-2.8-4.5
						l21.1-13.1l-4.3-3.2l14.8-19.6l-4.9-1.4l6.7-23.5l-5.8,0.5l-2.3-24.8l-5,2.5L168.4,80.6z M97.2,45.1l43.4,16.8l-22.9-20.9
						l0.6-0.6h-14.2l0.7,1.7L97.2,45.1z M68.2,59.8h44.9l-27-10.4l-13.9,5.4l0.7,0.7L68.2,59.8z M45.7,85.8l46.6-18H59.5L47.8,78.4
						l1.2,0.6L45.7,85.8z M33.8,117.4l35.1-32l-28.5,11l-6.5,13.1l0.6,0.1L33.8,117.4z M26.8,123.7l0.4-0.3l0-0.5L26.8,123.7z
						 M34.7,151.3l21.9-44l-23.9,21.7l-1.3,14.1l0.9-0.3L34.7,151.3z M47.3,181.1l4.3-45.9l-13.7,27.5l3.8,13.2l1.1-0.8L47.3,181.1z
						 M70.2,205.5l-13-45.5l-2.8,30.5l8.9,11.8l0.5-0.8L70.2,205.5z M72.9,215l-0.2-0.8l-0.7-0.4L72.9,215z M100.9,220l-29.4-39
						l8.7,30.7l12.6,7.8l0.2-1L100.9,220z M134.1,222.3l-40.3-24.9l18.7,24.8l14.1,2.6l-0.2-1L134.1,222.3z M166.1,212.5l-47-8.8
						l26.5,16.4l13.9-2.6l-0.5-0.7L166.1,212.5z M192.3,191.8l-47,8.8l30.8,5.8l12-7.5l-0.7-0.6L192.3,191.8z M209.7,162.8
						l-40.9,25.3l30.6-5.7l8.5-11.2l-0.6-0.2L209.7,162.8z M214.4,130.3l-28.5,37.8l26.9-16.7l3.7-12.9l-1.3,0.1L214.4,130.3z
						 M207.8,98.5l-12.5,44l18.1-23.9l-1.3-14.1l-1,0.5L207.8,98.5z M210.6,88.7l-0.3,1.2l0.6,1.1L210.6,88.7z M189.4,69.6l4.5,48.8
						l8.6-30.4L196,74.9l-0.3,0.4L189.4,69.6z M188.1,60.1l0.5,0l0,0.5l0.7,0.6L176,34.6l5.4-2.7l27.8,55.8l1.4,0.4L208,60.2l6-0.6
						l5.7,61.9l0.9,0.6l-0.7,0.9l0.3,2.8l8.7-30.7l5.8,1.7l-17.3,60.8l-0.4,1.4l17.9-23.7l4.8,3.6l-37.8,50l0.2,0.9l-0.9,0.2l-1,1.3
						l25.9-16l3.2,5.1l-53.2,33l-0.2,0.9l-1-0.2l-1.3,0.8l30.1-5.6l1.1,5.9l-61.8,11.6l-0.5,0.8l-0.9-0.5l-1.5,0.3l30.3,5.7
						l-1.1,5.9l-61.9-11.6l-0.6,0.4l-0.5-0.6l-1.7-0.3l26.2,16.2l-3.2,5.1l-53.7-33.2l-0.9,0.2l17.2,22.7l-4.8,3.6l-37.6-49.8
						l-1.4-0.1l0.1-1.5l-1.3-1.7l8.6,30.3l-5.8,1.7L30.8,160l-0.4-0.2l0.2-0.4l-0.6-2l-2.8,30.6l-6-0.6l5.8-62.5l-0.5-0.5L14,149.5
						l-5.4-2.7l28.2-56.7l-0.3-0.7l0.8-0.3l1-2l-23.5,21.5l-4.1-4.5l48-43.7L31.3,70.6L29.1,65l58.4-22.6l0.3-0.8l0.9,0.4l3.6-1.4
						H60.6v-6h62.6L96.7,24.2l2.2-5.6l60.2,23.3l-21.6-19.7l4.1-4.5L188.1,60.1z M164.7,73.2l-14-28.1l7-3.7l4,7.9l21.9,44
						l-2.9-31.8l-10.4-9.5l-0.2,0.5l-8.3-3.2l-4-7.9l-7.1,3.5l-12-4.5h-9.9L164.7,73.2z"/>
				</g>
			</g>
			<polygon fill="none" points="180.7,67.5 176.8,71.8 155.1,51.9 152.9,57.4 126.7,47.2 126.7,52.3 96.5,52.3 99,58.9 71.1,69.7 
				75.4,74.3 53.9,93.9 59.8,96.9 46.9,122.9 52.7,123.5 50.1,152.2 56,150.5 64.1,178.8 69.4,174.8 87,198.1 90.2,192.8 
				115.1,208.2 116.2,202 144.9,207.4 143.8,201.2 172.1,195.9 168.9,190.7 193.8,175.2 188.8,171.5 206.3,148.3 200.7,146.7 
				208.5,119 202,119.6 199.3,90.4 193.5,93.2 			"/>
			<polygon fill="none" points="125.5,8.4 172.7,51.5 157.6,21 168.6,15.6 197.8,74.2 194.5,39.3 206.7,38.1 212.8,103.9 
				222.7,69.1 234.5,72.5 217,134.2 237.4,107.1 247.2,114.5 208,166.4 237.5,148.2 243.9,158.6 188.8,192.8 223,186.4 225.3,198.4 
				161.1,210.4 195.5,216.8 193.2,228.9 129.1,216.9 158.8,235.3 152.3,245.7 97.1,211.5 118,239.1 108.2,246.5 68.3,193.7 
				78.1,228.1 66.3,231.4 48.5,169 45.3,203.7 33.1,202.6 39,138.7 23.9,169.1 12.9,163.6 42.4,104.3 15.8,128.6 7.5,119.6 
				55.6,75.7 23.8,88 19.4,76.6 82.2,52.3 46.1,52.3 46.1,40 108.2,40 77.7,28.2 82.2,16.8 141.9,40 117.2,17.4 			"/>
		</g>
	</g>
	<g>
		<g>
			<g>
				<defs>
					<path id="SVGID_39_" d="M172.4,76.6l-3.3,3.7l-18.5-16.8l-1.8,4.7l-22.1-8.5v4.2h-25.8l2.3,5.8l-23.7,9.2l3.7,4L64.9,99.4
						l5.2,2.6l-11,22.1l5,0.5l-2.3,24.3l5.1-1.5l6.8,24l4.6-3.5l14.9,19.8l2.8-4.6l21.1,13l1-5.4l24.3,4.6l-1-5.4l24-4.5l-2.8-4.5
						l21.1-13.1l-4.3-3.2l14.8-19.6l-4.8-1.4l6.7-23.5l-5.8,0.5l-2.3-24.8l-5,2.5L172.4,76.6z M101.2,41.1l43.4,16.8l-22.9-20.8
						l0.5-0.6h-14.2l0.7,1.7L101.2,41.1z M72.2,55.8h45l-27-10.5l-13.9,5.4l0.7,0.7L72.2,55.8z M49.7,81.8l46.6-18H63.5L51.8,74.4
						l1.2,0.6L49.7,81.8z M37.8,113.3l35.1-32l-28.5,11l-6.5,13.1l0.6,0.1L37.8,113.3z M30.8,119.7l0.4-0.3l0-0.5L30.8,119.7z
						 M38.7,147.3l21.9-44l-23.9,21.8l-1.3,14.1l0.9-0.2L38.7,147.3z M51.3,177.1l4.3-45.9l-13.7,27.5l3.8,13.2l1.1-0.8L51.3,177.1z
						 M74.2,201.5L61.3,156l-2.8,30.5l8.9,11.8l0.5-0.8L74.2,201.5z M76.9,211l-0.2-0.8l-0.7-0.5L76.9,211z M104.9,216l-29.4-39
						l8.7,30.7l12.6,7.8l0.2-1L104.9,216z M138.1,218.3l-40.3-24.9l18.7,24.8l14.1,2.6l-0.2-1L138.1,218.3z M170.1,208.5l-47-8.8
						l26.5,16.4l13.9-2.6l-0.4-0.7L170.1,208.5z M196.3,187.7l-47,8.8l30.8,5.7l12-7.5l-0.7-0.5L196.3,187.7z M213.7,158.8
						l-40.9,25.3l30.6-5.7l8.4-11.2l-0.6-0.2L213.7,158.8z M218.5,126.3L190,164.1l26.9-16.7l3.7-12.9l-1.3,0.1L218.5,126.3z
						 M211.8,94.5l-12.5,44l18.1-23.9l-1.3-14.1l-1,0.5L211.8,94.5z M214.6,84.7l-0.3,1.2l0.6,1.1L214.6,84.7z M193.4,65.5l4.5,48.8
						l8.6-30.4L200,70.9l-0.4,0.4L193.4,65.5z M192.1,56.1l0.5,0l0,0.5l0.7,0.6L180,30.6l5.4-2.7l27.8,55.8l1.4,0.4L212,56.2l6-0.6
						l5.7,61.9l0.9,0.6l-0.7,0.9l0.3,2.8l8.7-30.7l5.8,1.7l-17.3,60.8l-0.4,1.4l17.9-23.7l4.8,3.6l-37.7,50l0.2,0.9l-0.9,0.2l-1,1.3
						l25.9-16l3.2,5.1L180,209.4l-0.2,0.9l-0.9-0.2l-1.3,0.8l30.1-5.6l1.1,5.9l-61.8,11.6l-0.5,0.8l-0.9-0.5l-1.5,0.3l30.3,5.7
						l-1.1,5.9l-61.9-11.6l-0.6,0.4l-0.5-0.6l-1.7-0.3l26.2,16.2l-3.2,5.1l-53.7-33.2l-0.9,0.3l17.2,22.7l-4.8,3.6l-37.7-49.8
						l-1.4-0.1l0.1-1.5l-1.3-1.7l8.6,30.3l-5.8,1.7L34.9,156l-0.4-0.2l0.2-0.5l-0.6-2l-2.8,30.6l-6-0.6l5.8-62.5l-0.5-0.5L18,145.5
						l-5.4-2.7l28.2-56.7l-0.3-0.7l0.8-0.3l1-2l-23.5,21.5l-4.1-4.5l48-43.7L35.3,66.6L33.2,61l58.4-22.6l0.3-0.8l0.9,0.4l3.6-1.4
						H64.6v-6h62.6l-26.5-10.3l2.2-5.6l60.2,23.3l-21.6-19.7l4.1-4.5L192.1,56.1z M168.7,69.2l-14-28.1l7.1-3.7l3.9,7.9l21.9,43.9
						l-2.9-31.8l-10.4-9.5l-0.2,0.5l-8.3-3.2l-3.9-7.9l-7.1,3.5l-11.9-4.5h-9.9L168.7,69.2z"/>
				</defs>
				<clipPath id="SVGID_40_">
					<use xlink:href="#SVGID_39_"  overflow="visible"/>
				</clipPath>
				<g clip-path="url(#SVGID_40_)">
					<g>
						<defs>
							<polygon id="SVGID_41_" points="241.6,11.7 245.7,11.7 245.7,246.2 241.6,246.2 241.6,11.7 							"/>
						</defs>
						<clipPath id="SVGID_42_">
							<use xlink:href="#SVGID_41_"  overflow="visible"/>
						</clipPath>
						<g clip-path="url(#SVGID_42_)">
							<polygon fill="#F48220" points="241.6,11.7 243.7,11.7 243.7,246.2 241.6,246.2 241.6,11.7 							"/>
							<polygon fill="#F48220" points="243.7,11.7 245.7,11.7 245.7,246.2 243.7,246.2 243.7,11.7 							"/>
						</g>
					</g>
					<g>
						<defs>
							<polygon id="SVGID_43_" points="202.7,11.7 245.7,11.7 245.7,246.2 202.7,246.2 202.7,11.7 							"/>
						</defs>
						<clipPath id="SVGID_44_">
							<use xlink:href="#SVGID_43_"  overflow="visible"/>
						</clipPath>
						<g clip-path="url(#SVGID_44_)">
							<polygon fill="#FCB817" points="202.7,11.7 206.3,11.7 206.3,246.2 202.7,246.2 202.7,11.7 							"/>
							<polygon fill="#FBB216" points="206.3,11.7 209.9,11.7 209.9,246.2 206.3,246.2 206.3,11.7 							"/>
							<polygon fill="#FAAD19" points="209.9,11.7 213.5,11.7 213.5,246.2 209.9,246.2 209.9,11.7 							"/>
							<polygon fill="#FAA91A" points="213.5,11.7 217,11.7 217,246.2 213.5,246.2 213.5,11.7 							"/>
							<polygon fill="#F9A31D" points="217,11.7 220.6,11.7 220.6,246.2 217,246.2 217,11.7 							"/>
							<polygon fill="#F89E1E" points="220.6,11.7 224.2,11.7 224.2,246.2 220.6,246.2 220.6,11.7 							"/>
							<polygon fill="#F7991F" points="224.2,11.7 227.8,11.7 227.8,246.2 224.2,246.2 224.2,11.7 							"/>
							<polygon fill="#F79520" points="227.8,11.7 231.4,11.7 231.4,246.2 227.8,246.2 227.8,11.7 							"/>
							<polygon fill="#F69120" points="231.4,11.7 235,11.7 235,246.2 231.4,246.2 231.4,11.7 							"/>
							<polygon fill="#F58B21" points="235,11.7 238.5,11.7 238.5,246.2 235,246.2 235,11.7 							"/>
							<polygon fill="#F58620" points="238.5,11.7 242.1,11.7 242.1,246.2 238.5,246.2 238.5,11.7 							"/>
							<polygon fill="#F48220" points="242.1,11.7 245.7,11.7 245.7,246.2 242.1,246.2 242.1,11.7 							"/>
						</g>
					</g>
					<g>
						<defs>
							<polygon id="SVGID_45_" points="162.5,11.7 206.8,11.7 206.8,246.2 162.5,246.2 162.5,11.7 							"/>
						</defs>
						<clipPath id="SVGID_46_">
							<use xlink:href="#SVGID_45_"  overflow="visible"/>
						</clipPath>
						<g clip-path="url(#SVGID_46_)">
							<polygon fill="#FCB817" points="162.5,11.7 184.6,11.7 184.6,246.2 162.5,246.2 162.5,11.7 							"/>
							<polygon fill="#FCB817" points="184.6,11.7 206.8,11.7 206.8,246.2 184.6,246.2 184.6,11.7 							"/>
						</g>
					</g>
					<g>
						<defs>
							<polygon id="SVGID_47_" points="127.4,11.7 166.5,11.7 166.5,246.2 127.4,246.2 127.4,11.7 							"/>
						</defs>
						<clipPath id="SVGID_48_">
							<use xlink:href="#SVGID_47_"  overflow="visible"/>
						</clipPath>
						<g clip-path="url(#SVGID_48_)">
							<polygon fill="#FFD98F" points="127.4,11.7 129.5,11.7 129.5,246.2 127.4,246.2 127.4,11.7 							"/>
							<polygon fill="#FFD68A" points="129.5,11.7 131.5,11.7 131.5,246.2 129.5,246.2 129.5,11.7 							"/>
							<polygon fill="#FFD485" points="131.5,11.7 133.6,11.7 133.6,246.2 131.5,246.2 131.5,11.7 							"/>
							<polygon fill="#FFD380" points="133.6,11.7 135.6,11.7 135.6,246.2 133.6,246.2 133.6,11.7 							"/>
							<polygon fill="#FFD079" points="135.6,11.7 137.7,11.7 137.7,246.2 135.6,246.2 135.6,11.7 							"/>
							<polygon fill="#FFCF76" points="137.7,11.7 139.8,11.7 139.8,246.2 137.7,246.2 137.7,11.7 							"/>
							<polygon fill="#FFCD70" points="139.8,11.7 141.8,11.7 141.8,246.2 139.8,246.2 139.8,11.7 							"/>
							<polygon fill="#FFCC69" points="141.8,11.7 143.9,11.7 143.9,246.2 141.8,246.2 141.8,11.7 							"/>
							<polygon fill="#FFC962" points="143.9,11.7 145.9,11.7 145.9,246.2 143.9,246.2 143.9,11.7 							"/>
							<polygon fill="#FFC85B" points="145.9,11.7 148,11.7 148,246.2 145.9,246.2 145.9,11.7 							"/>
							<polygon fill="#FFC556" points="148,11.7 150,11.7 150,246.2 148,246.2 148,11.7 							"/>
							<polygon fill="#FFC54E" points="150,11.7 152.1,11.7 152.1,246.2 150,246.2 150,11.7 							"/>
							<polygon fill="#FDC245" points="152.1,11.7 154.2,11.7 154.2,246.2 152.1,246.2 152.1,11.7 							"/>
							<polygon fill="#FDC03D" points="154.2,11.7 156.2,11.7 156.2,246.2 154.2,246.2 154.2,11.7 							"/>
							<polygon fill="#FDBE34" points="156.2,11.7 158.3,11.7 158.3,246.2 156.2,246.2 156.2,11.7 							"/>
							<polygon fill="#FDBD2C" points="158.3,11.7 160.3,11.7 160.3,246.2 158.3,246.2 158.3,11.7 							"/>
							<polygon fill="#FDBB24" points="160.3,11.7 162.4,11.7 162.4,246.2 160.3,246.2 160.3,11.7 							"/>
							<polygon fill="#FCB91C" points="162.4,11.7 164.5,11.7 164.5,246.2 162.4,246.2 162.4,11.7 							"/>
							<polygon fill="#FCB817" points="164.5,11.7 166.5,11.7 166.5,246.2 164.5,246.2 164.5,11.7 							"/>
						</g>
					</g>
					<g>
						<defs>
							<polygon id="SVGID_49_" points="87.2,11.7 131.5,11.7 131.5,246.2 87.2,246.2 87.2,11.7 							"/>
						</defs>
						<clipPath id="SVGID_50_">
							<use xlink:href="#SVGID_49_"  overflow="visible"/>
						</clipPath>
						<g clip-path="url(#SVGID_50_)">
							<polygon fill="#FCB817" points="87.2,11.7 89.5,11.7 89.5,246.2 87.2,246.2 87.2,11.7 							"/>
							<polygon fill="#FCB91C" points="89.5,11.7 91.8,11.7 91.8,246.2 89.5,246.2 89.5,11.7 							"/>
							<polygon fill="#FDBB24" points="91.8,11.7 94.2,11.7 94.2,246.2 91.8,246.2 91.8,11.7 							"/>
							<polygon fill="#FDBD2C" points="94.2,11.7 96.5,11.7 96.5,246.2 94.2,246.2 94.2,11.7 							"/>
							<polygon fill="#FDBE34" points="96.5,11.7 98.8,11.7 98.8,246.2 96.5,246.2 96.5,11.7 							"/>
							<polygon fill="#FDC03D" points="98.8,11.7 101.1,11.7 101.1,246.2 98.8,246.2 98.8,11.7 							"/>
							<polygon fill="#FDC245" points="101.1,11.7 103.5,11.7 103.5,246.2 101.1,246.2 101.1,11.7 							"/>
							<polygon fill="#FFC54E" points="103.5,11.7 105.8,11.7 105.8,246.2 103.5,246.2 103.5,11.7 							"/>
							<polygon fill="#FFC556" points="105.8,11.7 108.1,11.7 108.1,246.2 105.8,246.2 105.8,11.7 							"/>
							<polygon fill="#FFC85B" points="108.1,11.7 110.5,11.7 110.5,246.2 108.1,246.2 108.1,11.7 							"/>
							<polygon fill="#FFC962" points="110.5,11.7 112.8,11.7 112.8,246.2 110.5,246.2 110.5,11.7 							"/>
							<polygon fill="#FFCC69" points="112.8,11.7 115.1,11.7 115.1,246.2 112.8,246.2 112.8,11.7 							"/>
							<polygon fill="#FFCD70" points="115.1,11.7 117.5,11.7 117.5,246.2 115.1,246.2 115.1,11.7 							"/>
							<polygon fill="#FFCF76" points="117.5,11.7 119.8,11.7 119.8,246.2 117.5,246.2 117.5,11.7 							"/>
							<polygon fill="#FFD079" points="119.8,11.7 122.1,11.7 122.1,246.2 119.8,246.2 119.8,11.7 							"/>
							<polygon fill="#FFD380" points="122.1,11.7 124.5,11.7 124.5,246.2 122.1,246.2 122.1,11.7 							"/>
							<polygon fill="#FFD485" points="124.5,11.7 126.8,11.7 126.8,246.2 124.5,246.2 124.5,11.7 							"/>
							<polygon fill="#FFD68A" points="126.8,11.7 129.1,11.7 129.1,246.2 126.8,246.2 126.8,11.7 							"/>
							<polygon fill="#FFD98F" points="129.1,11.7 131.5,11.7 131.5,246.2 129.1,246.2 129.1,11.7 							"/>
						</g>
					</g>
					<g>
						<defs>
							<polygon id="SVGID_51_" points="46.9,11.7 91.2,11.7 91.2,246.2 46.9,246.2 46.9,11.7 							"/>
						</defs>
						<clipPath id="SVGID_52_">
							<use xlink:href="#SVGID_51_"  overflow="visible"/>
						</clipPath>
						<g clip-path="url(#SVGID_52_)">
							<polygon fill="#FCB817" points="46.9,11.7 69.1,11.7 69.1,246.2 46.9,246.2 46.9,11.7 							"/>
							<polygon fill="#FCB817" points="69.1,11.7 91.2,11.7 91.2,246.2 69.1,246.2 69.1,11.7 							"/>
						</g>
					</g>
					<g>
						<defs>
							<polygon id="SVGID_53_" points="10.5,11.7 51,11.7 51,246.2 10.5,246.2 10.5,11.7 							"/>
						</defs>
						<clipPath id="SVGID_54_">
							<use xlink:href="#SVGID_53_"  overflow="visible"/>
						</clipPath>
						<g clip-path="url(#SVGID_54_)">
							<polygon fill="#F48220" points="10.5,11.7 13.9,11.7 13.9,246.2 10.5,246.2 10.5,11.7 							"/>
							<polygon fill="#F58620" points="13.9,11.7 17.3,11.7 17.3,246.2 13.9,246.2 13.9,11.7 							"/>
							<polygon fill="#F58B21" points="17.3,11.7 20.7,11.7 20.7,246.2 17.3,246.2 17.3,11.7 							"/>
							<polygon fill="#F69120" points="20.7,11.7 24,11.7 24,246.2 20.7,246.2 20.7,11.7 							"/>
							<polygon fill="#F79520" points="24,11.7 27.4,11.7 27.4,246.2 24,246.2 24,11.7 							"/>
							<polygon fill="#F7991F" points="27.4,11.7 30.8,11.7 30.8,246.2 27.4,246.2 27.4,11.7 							"/>
							<polygon fill="#F89E1E" points="30.8,11.7 34.1,11.7 34.1,246.2 30.8,246.2 30.8,11.7 							"/>
							<polygon fill="#F9A31D" points="34.1,11.7 37.5,11.7 37.5,246.2 34.1,246.2 34.1,11.7 							"/>
							<polygon fill="#FAA91A" points="37.5,11.7 40.9,11.7 40.9,246.2 37.5,246.2 37.5,11.7 							"/>
							<polygon fill="#FAAD19" points="40.9,11.7 44.2,11.7 44.2,246.2 40.9,246.2 40.9,11.7 							"/>
							<polygon fill="#FBB216" points="44.2,11.7 47.6,11.7 47.6,246.2 44.2,246.2 44.2,11.7 							"/>
							<polygon fill="#FCB817" points="47.6,11.7 51,11.7 51,246.2 47.6,246.2 47.6,11.7 							"/>
						</g>
					</g>
				</g>
			</g>
			<polygon fill="none" points="172.4,76.6 169.1,80.2 150.6,63.4 148.8,68.1 126.7,59.5 126.7,63.8 100.9,63.8 103.2,69.6 
				79.5,78.8 83.1,82.8 64.9,99.4 70.1,102 59.2,124 64.2,124.5 61.9,148.9 67.1,147.4 73.9,171.4 78.5,167.9 93.5,187.6 
				96.3,183.1 117.3,196.1 118.3,190.7 142.7,195.3 141.7,189.9 165.6,185.4 162.8,180.9 183.9,167.8 179.6,164.6 194.5,144.9 
				189.6,143.6 196.3,120.1 190.5,120.6 188.3,95.9 183.3,98.4 			"/>
			<polygon fill="none" points="101.2,41.1 144.6,57.9 121.7,37.1 122.3,36.5 108.1,36.5 108.8,38.2 			"/>
			<polygon fill="none" points="72.2,55.8 117.1,55.8 90.2,45.4 76.3,50.8 77,51.5 			"/>
			<polygon fill="none" points="49.7,81.8 96.3,63.8 63.5,63.8 51.8,74.4 53.1,75 			"/>
			<polygon fill="none" points="37.8,113.3 72.9,81.3 44.4,92.4 37.9,105.4 38.5,105.5 			"/>
			<polygon fill="none" points="30.8,119.7 31.2,119.4 31.2,118.9 			"/>
			<polygon fill="none" points="38.7,147.3 60.6,103.3 36.7,125.1 35.4,139.2 36.3,138.9 			"/>
			<polygon fill="none" points="51.3,177.1 55.6,131.2 41.9,158.7 45.7,171.9 46.8,171.1 			"/>
			<polygon fill="none" points="74.2,201.5 61.3,156 58.4,186.5 67.3,198.3 67.8,197.6 			"/>
			<polygon fill="none" points="76.9,211 76.7,210.1 75.9,209.7 			"/>
			<polygon fill="none" points="104.9,216 75.5,177 84.2,207.7 96.8,215.5 97,214.5 			"/>
			<polygon fill="none" points="138.1,218.3 97.8,193.4 116.5,218.2 130.6,220.8 130.4,219.8 			"/>
			<polygon fill="none" points="170.1,208.5 123.1,199.7 149.7,216.1 163.6,213.5 163.1,212.8 			"/>
			<polygon fill="none" points="196.3,187.7 149.3,196.5 180.1,202.3 192.2,194.8 191.4,194.3 			"/>
			<polygon fill="none" points="213.7,158.8 172.8,184.1 203.4,178.3 211.9,167.1 211.3,167 			"/>
			<polygon fill="none" points="218.5,126.3 190,164.1 216.9,147.4 220.6,134.5 219.2,134.6 			"/>
			<polygon fill="none" points="211.8,94.5 199.3,138.5 217.4,114.6 216.1,100.5 215.1,101 			"/>
			<polygon fill="none" points="214.6,84.7 214.3,85.9 214.8,87 			"/>
			<polygon fill="none" points="193.4,65.5 197.9,114.3 206.6,84 200,70.9 199.7,71.2 			"/>
			<polygon fill="none" points="192.1,56.1 192.5,56.1 192.6,56.6 193.3,57.2 180,30.6 185.4,27.9 213.2,83.6 214.6,84 212,56.2 
				218,55.6 223.7,117.6 224.6,118.2 223.9,119.2 224.1,122 232.9,91.2 238.7,92.9 221.4,153.7 221,155.1 238.9,131.4 243.7,135.1 
				205.9,185.1 206.1,185.9 205.2,186.1 204.2,187.4 230.1,171.4 233.2,176.5 180,209.4 179.9,210.3 178.9,210.1 177.7,210.9 
				207.8,205.3 208.9,211.2 147.1,222.8 146.6,223.6 145.7,223 144.2,223.3 174.4,229 173.3,234.9 111.4,223.3 110.8,223.8 
				110.3,223.1 108.6,222.8 134.8,239 131.6,244.1 77.9,210.9 77,211.2 94.2,233.9 89.4,237.5 51.7,187.7 50.4,187.6 50.5,186 
				49.2,184.3 57.8,214.6 52,216.3 34.9,156 34.5,155.8 34.7,155.4 34.1,153.3 31.3,183.9 25.3,183.3 31.1,120.8 30.6,120.2 
				18,145.5 12.6,142.8 40.8,86.1 40.6,85.3 41.3,85 42.3,83 18.8,104.5 14.7,100 62.7,56.3 35.3,66.6 33.2,61 91.6,38.3 91.9,37.5 
				92.8,37.9 96.4,36.5 64.6,36.5 64.6,30.4 127.2,30.4 100.7,20.2 102.9,14.6 163.1,37.9 141.5,18.2 145.6,13.7 			"/>
			<polygon fill="none" points="168.7,69.2 154.8,41.1 161.8,37.5 165.8,45.4 187.6,89.3 184.7,57.6 174.3,48.1 174.1,48.6 
				165.8,45.4 161.8,37.5 154.7,41 142.7,36.5 132.8,36.5 			"/>
		</g>
	</g>
</g>
</svg>
