<?xml version="1.0" encoding="utf-8"?>
<!-- Svg Vector Icons : http://www.onlinewebfonts.com/icon -->
<!DOCTYPE svg PUBLIC "-//W3C//DTD SVG 1.1//EN" "http://www.w3.org/Graphics/SVG/1.1/DTD/svg11.dtd">
<svg version="1.1" xmlns="http://www.w3.org/2000/svg" xmlns:xlink="http://www.w3.org/1999/xlink" x="0px" y="0px" viewBox="0 0 1000 1000" enable-background="new 0 0 1000 1000" xml:space="preserve">
<metadata> Svg Vector Icons : http://www.onlinewebfonts.com/icon </metadata>
<g><path d="M500,990C229.8,990,10,770.2,10,500C10,229.8,229.8,10,500,10c270.2,0,490,219.8,490,490C990,770.2,770.2,990,500,990z M500,88.7C273.1,88.7,88.7,273.2,88.7,500c0,226.8,184.5,411.3,411.3,411.3S911.3,726.8,911.3,500C911.3,273.2,726.8,88.7,500,88.7z"/><path d="M529.8,769.4c-13.4,12.9-31.8,18.9-52.6,18.9c-0.2,0-0.3,0-0.5,0c-19.7,0-37.6-6.2-50.7-18.9c-13.4-12.7-20.1-30.4-20-50.1c-0.2-19.7,6.6-37.4,20.1-49.8c13.2-12.4,31.2-18.5,51.1-18.4c20.7-0.1,39.1,5.8,52.5,18.4c13.5,12.4,20.2,30.2,20.1,49.8C550,739,543.3,756.8,529.8,769.4"/><path d="M650.5,424.7c-7.1,17.4-15.9,32.6-26.7,45.2c-10.4,12.2-21.8,23-34.3,32.3c-11.3,8.4-21.5,17.5-30.8,26.9c-8.9,9.2-16.5,19.8-22.8,31.9c-5.6,10.7-8.9,25.6-8.9,44.8v12.5h-93.8h-11.4l-1.1-11.3c-0.8-8.8-1.3-17.3-1.3-25.3c0-16.1,1.7-30.8,5.3-44c5.1-18.9,12.4-35.5,21.8-49.8c9.1-13.8,19.7-26,31.6-36.3c10.9-9.5,21-18.5,30.5-27.2c8.9-8.2,16.2-16.6,21.9-25.2c4.8-7.3,7.4-15.9,7.4-27.2c-0.1-14.9-3.9-24.8-11-32.5c-5.5-6.2-18.9-11.4-41.8-11.3c-6.9,0-14.4,0.7-22.5,2.3c-8.2,1.6-16.4,3.9-24.5,6.9c-8.3,3-16.3,6.4-23.8,10.4c-7.7,4-14.4,8-20.3,12l-11.7,8.1l-48.3-92.8l9.2-6.3c19.6-13.4,42-24.4,67.1-33c25.9-8.9,56.5-13.1,91.7-13.1c47.8,0,87.1,11.7,115.9,36.4c28.7,24.4,43.4,58.9,43.2,99.3C661.3,384.2,657.9,406.3,650.5,424.7"/></g>
</svg>