<svg xmlns="http://www.w3.org/2000/svg" viewBox="0 0 1000 1000">
  <path d="M500 990C229.8 990 10 770.2 10 500S229.8 10 500 10s490 219.8 490 490-219.8 490-490 490zm0-901.3C273 88.7 88.7 273.2 88.7 500S273.2 911.3 500 911.3 911.3 726.8 911.3 500 726.8 88.7 500 88.7z"/>
  <path d="M529.8 769.4c-13.4 13-31.8 19-52.6 19h-.5c-19.7 0-37.6-6.3-50.7-19-13.4-12.7-20-30.4-20-50-.2-19.8 6.6-37.5 20-50 13.3-12.3 31.3-18.4 51.2-18.3 20.7 0 39 6 52.5 19s20.2 30 20 50c.3 20-6.4 38-20 50m120.8-345c-7 18-16 33-26.7 45-10.4 12-21.8 23-34.3 32-11.3 9-21.5 18-30.8 27-9 9-16.5 20-22.8 32-6 11-9 26-9 45v13H421l-1-11c-1-9-1.4-17.3-1.4-25.3 0-16 1.7-31 5.3-44 5-19 12-35.5 22-50 9-14 19-26 31-36.2 11-9.4 21-18.4 30.3-27 9-8 16.2-16 22-25 4.7-7 7.3-16 7.3-27-.3-15-4-25-11-32.5-5.7-6-19-11.3-42-11-7 0-14.4.5-22.5 2-8 1.7-16.4 4-24.5 7-8 3-16 6.4-23.6 10.4-7.6 4-14.3 8-20 12l-12 8-48-93 9.3-6c19.6-13.4 42-24.4 67-33 26-9 56.6-13 91.8-13 48 0 87 11.6 116 36.3 29 24.6 44 59 43 99.5 1 26-3 48-10 66.5"/>
</svg>
