<svg xmlns="http://www.w3.org/2000/svg" viewBox="0 0 1000 1000">
  <path d="M1000 500c0 276-224 500-500 500S0 776 0 500 224 0 500 0s500 224 500 500z"/>
  <g fill="#63DAF9">
    <path d="M500 317c-103.4 0-187.2 83.8-187.2 187.2s83.8 187 187.2 187c103.3 0 187-83.6 187-187S603.4 317 500 317zm0 47.2c77.3 0 140 62.7 140 140 0 71.6-53.8 130.7-123.3 139 97.6-98.4 3.5-138-11.7-217v129c0 13.2 25.5 60-5 87.6-30.5-27.5-5-74.4-5-87.6v-129c-15.2 79-109.4 118.6-11.8 217-69.4-8.3-123.3-67.4-123.3-139 0-77.3 62-140 140-140zm-8.7-252.7l-37 94.2v6.5l35.5 43.7H510l35.7-44v-7l-37-94.5h-17.4z"/>
    <path d="M364.2 262.3c1.6 22.7 4.2 45.8 9.5 70C412 307.3 448.2 292 500 292s88 15.2 126.2 40.3c5.3-24.2 8-47.3 9.5-70-27-18-55.6-37.3-86.6-37.3l-36 44.3h-26L451 225c-32 1-62.6 19.7-86.6 37.3zm94.8 492l-23 34.5 51.6 99.7h24.7l51.5-99.7-23-34.6H459zm-114.2-397c-4 2.3-24 28-22.8 27.7l-83.5-172c14.5-22 32-43.5 56.8-63l49.5 207.4zM305.6 412c0 1.5-15.4 45.7-15.4 45.7-36.6-26-73.4-51.6-107.7-78.8 1-32 7.4-62 19.8-93 32.6 42 66.5 84 103.3 126zm-20.2 103.5c0 12.5 2.2 27.6 7 46.2l-78.7 3c-14.3-34.8-19.8-62.5-24.2-89.3 30 15.2 61.5 29.2 96 40zm22 84.2c6 12 13.4 24.5 24.7 38.8l-56 35c-12-15.5-23-30.7-31-45.2l63-28.6z"/>
    <path d="M482 715.3v24h-29l-29.2 39c-54-17-89.2-44.6-121-74l51.8-41C382 684.8 421 712 482 715.3zm173.2-358c4 2.3 24 28 22.7 27.7l83-172c-15-22-32-43.5-57-63l-49 207.4zm39.2 54.7c0 1.5 15.4 45.7 15.4 45.7 36.6-26 73.4-51.6 107.7-78.8-1-32-7.4-62-19.8-93-32.6 42-66.5 84-103.3 126zm20.2 103.5c0 12.5-2.2 27.6-7 46.2l78.7 3c14.3-34.8 19.8-62.5 24.2-89.3-30 15.2-61.5 29.2-96 40zm-22 84.2c-6 12-13.4 24.5-24.7 38.8l56 35c12-15.5 23-30.7 31-45.2l-63-28.6zM518 715.3v24h29l29.2 39c54-17 89.2-44.6 121-74l-51.8-41C618 684.8 579 712 518 715.3z"/>
  </g>
</svg>
