<svg xmlns="http://www.w3.org/2000/svg" version="1.2" baseProfile="tiny" viewBox="0 0 72.9 42.9" overflow="inherit" xml:space="preserve"><path fill-rule="evenodd" fill="#010101" d="M4.3 40.8c0-0.9-0.6-1.5-1.3-1.6v0c0.6-0.3 0.9-0.8 0.9-1.5 0-0.8-0.6-1.7-1.9-1.7H0v6.9h1.9C3.7 42.8 4.3 41.7 4.3 40.8zM1.7 36.7c0.8 0 1.2 0.4 1.2 1 0 0.7-0.6 1.1-1.1 1.1H0.9v-2.1H1.7zM3.3 40.8c0 0.7-0.5 1.2-1.4 1.2h-1v-2.3h1C2.9 39.7 3.3 40.2 3.3 40.8z"/><path fill-rule="evenodd" fill="#010101" d="M10.2 42.8l-2.1-5.1H7.5l-2.1 5.1h1l0.5-1.2h1.9l0.5 1.2H10.2zM8.4 40.9H7.1l0.4-1.1c0.1-0.3 0.2-0.6 0.3-0.8h0c0.1 0.2 0.1 0.5 0.3 0.8L8.4 40.9z"/><path fill-rule="evenodd" fill="#010101" d="M16.2 42.8v-5.1h-0.9v2.8c0 0.4 0 0.6 0 0.9h0c-0.1-0.3-0.4-0.5-0.8-1.1l-1.9-2.6h-0.9v5.1h0.9v-2.9c0-0.4 0-0.6 0-0.9h0c0.1 0.3 0.4 0.5 0.7 1l2.1 2.8H16.2z"/><polygon fill-rule="evenodd" fill="#010101" points="22.2 42.8 19.9 40.3 22 37.7 21 37.7 19.1 40 19.1 40 19.1 37.7 18.2 37.7 18.2 42.8 19.1 42.8 19.1 40.6 19.1 40.6 21.1 42.8 "/><path fill-rule="evenodd" fill="#010101" d="M26.7 41.4c0-1.9-2.3-1.4-2.3-2.5 0-0.4 0.4-0.6 0.8-0.6 0.4 0 0.8 0.1 1.2 0.4l0-0.8c-0.3-0.1-0.7-0.3-1.3-0.3 -1 0-1.6 0.6-1.6 1.4 0 0.5 0.2 0.8 0.4 1 0.7 0.6 1.9 0.6 1.9 1.4 0 0.5-0.4 0.7-1 0.7 -0.4 0-0.9-0.2-1.1-0.4l-0.3 0.7c0.4 0.2 0.8 0.4 1.6 0.4C25.8 42.9 26.7 42.4 26.7 41.4z"/><polygon fill-rule="evenodd" fill="#010101" points="31.4 37.7 28.3 37.7 28.3 42.8 31.3 42.8 31.3 42 29.2 42 29.2 40.6 31.1 40.6 31.1 39.9 29.2 39.9 29.2 38.5 31.1 38.5 "/><path fill-rule="evenodd" fill="#010101" d="M37 42.8c-0.7-1.2-1.4-2.2-1.6-2.3v0c0.6-0.2 1-0.7 1-1.3 0-0.8-0.5-1.5-1.8-1.5h-1.5v5.1H34v-2h0.6c0.2 0 0.7 0.8 1.4 2H37zM34.6 38.5c0.6 0 0.9 0.4 0.9 0.8 0 0.5-0.3 0.8-0.9 0.8H34v-1.6H34.6z"/><path fill-rule="evenodd" fill="#010101" d="M42.7 37.7h-0.9l-1.2 2.7c-0.2 0.4-0.3 0.7-0.4 1.1h0c-0.1-0.3-0.2-0.7-0.4-1.1l-1.1-2.7h-1l2.1 5.1h0.6L42.7 37.7z"/><path fill-rule="evenodd" fill="#FAA71C" d="M48.7 42.8L46 35.9h-0.6l-2.7 6.9h0.9l0.7-1.8H47l0.7 1.8H48.7zM46.7 40.2h-2l0.8-2.1c0.1-0.3 0.2-0.6 0.3-0.8h0c0.1 0.2 0.1 0.5 0.3 0.9L46.7 40.2z"/><polygon fill-rule="evenodd" fill="#FAA71C" points="53.2 37.7 50.1 37.7 50.1 42.8 51 42.8 51 40.7 52.9 40.7 52.9 39.9 51 39.9 51 38.5 52.9 38.5 "/><path fill-rule="evenodd" fill="#FAA71C" d="M58.8 42.8c-0.7-1.2-1.4-2.2-1.6-2.3v0c0.6-0.2 1-0.7 1-1.3 0-0.8-0.5-1.5-1.8-1.5h-1.5v5.1h0.9v-2h0.6c0.2 0 0.7 0.8 1.4 2H58.8zM56.3 38.5c0.6 0 0.9 0.4 0.9 0.8 0 0.5-0.3 0.8-0.9 0.8h-0.5v-1.6H56.3z"/><rect x="60.1" y="37.7" fill-rule="evenodd" fill="#FAA71C" width="0.9" height="5.1"/><path fill-rule="evenodd" fill="#FAA71C" d="M66.9 42.5l-0.3-0.7c-0.3 0.2-0.7 0.4-1.3 0.4 -1 0-1.7-0.7-1.7-1.8 0-1.1 0.7-1.9 1.8-1.9 0.5 0 1 0.2 1.3 0.4l0-0.8c-0.4-0.2-0.9-0.3-1.4-0.3 -1.5 0-2.6 1.1-2.6 2.7 0 1.6 1.1 2.6 2.5 2.6C65.8 42.9 66.5 42.8 66.9 42.5z"/><path fill-rule="evenodd" fill="#FAA71C" d="M72.9 42.8l-2.1-5.1h-0.6l-2.1 5.1h1l0.5-1.2h1.9l0.5 1.2H72.9zM71.2 40.9h-1.3l0.4-1.1c0.1-0.3 0.2-0.6 0.3-0.8h0c0.1 0.2 0.1 0.5 0.3 0.8L71.2 40.9z"/><polygon fill="#FCB918" points="46.6 27 46.6 26.5 46.6 26.5 46.6 27 "/><polygon fill="#FCB918" points="46.6 9 46.6 7.8 46.6 7.7 46.6 8.9 "/><polygon fill="#FCB918" points="46.6 24 46.6 24.7 46.6 24.6 46.6 24 "/><polygon fill="#FBB317" points="47 9.7 47.1 9.7 47.1 8.8 46.6 7.8 46.6 9 "/><polygon fill="#FBB317" points="47.1 26.9 47.1 26.4 46.6 26.5 46.6 27 "/><polygon fill="#FBB317" points="46.6 24 46.6 24.6 47.1 24.3 47.1 23.7 "/><polygon fill="#FBB317" points="46.7 22.7 47.1 23 47.1 22.9 47.1 22 "/><polygon fill="#FAAE1B" points="47.7 26.8 47.7 26.3 47.1 26.4 47.1 26.9 "/><polygon fill="#FAAE1B" points="47.1 23.7 47.1 24.3 47.7 24 47.7 23.4 "/><polygon fill="#FAAE1B" points="47.1 22 47.1 22.9 47.7 22.2 47.7 21.4 "/><polygon fill="#FAAE1B" points="47.5 9.5 47.1 8.8 47.1 9.7 "/><polygon fill="#FBAA1B" points="47.8 5.7 48.2 10.3 48.2 5.6 "/><polygon fill="#FBAA1B" points="48.2 23 47.7 23.4 47.7 24 48.2 23.7 "/><polygon fill="#FBAA1B" points="47.7 21.4 47.7 22.2 48.2 21.5 48.2 20.7 "/><polygon fill="#FBAA1B" points="47.8 26.8 47.7 26.3 47.7 26.3 47.7 26.8 "/><polygon fill="#FAA51D" points="48.7 18.6 48.7 17.6 48.5 18.5 "/><polygon fill="#FAA51D" points="48.3 5.6 48.2 5.6 48.2 10.3 48.5 14 48.7 14 48.7 10.3 "/><polygon fill="#FAA51D" points="48.2 20.7 48.2 21.5 48.7 20.8 48.7 20 "/><polygon fill="#FAA51D" points="48.7 23.3 48.7 22.7 48.2 23 48.2 23.7 "/><polygon fill="#F9A01F" points="48.7 14 49.1 14 48.7 10.3 "/><polygon fill="#F9A01F" points="49.3 23 49.3 22.4 48.7 22.7 48.7 23.3 "/><polygon fill="#F9A01F" points="49 18.7 49.3 17.7 49.3 15.8 48.7 17.6 48.7 18.6 "/><polygon fill="#F9A01F" points="48.7 20 48.7 20.8 49.3 20.1 49.3 19.3 "/><polygon fill="#F99B1F" points="49.8 22.7 49.8 22.1 49.3 22.4 49.3 23 "/><polygon fill="#F99B1F" points="49.8 15.8 49.8 13.9 49.3 15.8 49.3 17.7 "/><polygon fill="#F99B1F" points="49.3 19.3 49.3 20.1 49.8 19.4 49.8 18.6 "/><polygon fill="#F89621" points="50.3 14 50.3 12.1 49.8 13.9 49.8 15.8 "/><polygon fill="#F89621" points="50.3 22.4 50.3 21.7 49.8 22.1 49.8 22.7 "/><polygon fill="#F89621" points="49.8 18.6 49.8 19.4 50.3 18.7 50.3 17.9 "/><polygon fill="#F79221" points="50.8 12.1 50.8 10.5 50.8 10.4 50.3 12.1 50.3 14 "/><polygon fill="#F79221" points="50.8 22 50.8 21.8 50.7 21.5 50.3 21.7 50.3 22.4 "/><polygon fill="#F79221" points="50.3 17.9 50.3 18.7 50.8 18 50.8 17.2 "/><polygon fill="#F78C21" points="51.3 10.6 50.8 10.5 50.8 12.1 "/><polygon fill="#F78C21" points="51.4 16.5 50.8 17.2 50.8 18 51.4 17.4 "/><polygon fill="#F78C21" points="50.9 22 50.8 21.8 50.8 22 "/><polygon fill="#F68720" points="51.9 16.7 51.9 16.1 51.7 16 51.4 16.5 51.4 17.4 "/><polygon fill="#F58220" points="52.2 16.3 51.9 16.1 51.9 16.7 "/><polygon fill="#FCB918" points="43.2 21.5 40.2 22.1 40.2 22.6 43.2 22.1 "/><polygon fill="#FCB918" points="41.4 20.8 41.7 21.3 43.2 20.3 43.2 19.7 "/><polygon fill="#FCB918" points="42.8 18.7 43.2 18.9 43.2 18.2 "/><polygon fill="#FCB918" points="43.1 8.8 42.5 8.8 43 13.6 43.2 13.6 43.2 9.8 "/><polygon fill="#FCB918" points="43.2 27.1 40.2 27.7 40.2 28.2 43.2 27.7 "/><polygon fill="#FCB918" points="41.4 24.3 41.5 23.8 40.2 23.5 40.2 24.1 "/><polygon fill="#FCB918" points="40.2 29.7 43.1 30.2 43.2 29.7 40.2 29.1 "/><polygon fill="#FCB918" points="40.2 2.1 40.2 2.8 43.2 5.5 43.2 4.7 "/><polygon fill="#FCB918" points="40.3 3.6 40.2 3.6 40.2 3.7 "/><polygon fill="#FCB918" points="41.7 11.4 42.2 11.2 40.2 7.3 40.2 8.5 "/><polygon fill="#FCB918" points="43.2 5.5 44.1 6.3 44.5 5.9 43.2 4.7 "/><polygon fill="#FCB918" points="46.6 27 46.6 26.5 43.2 27.1 43.2 27.7 "/><polygon fill="#FCB918" points="43.2 13.6 43.5 13.6 43.2 9.8 "/><polygon fill="#FCB918" points="45.5 18.3 43.2 19.7 43.2 20.3 45.8 18.7 "/><polygon fill="#FCB918" points="44.1 21.9 44.1 21.4 43.2 21.5 43.2 22.1 "/><rect x="44.1" y="11.5" transform="matrix(0.9618 0.2736 -0.2736 0.9618 5.4963 -11.6038)" fill="#FCB918" width="0.5" height="4.8"/><polygon fill="#FCB918" points="43.5 25.9 43.8 26.4 46.6 24.7 46.6 24 "/><polygon fill="#FCB918" points="46.6 8.9 46.6 7.7 43.7 2 43.3 2.2 "/><polygon fill="#FCB918" points="46.2 15.1 45.7 14.8 43.2 18.2 43.2 18.9 43.3 19 "/><polygon fill="#FFD586" points="36.7 28.5 36.7 29 36.9 29 36.9 28.5 "/><polygon fill="#FFD586" points="36.9 31.3 36.9 30.7 36.7 30.6 36.7 31.2 "/><polygon fill="#FFD586" points="36.9 24.8 36.9 24.2 36.7 24.1 36.7 24.7 "/><polygon fill="#FFD586" points="36.8 22.9 36.7 23.2 36.7 23.4 36.9 23.4 36.9 22.9 "/><polygon fill="#FFD586" points="36.9 8.7 36.9 8.2 36.7 8.1 36.7 8.7 "/><polygon fill="#FFD586" points="36.9 2.8 36.9 2.3 36.7 2.2 36.7 2.8 "/><polygon fill="#FFD586" points="36.7 6.3 36.7 7 36.9 7.1 36.9 6.4 "/><polygon fill="#FFD380" points="36.9 22.9 36.9 23.4 37.1 23.5 37.1 22.9 "/><polygon fill="#FFD380" points="36.9 28.5 36.9 29 37.1 29.1 37.1 28.5 "/><polygon fill="#FFD380" points="37.1 2.9 37.1 2.4 36.9 2.3 36.9 2.8 "/><polygon fill="#FFD380" points="37.1 8.8 37.1 8.2 36.9 8.2 36.9 8.7 "/><polygon fill="#FFD380" points="36.9 6.4 36.9 7.1 37.1 7.3 37.1 6.6 "/><polygon fill="#FFD380" points="37.1 31.4 37.1 30.8 36.9 30.7 36.9 31.3 "/><polygon fill="#FFD380" points="37.1 25 37.1 24.3 36.9 24.2 36.9 24.8 "/><polygon fill="#FFD17A" points="37.3 3 37.3 2.4 37.1 2.4 37.1 2.9 "/><polygon fill="#FFD17A" points="37.3 31.5 37.3 30.9 37.1 30.8 37.1 31.4 "/><polygon fill="#FFD17A" points="37.1 6.6 37.1 7.3 37.3 7.5 37.3 6.8 "/><polygon fill="#FFD17A" points="37.3 8.9 37.3 8.3 37.1 8.2 37.1 8.8 "/><polygon fill="#FFD17A" points="37.3 25.1 37.3 24.5 37.1 24.3 37.1 25 "/><polygon fill="#FFD17A" points="37.1 22.9 37.1 23.5 37.3 23.5 37.3 23 "/><polygon fill="#FFD17A" points="37.1 28.5 37.1 29.1 37.3 29.1 37.3 28.6 "/><polygon fill="#FFD076" points="37.4 31.6 37.5 31.5 37.5 31.1 37.3 30.9 37.3 31.5 "/><polygon fill="#FFD076" points="37.3 28.6 37.3 29.1 37.5 29.2 37.5 28.6 "/><polygon fill="#FFD076" points="37.3 6.8 37.3 7.5 37.5 7.7 37.5 7 "/><polygon fill="#FFD076" points="37.3 23 37.3 23.5 37.5 23.6 37.5 23 "/><polygon fill="#FFD076" points="37.5 3.1 37.5 2.5 37.3 2.4 37.3 3 "/><polygon fill="#FFD076" points="37.5 25.2 37.5 24.6 37.3 24.5 37.3 25.1 "/><polygon fill="#FFD076" points="37.3 8.9 37.5 8.4 37.3 8.3 37.3 8.9 "/><polygon fill="#FFCF70" points="37.5 23 37.5 23.6 37.7 23.6 37.7 23.1 "/><polygon fill="#FFCF70" points="37.5 7 37.5 7.7 37.7 7.9 37.7 7.2 "/><polygon fill="#FFCF70" points="37.7 3.2 37.7 2.6 37.5 2.5 37.5 3.1 "/><polygon fill="#FFCF70" points="37.7 31.2 37.7 31.2 37.5 31.1 37.5 31.5 "/><polygon fill="#FFCF70" points="37.5 28.6 37.5 29.2 37.7 29.2 37.7 28.7 "/><polygon fill="#FFCF70" points="37.7 25.3 37.7 24.7 37.5 24.6 37.5 25.2 "/><polygon fill="#FFCC69" points="37.7 23.1 37.7 23.6 37.9 23.6 37.9 23.1 "/><polygon fill="#FFCC69" points="37.9 0.6 37.9 0.7 37.9 0.6 "/><polygon fill="#FFCC69" points="37.9 25.5 37.9 24.9 37.7 24.7 37.7 25.3 "/><polygon fill="#FFCC69" points="37.7 28.7 37.7 29.2 37.9 29.2 37.9 28.7 "/><polygon fill="#FFCC69" points="37.7 7.2 37.7 7.9 37.9 8.1 37.9 7.4 "/><polygon fill="#FFCC69" points="37.9 3.3 37.9 2.7 37.7 2.6 37.7 3.2 "/><polygon fill="#FFCC69" points="37.7 31.2 37.7 31.2 37.7 31.2 "/><polygon fill="#FFCA63" points="38.1 25.6 38.1 25.4 38.1 25 37.9 24.9 37.9 25.5 "/><polygon fill="#FFCA63" points="37.9 23.1 37.9 23.6 38.1 23.7 38.1 23.1 "/><polygon fill="#FFCA63" points="37.9 28.7 37.9 29.2 38.1 29.3 38.1 28.7 "/><polygon fill="#FFCA63" points="37.9 7.4 37.9 8.1 38.1 8.3 38.1 7.6 "/><polygon fill="#FFCA63" points="37.9 0.6 37.9 0.7 38.1 0.9 38.1 0.4 "/><polygon fill="#FFCA63" points="38.1 3.3 38.1 2.8 37.9 2.7 37.9 3.3 "/><polygon fill="#FFC95B" points="38.3 25.1 38.1 25 38.1 25.4 "/><polygon fill="#FFC95B" points="38.1 7.6 38.1 8.3 38.3 8.5 38.3 7.8 "/><polygon fill="#FFC95B" points="38.3 3.4 38.3 2.8 38.1 2.8 38.1 3.3 "/><polygon fill="#FFC95B" points="38.1 28.7 38.1 29.3 38.3 29.3 38.3 28.8 "/><polygon fill="#FFC95B" points="38.3 23.2 38.1 23.1 38.1 23.7 38.3 23.7 "/><polygon fill="#FFC95B" points="38.3 0.2 38.1 0.4 38.1 0.9 38.3 1 38.3 0.3 "/><polygon fill="#FFC655" points="38.6 3.5 38.6 2.9 38.3 2.8 38.3 3.4 "/><polygon fill="#FFC655" points="38.6 23.8 38.6 23.2 38.3 23.2 38.3 23.7 "/><polygon fill="#FFC655" points="38.3 0.3 38.3 1 38.6 1.2 38.6 0.5 "/><polygon fill="#FFC655" points="38.3 7.8 38.3 8.5 38.6 8.7 38.6 8 "/><polygon fill="#FFC655" points="38.3 28.8 38.3 29.3 38.6 29.3 38.6 28.8 "/><polygon fill="#FFC54F" points="38.6 0.5 38.6 1.2 38.8 1.4 38.8 0.7 "/><polygon fill="#FFC54F" points="38.8 3.6 38.8 3 38.6 2.9 38.6 3.5 "/><polygon fill="#FFC54F" points="38.6 28.8 38.6 29.3 38.8 29.4 38.8 28.8 "/><polygon fill="#FFC54F" points="38.6 8 38.6 8.7 38.8 8.9 38.8 8.2 "/><polygon fill="#FFC54F" points="38.8 23.8 38.8 23.3 38.6 23.2 38.6 23.8 "/><polygon fill="#FEC445" points="38.8 8.2 38.8 8.9 39 9.1 39 8.3 "/><polygon fill="#FEC445" points="38.8 28.8 38.8 29.4 39 29.4 39 28.9 "/><polygon fill="#FEC445" points="39 3.7 39 3.1 38.8 3 38.8 3.6 "/><polygon fill="#FEC445" points="39 23.8 39 23.3 38.8 23.3 38.8 23.8 "/><polygon fill="#FEC445" points="38.8 0.7 38.8 1.4 39 1.6 39 0.9 "/><polygon fill="#FDC13D" points="39 8.3 39 9.1 39.2 9.3 39.2 8.5 "/><polygon fill="#FDC13D" points="39.2 3.7 39.2 3.2 39 3.1 39 3.7 "/><polygon fill="#FDC13D" points="39 0.9 39 1.6 39.2 1.8 39.2 1.1 "/><polygon fill="#FDC13D" points="39.2 23.9 39.2 23.3 39 23.3 39 23.8 "/><polygon fill="#FDC13D" points="39 28.9 39 29.4 39.2 29.5 39.2 28.9 "/><polygon fill="#FEBF35" points="39.4 23.9 39.4 23.4 39.2 23.3 39.2 23.9 "/><polygon fill="#FEBF35" points="39.2 28.9 39.2 29.5 39.4 29.5 39.4 29 "/><polygon fill="#FEBF35" points="39.4 3.8 39.4 3.3 39.2 3.2 39.2 3.7 "/><polygon fill="#FEBF35" points="39.3 22.3 39.4 22.8 39.4 22.8 39.4 22.2 "/><polygon fill="#FEBF35" points="39.2 8.5 39.2 9.3 39.4 9.4 39.4 8.7 "/><polygon fill="#FEBF35" points="39.2 1.1 39.2 1.8 39.4 2 39.4 1.3 "/><polygon fill="#FEBE2E" points="39.4 27.8 39.5 28.4 39.6 28.3 39.6 27.8 "/><polygon fill="#FEBE2E" points="39.4 22.2 39.4 22.8 39.6 22.7 39.6 22.2 "/><polygon fill="#FEBE2E" points="39.6 24 39.6 23.4 39.4 23.4 39.4 23.9 "/><polygon fill="#FEBE2E" points="39.4 1.3 39.4 2 39.6 2.2 39.6 1.5 "/><polygon fill="#FEBE2E" points="39.4 29 39.4 29.5 39.6 29.5 39.6 29 "/><polygon fill="#FEBE2E" points="39.6 3.9 39.6 3.3 39.4 3.3 39.4 3.8 "/><polygon fill="#FEBE2E" points="39.4 9.4 39.6 9.6 39.6 8.9 39.4 8.7 "/><polygon fill="#FEBE2E" points="39.5 7.1 39.6 7.2 39.6 7 "/><polygon fill="#FEBC25" points="39.8 24 39.8 23.5 39.6 23.4 39.6 24 "/><polygon fill="#FEBC25" points="39.7 9.8 39.8 9.7 39.8 9.1 39.6 8.9 39.6 9.6 "/><polygon fill="#FEBC25" points="39.8 4 39.8 3.4 39.6 3.3 39.6 3.9 "/><polygon fill="#FEBC25" points="39.6 22.2 39.6 22.7 39.8 22.7 39.8 22.2 "/><polygon fill="#FEBC25" points="39.8 7.6 39.8 6.9 39.6 7 39.6 7.2 "/><polygon fill="#FEBC25" points="39.6 29 39.6 29.5 39.8 29.6 39.8 29 "/><polygon fill="#FEBC25" points="39.6 27.8 39.6 28.3 39.8 28.3 39.8 27.8 "/><polygon fill="#FEBC25" points="39.6 1.5 39.6 2.2 39.8 2.4 39.8 1.7 "/><polygon fill="#FCBA1D" points="40 24 40 23.5 39.8 23.5 39.8 24 "/><polygon fill="#FCBA1D" points="39.8 22.2 39.8 22.7 40 22.7 40 22.1 "/><polygon fill="#FCBA1D" points="39.8 1.7 39.8 2.4 40 2.6 40 1.9 "/><polygon fill="#FCBA1D" points="40 9.4 40 9.3 39.8 9.1 39.8 9.7 "/><polygon fill="#FCBA1D" points="40 4.1 40 3.5 39.8 3.4 39.8 4 "/><polygon fill="#FCBA1D" points="39.8 27.8 39.8 28.3 40 28.3 40 27.7 "/><polygon fill="#FCBA1D" points="39.8 29 39.8 29.6 40 29.6 40 29.1 "/><polygon fill="#FCBA1D" points="40 8.1 40 6.9 40 6.8 39.8 6.9 39.8 7.6 "/><polygon fill="#FCB918" points="40 29.1 40 29.6 40.2 29.7 40.2 29.1 "/><polygon fill="#FCB918" points="40 27.7 40 28.3 40.2 28.2 40.2 27.7 "/><polygon fill="#FCB918" points="40 1.9 40 2.6 40.2 2.8 40.2 2.1 "/><polygon fill="#FCB918" points="40.2 24.1 40.2 23.5 40 23.5 40 24 "/><polygon fill="#FCB918" points="40.2 8.5 40.2 7.3 40 6.9 40 8.1 "/><polygon fill="#FCB918" points="40.1 4.1 40.2 3.7 40.2 3.6 40 3.5 40 4.1 "/><polygon fill="#FCB918" points="40 22.1 40 22.7 40.2 22.6 40.2 22.1 "/><polygon fill="#FCB918" points="40.1 9.4 40 9.3 40 9.4 "/><polygon fill="#FEBC25" points="33.3 24 33.3 23.1 33.2 23 33.2 23.8 "/><rect x="33.2" y="8.4" fill="#FEBC25" width="0.1" height="0.5"/><polygon fill="#FEBC25" points="33.2 6.7 33.2 7.3 33.3 7.4 33.3 6.8 "/><polygon fill="#FEBC25" points="33.3 1.5 33.3 0.9 33.2 0.9 33.2 1.4 "/><rect x="33.2" y="2.9" fill="#FEBC25" width="0.1" height="0.5"/><polygon fill="#FEBC25" points="33.3 29.1 33.3 28.5 33.2 28.4 33.2 29 "/><polygon fill="#FEBE2E" points="33.5 29.2 33.5 28.6 33.3 28.5 33.3 29.1 "/><polygon fill="#FEBE2E" points="33.5 1.6 33.5 1 33.3 0.9 33.3 1.5 "/><rect x="33.3" y="8.4" fill="#FEBE2E" width="0.2" height="0.5"/><polygon fill="#FEBE2E" points="33.3 6.8 33.3 7.4 33.5 7.5 33.5 6.9 "/><rect x="33.3" y="2.9" fill="#FEBE2E" width="0.2" height="0.5"/><polygon fill="#FEBE2E" points="33.5 24.3 33.5 23.4 33.3 23.1 33.3 24 "/><polygon fill="#FEBF35" points="33.8 24.6 33.8 23.7 33.5 23.4 33.5 24.3 "/><polygon fill="#FEBF35" points="33.8 1.6 33.8 1.1 33.5 1 33.5 1.6 "/><polygon fill="#FEBF35" points="33.8 29.4 33.8 28.7 33.5 28.6 33.5 29.2 "/><rect x="33.5" y="8.4" fill="#FEBF35" width="0.2" height="0.5"/><polygon fill="#FEBF35" points="33.5 6.9 33.5 7.5 33.8 7.5 33.8 7 "/><rect x="33.5" y="2.9" fill="#FEBF35" width="0.2" height="0.5"/><polygon fill="#FDC13D" points="33.8 7 33.8 7.5 34 7.6 34 7 "/><rect x="33.8" y="8.4" fill="#FDC13D" width="0.2" height="0.5"/><polygon fill="#FDC13D" points="33.9 23 34 23 34 23 "/><polygon fill="#FDC13D" points="34 24.9 34 24 33.8 23.7 33.8 24.6 "/><rect x="33.8" y="2.9" fill="#FDC13D" width="0.2" height="0.5"/><polygon fill="#FDC13D" points="34 29.5 34 28.9 33.8 28.7 33.8 29.4 "/><polygon fill="#FDC13D" points="34 1.7 34 1.2 33.8 1.1 33.8 1.6 "/><polygon fill="#FEC445" points="34.2 29.6 34.2 29 34 28.9 34 29.5 "/><rect x="34" y="2.9" fill="#FEC445" width="0.2" height="0.5"/><polygon fill="#FEC445" points="34 23 34 23 34.2 23.2 34.2 22.6 "/><polygon fill="#FEC445" points="34 7 34 7.6 34.2 7.7 34.2 7.1 "/><polygon fill="#FEC445" points="34.2 1.8 34.2 1.2 34 1.2 34 1.7 "/><rect x="34" y="8.4" fill="#FEC445" width="0.2" height="0.5"/><polygon fill="#FEC445" points="34.2 25.2 34.2 24.3 34 24 34 24.9 "/><rect x="34.2" y="2.9" fill="#FFC54F" width="0.2" height="0.5"/><polygon fill="#FFC54F" points="34.4 1.9 34.4 1.3 34.2 1.2 34.2 1.8 "/><polygon fill="#FFC54F" points="34.4 25.4 34.4 24.6 34.2 24.3 34.2 25.2 "/><polygon fill="#FFC54F" points="34.4 29.8 34.4 29.1 34.2 29 34.2 29.6 "/><polygon fill="#FFC54F" points="34.2 22.6 34.2 22.6 34.2 23.2 34.4 23.3 34.4 22.7 "/><rect x="34.2" y="8.4" fill="#FFC54F" width="0.2" height="0.5"/><polygon fill="#FFC54F" points="34.2 7.1 34.2 7.7 34.4 7.8 34.4 7.2 "/><rect x="34.4" y="2.9" fill="#FFC655" width="0.2" height="0.5"/><polygon fill="#FFC655" points="34.4 22.7 34.4 23.3 34.6 23.4 34.6 22.8 "/><polygon fill="#FFC655" points="34.6 2 34.6 1.4 34.4 1.3 34.4 1.9 "/><rect x="34.4" y="8.4" fill="#FFC655" width="0.2" height="0.5"/><polygon fill="#FFC655" points="34.6 29.9 34.6 29.3 34.4 29.1 34.4 29.8 "/><polygon fill="#FFC655" points="34.4 7.2 34.4 7.8 34.6 7.9 34.6 7.3 "/><polygon fill="#FFC655" points="34.4 25.5 34.6 25.4 34.6 24.8 34.4 24.6 34.4 25.4 "/><polygon fill="#FFC95B" points="34.6 7.3 34.6 7.9 34.8 7.9 34.8 7.4 "/><polygon fill="#FFC95B" points="34.8 30 34.8 29.4 34.6 29.3 34.6 29.9 "/><rect x="34.6" y="2.9" fill="#FFC95B" width="0.2" height="0.5"/><polygon fill="#FFC95B" points="34.8 28.6 34.8 28.7 34.8 28.6 "/><polygon fill="#FFC95B" points="34.8 2.1 34.8 1.5 34.6 1.4 34.6 2 "/><rect x="34.6" y="8.4" fill="#FFC95B" width="0.2" height="0.5"/><polygon fill="#FFC95B" points="34.6 22.8 34.6 23.4 34.8 23.6 34.8 22.9 "/><polygon fill="#FFC95B" points="34.8 25.2 34.8 25.1 34.6 24.8 34.6 25.4 "/><polygon fill="#FFCA63" points="34.9 25.2 34.8 25.1 34.8 25.2 "/><polygon fill="#FFCA63" points="35 2.1 35 1.6 34.8 1.5 34.8 2.1 "/><polygon fill="#FFCA63" points="34.9 28.1 34.8 28.6 34.8 28.7 35 28.7 35 28.2 "/><rect x="34.8" y="8.4" fill="#FFCA63" width="0" height="0.5"/><polygon fill="#FFCA63" points="35 23.1 34.8 22.9 34.8 23.6 35 23.7 "/><polygon fill="#FFCA63" points="35 30.2 35 29.5 34.8 29.4 34.8 30 "/><rect x="34.8" y="2.9" fill="#FFCA63" width="0.2" height="0.5"/><polygon fill="#FFCA63" points="34.8 7.4 34.8 7.9 35 8 35 7.5 "/><polygon fill="#FFCC69" points="35 7.5 35 8 35.2 8.1 35.2 7.5 "/><polygon fill="#FFCC69" points="35.2 23.8 35.2 23.2 35 23.1 35 23.7 "/><polygon fill="#FFCC69" points="35 28.2 35 28.7 35.2 28.7 35.2 28.2 "/><polygon fill="#FFCC69" points="35.2 30.3 35.2 29.7 35 29.5 35 30.2 "/><polygon fill="#FFCC69" points="35.2 2.2 35.2 1.6 35 1.6 35 2.1 "/><rect x="35" y="2.9" fill="#FFCC69" width="0.2" height="0.5"/><polygon fill="#FFCF70" points="35.5 2.3 35.5 1.7 35.2 1.6 35.2 2.2 "/><polygon fill="#FFCF70" points="35.5 24 35.5 23.3 35.2 23.2 35.2 23.8 "/><polygon fill="#FFCF70" points="35.2 7.5 35.2 8.1 35.5 8.2 35.5 7.6 "/><polygon fill="#FFCF70" points="35.5 30.4 35.5 29.8 35.2 29.7 35.2 30.3 "/><polygon fill="#FFCF70" points="35.2 28.2 35.2 28.7 35.5 28.8 35.5 28.2 "/><rect x="35.2" y="2.9" fill="#FFCF70" width="0.2" height="0.5"/><polygon fill="#FFD076" points="35.5 7.6 35.5 8.2 35.7 8.3 35.7 7.7 "/><polygon fill="#FFD076" points="35.5 28.2 35.5 28.8 35.7 28.8 35.7 28.3 "/><polygon fill="#FFD076" points="35.7 24.1 35.7 23.5 35.5 23.3 35.5 24 "/><polygon fill="#FFD076" points="35.7 30.5 35.7 29.9 35.5 29.8 35.5 30.4 "/><polygon fill="#FFD076" points="35.7 2.4 35.7 1.8 35.5 1.7 35.5 2.3 "/><rect x="35.5" y="2.9" fill="#FFD076" width="0.2" height="0.5"/><polygon fill="#FFD17A" points="35.7 28.3 35.7 28.8 35.9 28.8 35.9 28.3 "/><polygon fill="#FFD17A" points="35.9 2.5 35.9 1.9 35.7 1.8 35.7 2.4 "/><rect x="35.7" y="2.9" fill="#FFD17A" width="0.1" height="0.5"/><polygon fill="#FFD17A" points="35.9 24.2 35.9 23.6 35.7 23.5 35.7 24.1 "/><polygon fill="#FFD17A" points="35.7 7.7 35.7 8.3 35.9 8.4 35.9 7.8 "/><polygon fill="#FFD17A" points="35.9 30.7 35.9 30.1 35.7 29.9 35.7 30.5 "/><polygon fill="#FFD380" points="35.9 7.8 35.9 8.4 36.1 8.4 36.1 7.9 "/><polygon fill="#FFD380" points="35.9 28.3 35.9 28.8 36.1 28.9 36.1 28.3 "/><polygon fill="#FFD380" points="36.1 2.5 36.1 2 35.9 1.9 35.9 2.5 "/><polygon fill="#FFD380" points="36.1 24.3 36.1 23.7 35.9 23.6 35.9 24.2 "/><polygon fill="#FFD380" points="36.1 30.8 36.1 30.2 35.9 30.1 35.9 30.7 "/><polygon fill="#FFD586" points="36.3 2.6 36.3 2.1 36.1 2 36.1 2.5 "/><polygon fill="#FFD586" points="36.3 24.5 36.3 23.9 36.1 23.7 36.1 24.3 "/><polygon fill="#FFD586" points="36.1 8.4 36.3 8.5 36.3 7.9 36.1 7.9 "/><polygon fill="#FFD586" points="36.3 30.9 36.3 30.3 36.1 30.2 36.1 30.8 "/><polygon fill="#FFD586" points="36.1 28.3 36.1 28.9 36.3 28.9 36.3 28.4 "/><polygon fill="#FFD586" points="36.2 6.5 36.3 6.6 36.3 6.4 "/><polygon fill="#FFD78B" points="36.5 2.7 36.5 2.1 36.3 2.1 36.3 2.6 "/><polygon fill="#FFD78B" points="36.5 31.1 36.5 30.4 36.3 30.3 36.3 30.9 "/><polygon fill="#FFD78B" points="36.5 24.6 36.5 24 36.3 23.9 36.3 24.5 "/><polygon fill="#FFD78B" points="36.5 8.6 36.5 8 36.3 7.9 36.3 8.5 "/><polygon fill="#FFD78B" points="36.3 28.4 36.3 28.9 36.5 29 36.5 28.4 "/><polygon fill="#FFD78B" points="36.3 6.4 36.3 6.6 36.5 6.8 36.5 6.1 "/><polygon fill="#FFDA91" points="36.7 24.7 36.7 24.1 36.5 24 36.5 24.6 "/><polygon fill="#FFDA91" points="36.7 2.8 36.7 2.2 36.5 2.1 36.5 2.7 "/><polygon fill="#FFDA91" points="36.7 8.7 36.7 8.1 36.5 8 36.5 8.6 "/><polygon fill="#FFDA91" points="36.7 31.2 36.7 30.6 36.5 30.4 36.5 31.1 "/><polygon fill="#FFDA91" points="36.7 23.4 36.7 23.4 36.7 23.2 "/><polygon fill="#FFDA91" points="36.5 6.1 36.5 6.1 36.5 6.8 36.7 7 36.7 6.3 "/><polygon fill="#FFDA91" points="36.5 28.4 36.5 29 36.7 29 36.7 28.5 "/><polygon fill="#FCB918" points="27.7 11.4 27.9 11.9 29.9 11.1 29.9 10.5 "/><polygon fill="#FCB918" points="27.4 7.3 27.2 7.1 27.2 7.5 "/><polygon fill="#FCB918" points="29.9 19.4 29.7 19.5 29.9 20.3 "/><polygon fill="#FCB918" points="27.2 6.2 29.9 5.2 29.9 4.6 27.2 5.7 "/><polygon fill="#FCB918" points="29 14.1 27.2 17.8 27.2 18.6 27.4 18.7 29.5 14.4 "/><rect x="27.3" y="2.9" fill="#FCB918" width="2.6" height="0.5"/><rect x="26.5" y="19.1" transform="matrix(-9.218334e-02 0.9957 -0.9957 -9.218334e-02 50.8146 -7.6714)" fill="#FCB918" width="4.8" height="0.5"/><polygon fill="#FCB918" points="27.2 24.2 27.2 25 29.9 28.7 29.9 27.8 "/><polygon fill="#FCB918" points="29.9 11.8 27.2 14.3 27.2 15 29.9 12.5 "/><polygon fill="#FCB918" points="30.5 12 30.1 11.6 29.9 11.8 29.9 12.5 "/><polygon fill="#FCB918" points="31.2 4.7 31 4.2 29.9 4.6 29.9 5.2 "/><polygon fill="#FCB918" points="29.9 28.7 31.7 30.9 32.1 30.6 29.9 27.8 "/><rect x="29.9" y="2.9" fill="#FCB918" width="3.2" height="0.5"/><polygon fill="#FCB918" points="29.9 11.1 32.4 10.1 32.2 9.6 29.9 10.5 "/><rect x="30" y="8.4" fill="#FCB918" width="3.2" height="0.5"/><polygon fill="#FCB918" points="31 24.2 31.6 24 30.2 19.4 29.9 19.4 29.9 20.3 "/><polygon fill="#FCB918" points="33.2 1.4 33.2 0.9 32.5 0.6 32.3 1.1 "/><polygon fill="#FCB918" points="33.2 29 33.2 28.4 30.6 26.8 30.3 27.2 "/><polygon fill="#FCB918" points="33.2 23.8 33.2 23 31.9 21.3 31.5 21.6 "/><polygon fill="#FCB918" points="33 6.7 32.8 7.2 33.2 7.3 33.2 6.7 "/><polygon fill="#F58220" points="20.9 12.6 21.1 12.8 21.1 12.4 "/><polygon fill="#F58220" points="21.1 17.8 20.8 18.4 21.1 18.6 "/><polygon fill="#F68720" points="21.3 18.7 21.6 17.9 21.6 16.7 21.1 17.8 21.1 18.6 "/><polygon fill="#F68720" points="21.1 12.4 21.1 12.8 21.2 13 21.6 12.6 21.6 11.9 "/><polygon fill="#F78C21" points="21.6 11.9 21.6 12.6 22.2 12.1 22.2 11.4 "/><polygon fill="#F78C21" points="22.2 16.8 22.2 15.6 21.6 16.7 21.6 17.9 "/><polygon fill="#F79221" points="22.8 23.3 22.7 23.9 22.8 23.9 "/><polygon fill="#F79221" points="22.2 11.4 22.2 12.1 22.8 11.6 22.8 10.9 "/><polygon fill="#F79221" points="22.8 15.6 22.8 14.5 22.2 15.6 22.2 16.8 "/><polygon fill="#F89621" points="22.8 11.6 23.3 11.1 23.3 10.4 22.8 10.9 "/><polygon fill="#F89621" points="23.2 23.9 23.3 23 23.3 17.3 22.8 23.3 22.8 23.9 "/><polygon fill="#F89621" points="23.2 7.2 23.3 7.5 23.3 7.2 "/><polygon fill="#F89621" points="23.3 14.5 23.3 13.3 22.8 14.5 22.8 15.6 "/><polygon fill="#F99B1F" points="23.9 13.4 23.9 12.2 23.3 13.3 23.3 14.5 "/><polygon fill="#F99B1F" points="23.9 10.6 23.9 9.9 23.3 10.4 23.3 11.1 "/><polygon fill="#F99B1F" points="23.9 17 23.9 15.5 23.5 15.5 23.3 17.3 23.3 23 "/><polygon fill="#F99B1F" points="23.3 7.2 23.3 7.5 23.4 7.7 23.9 7.5 23.9 6.9 "/><polygon fill="#F9A01F" points="23.9 6.9 23.9 7.5 24.4 7.3 24.4 6.7 "/><polygon fill="#F9A01F" points="24.4 12.3 24.4 11.1 23.9 12.2 23.9 13.4 "/><polygon fill="#F9A01F" points="24.4 20.1 24.2 20.1 24.4 21 "/><polygon fill="#F9A01F" points="24.4 10.1 24.4 9.4 23.9 9.9 23.9 10.6 "/><polygon fill="#F9A01F" points="24 15.6 23.9 15.5 23.9 17 "/><polygon fill="#FAA51D" points="25 9.6 25 8.9 24.4 9.4 24.4 10.1 "/><polygon fill="#FAA51D" points="24.4 6.7 24.4 7.3 25 7.1 25 6.5 "/><polygon fill="#FAA51D" points="25 22.9 25 21 24.7 20 24.4 20.1 24.4 21 "/><polygon fill="#FAA51D" points="25 11.2 25 11.1 24.5 10.9 24.4 11.1 24.4 12.3 "/><polygon fill="#FBAA1B" points="25 11.1 25 11.1 25 11.2 "/><polygon fill="#FBAA1B" points="25.5 24.9 25.5 22.9 25 21 25 22.9 "/><polygon fill="#FBAA1B" points="25.5 9.1 25.5 8.4 25 8.9 25 9.6 "/><polygon fill="#FBAA1B" points="25 6.5 25 7.1 25.5 6.9 25.5 6.3 "/><polygon fill="#FAAE1B" points="26.1 8.6 26.1 7.8 25.5 8.4 25.5 9.1 "/><polygon fill="#FAAE1B" points="25.5 6.3 25.5 6.9 26.1 6.7 26.1 6.1 "/><polygon fill="#FAAE1B" points="26.1 26.8 26.1 24.9 25.5 22.9 25.5 24.9 "/><polygon fill="#FBB317" points="26.6 24.2 26.6 24.3 26.6 24.2 "/><polygon fill="#FBB317" points="26.1 6.1 26.1 6.7 26.6 6.4 26.6 5.9 "/><polygon fill="#FBB317" points="26.6 8.1 26.6 7.3 26.1 7.8 26.1 8.6 "/><polygon fill="#FBB317" points="26.6 14.9 26.6 15 26.6 14.8 "/><polygon fill="#FBB317" points="26.5 28.2 26.6 28.2 26.6 26.8 26.1 24.9 26.1 26.8 "/><polygon fill="#FCB918" points="27.2 7.5 27.2 7.1 27.1 6.9 26.6 7.3 26.6 8.1 "/><polygon fill="#FCB918" points="27 28.1 26.6 26.8 26.6 28.2 "/><polygon fill="#FCB918" points="26.6 5.9 26.6 6.4 27.2 6.2 27.2 5.7 "/><polygon fill="#FCB918" points="26.6 14.8 26.6 15 26.9 15.2 27.2 15 27.2 14.3 "/><polygon fill="#FCB918" points="26.9 18.5 27.2 18.6 27.2 17.8 "/><polygon fill="#FCB918" points="27 23.9 26.6 24.2 26.6 24.3 27.2 25 27.2 24.2 "/><rect x="32.1" y="2.1" transform="matrix(-0.9325 -0.3613 0.3613 -0.9325 69.2602 17.6138)" fill="none" width="8.4" height="0.5"/><rect x="30" y="8.4" fill="none" width="4.8" height="0.5"/><rect x="27.3" y="2.9" fill="none" width="8.4" height="0.5"/><rect x="27.6" y="10.5" transform="matrix(-0.9325 0.3611 -0.3611 -0.9325 61.9033 9.9075)" fill="none" width="4.8" height="0.5"/><rect x="23" y="5.7" transform="matrix(-0.9325 0.3612 -0.3612 -0.9325 54.7233 1.6465)" fill="none" width="8.4" height="0.5"/><rect x="26.1" y="13.2" transform="matrix(-0.739 0.6737 -0.6737 -0.739 58.6423 4.126)" fill="none" width="4.8" height="0.5"/><rect x="20" y="9.7" transform="matrix(-0.739 0.6737 -0.6737 -0.739 48.7269 1.0509)" fill="none" width="8.4" height="0.5"/><rect x="25.8" y="16.2" transform="matrix(-0.4457 0.8952 -0.8952 -0.4457 55.483 -1.5068)" fill="none" width="4.8" height="0.5"/><rect x="18.7" y="14.5" transform="matrix(-0.4457 0.8952 -0.8952 -0.4457 46.3205 0.8685)" fill="none" width="8.4" height="0.5"/><rect x="26.5" y="19.1" transform="matrix(-9.218334e-02 0.9957 -0.9957 -9.218334e-02 50.8146 -7.6714)" fill="none" width="4.8" height="0.5"/><rect x="19.2" y="19.4" transform="matrix(-9.224412e-02 0.9957 -0.9957 -9.224412e-02 45.1322 -1.7211)" fill="none" width="8.4" height="0.5"/><rect x="28.2" y="21.5" transform="matrix(0.2737 0.9618 -0.9618 0.2737 43.1751 -13.6701)" fill="none" width="4.8" height="0.5"/><rect x="21.4" y="23.9" transform="matrix(0.2737 0.9618 -0.9618 0.2737 41.7865 -7.1059)" fill="none" width="8.4" height="0.5"/><rect x="30.8" y="23.1" transform="matrix(0.6027 0.798 -0.798 0.6027 31.8669 -17.1884)" fill="none" width="4.8" height="0.5"/><rect x="25.1" y="27.2" transform="matrix(0.6027 0.798 -0.798 0.6027 33.5523 -12.5201)" fill="none" width="8.4" height="0.5"/><rect x="33.7" y="23.8" transform="matrix(0.8502 0.5264 -0.5264 0.8502 18.0779 -15.4173)" fill="none" width="4.8" height="0.5"/><rect x="29.8" y="28.9" transform="matrix(0.8503 0.5264 -0.5264 0.8503 20.4653 -13.5244)" fill="none" width="8.4" height="0.5"/><rect x="36.7" y="23.3" transform="matrix(0.983 0.1835 -0.1835 0.983 4.9944 -6.7776)" fill="none" width="4.8" height="0.5"/><rect x="34.8" y="28.9" transform="matrix(0.983 0.1837 -0.1837 0.983 6.019 -6.664)" fill="none" width="8.4" height="0.5"/><rect x="39.3" y="21.8" transform="matrix(0.983 -0.1837 0.1837 0.983 -3.3464 8.0409)" fill="none" width="4.8" height="0.5"/><rect x="39.4" y="27.1" transform="matrix(0.983 -0.1838 0.1838 0.983 -4.2777 8.4801)" fill="none" width="8.4" height="0.5"/><rect x="41.2" y="19.5" transform="matrix(0.8501 -0.5265 0.5265 0.8501 -3.8716 25.904)" fill="none" width="4.8" height="0.5"/><rect x="43" y="23.7" transform="matrix(0.8503 -0.5264 0.5264 0.8503 -5.5373 28.4463)" fill="none" width="8.4" height="0.5"/><rect x="42.1" y="16.6" transform="matrix(0.6025 -0.7981 0.7981 0.6025 4.2124 42.223)" fill="none" width="4.8" height="0.5"/><rect x="45.2" y="19.2" transform="matrix(0.6027 -0.798 0.798 0.6027 4.0915 47.1777)" fill="none" width="8.4" height="0.5"/><rect x="41.9" y="13.6" transform="matrix(0.2738 -0.9618 0.9618 0.2738 18.8344 52.7479)" fill="none" width="4.8" height="0.5"/><rect x="45.7" y="14.3" transform="matrix(0.2736 -0.9618 0.9618 0.2736 22.2367 58.5379)" fill="none" width="8.4" height="0.5"/><rect x="40.6" y="10.9" transform="matrix(-9.207402e-02 -0.9958 0.9958 -9.207402e-02 35.8333 55.0922)" fill="none" width="4.8" height="0.5"/><rect x="44.2" y="9.5" transform="matrix(-9.218109e-02 -0.9957 0.9957 -9.218109e-02 43.1132 58.9333)" fill="none" width="8.4" height="0.5"/><rect x="38.4" y="8.8" transform="matrix(-0.4458 -0.8951 0.8951 -0.4458 50.9116 49.737)" fill="none" width="4.8" height="0.5"/><rect x="41.2" y="5.6" transform="matrix(-0.4456 -0.8952 0.8952 -0.4456 60.346 49.0899)" fill="none" width="8.4" height="0.5"/><rect x="35.7" y="7.7" transform="matrix(-0.739 -0.6737 0.6737 -0.739 60.9718 39.499)" fill="none" width="4.8" height="0.5"/><rect x="37" y="3" transform="matrix(-0.7389 -0.6738 0.6738 -0.7389 69.3987 33.4429)" fill="none" width="8.4" height="0.5"/><rect x="32.7" y="7.5" transform="matrix(-0.9325 -0.3612 0.3612 -0.9325 65.0681 27.7208)" fill="none" width="4.8" height="0.5"/><polygon fill="#F58220" points="45.5 18.9 45.8 18.7 45.5 18.3 45.2 18.5 45 18.7 "/><polygon fill="#F58220" points="30 3.5 32.1 3.5 32.1 3.4 30.8 2.9 30.2 2.9 "/><polygon fill="#F58220" points="40.1 4.1 40.3 3.6 39.6 3.3 39.9 4 "/><polygon fill="#F58220" points="35.1 2.2 36.9 2.9 35.8 1.9 35.5 1.8 "/><polygon fill="#F58220" points="40.3 2.8 41.6 4.1 41 2.7 40.8 2.6 "/><polygon fill="#F58220" points="35.3 3.5 35.7 3.5 35.7 2.9 34.7 2.9 "/><polygon fill="#F58220" points="45.4 15.3 45.8 15.3 45.7 15.8 46.2 15.1 45.7 14.8 "/><polygon fill="#F58220" points="47.5 9.5 47.5 9.4 47.4 9.5 "/><polygon fill="#F58220" points="30.5 4.4 31.2 4.7 31.2 4.7 31 4.2 "/><polygon fill="#F58220" points="25.8 6.7 28.8 5.6 27.6 5.6 27.6 5.6 27.5 5.6 25.8 6.2 "/><polygon fill="#F58220" points="49 16.8 49.8 15.7 50.2 14.4 49.7 14.1 "/><polygon fill="#F58220" points="26.9 7.1 27.2 7.1 27.1 6.9 "/><polygon fill="#F58220" points="48.1 9.3 48.3 11.8 48.7 10.4 48.7 9.4 "/><polygon fill="#F58220" points="44.8 5.4 45.8 7.2 45.6 5.8 45.4 5.3 "/><polygon fill="#F58220" points="44.5 5.9 44.1 5.6 44.2 6.2 "/><polygon fill="#F58220" points="44.8 11.5 44.7 11.8 44.7 12.6 45 11.6 "/><polygon fill="#F58220" points="44.1 21.9 44.1 21.8 43.8 22 "/><polygon fill="#F58220" points="28 25.4 28.3 25.6 27 23.9 26.9 24 26.9 24.1 28 25.5 "/><polygon fill="#F58220" points="33.4 28.6 33.3 28.6 33.2 28.5 33 28.5 34 29.1 33.7 28.7 33.5 28.6 "/><polygon fill="#F58220" points="31.6 27.5 31.8 27.5 30.6 26.8 30.5 26.9 31.6 27.6 "/><polygon fill="#F58220" points="23.1 11.3 25.9 8.8 24.5 9.3 22.9 10.8 "/><polygon fill="#F58220" points="44.2 27.3 40.1 28.1 40.6 28.1 44.2 27.5 "/><polygon fill="#F58220" points="47.2 21.9 48.5 21.2 49.7 19.5 49.4 19 "/><polygon fill="#F58220" points="38.2 25.3 38.1 25.3 38.2 25.3 "/><polygon fill="#F58220" points="47.6 23.5 47.3 23.6 43.8 25.8 45.2 25.5 47.7 24 "/><polygon fill="#F58220" points="29 26.9 29.1 27.1 29.1 26.9 "/><polygon fill="#F58220" points="25.9 24.3 25.9 24.2 25.9 24.2 25.9 24.1 25.8 23.9 25.7 23.8 "/><polygon fill="#F58220" points="23.3 17.7 22.9 21.3 23 21.4 23.4 17.6 "/><polygon fill="#F58220" points="23.3 13.3 21.9 16.2 22.1 16.4 22.5 16.1 24.4 12.3 "/><polygon fill="#F58220" points="25.3 22.3 25.3 22.2 24.9 20.6 24.8 20.6 "/><polygon fill="#F58220" points="29.2 27.1 29.4 27.4 29.3 27.1 29.3 27 "/><polygon fill="#F58220" points="25.7 23.8 25.8 23.9 25.3 22.2 25.3 22.3 24.8 20.6 24.9 20.6 24.7 20.2 24.6 21.6 25.8 25.6 25.9 24.3 "/><path fill="#F58220" d="M29.2 27.1l0.1 0 0.1 0 -0.1-0.2 -1-1.3L28 25.4 28 25.5l-1-1.4 0.2 0.9 2.5 3.3 -0.2-0.9L29.2 27.1zM29 26.9L29 26.9l0.1 0.2L29 26.9z"/><polygon fill="#F58220" points="33.2 28.5 33.3 28.6 33.4 28.6 33.5 28.6 31.8 27.5 31.6 27.5 31.6 27.6 30.5 26.9 30.5 26.9 31 27.7 34.6 29.9 34 29.1 33 28.5 "/><polygon fill="#F58220" points="23.4 17.6 23 21.4 23.1 21.4 23.5 20.6 23.9 16.4 "/><polygon fill="#F58220" points="44.2 27.3 43.3 27.1 39.4 27.8 39.5 27.9 40.1 28.1 44.2 27.3 "/><polygon fill="#F58220" points="38.5 28.8 34.9 28.1 34.9 28.3 35.6 28.8 39.7 29.6 39.7 29.5 "/><polygon fill="#F58220" points="39.5 7.1 39.8 7.5 40.8 8.5 40 6.8 "/><polygon fill="#F58220" points="34.5 25.5 34.5 25.5 34.5 25.5 "/><polygon fill="#F58220" points="43.6 21.5 43.4 21.7 43.7 22 43.8 22 44.1 21.8 44.1 21.4 "/><polygon fill="#F58220" points="25.9 24.2 25.9 24.2 25.9 24.1 25.9 24.2 "/><polygon fill="#F58220" points="44.7 12.6 44.8 13.3 45.3 11.6 45 11.6 "/><polygon fill="#F58220" points="33 6.7 32.8 7.1 34 7.1 "/><polygon fill="#F58220" points="36.5 6.1 36.2 6.5 36.4 6.7 37.7 7.2 "/><polygon fill="#F58220" points="30 8.8 31 8.4 30 8.4 "/><polygon fill="#F58220" points="24.5 10.9 24.5 10.9 24.5 10.9 "/><polygon fill="#F58220" points="38.1 25.3 37.8 25.4 37.9 25.4 38.1 25.6 38.2 25.3 "/><polygon fill="#F58220" points="43.1 8.8 42.5 8.8 42.6 9.4 43.2 10.7 "/><polygon fill="#F58220" points="44.8 18.7 45 18.7 45.2 18.5 44.8 18.7 "/><polygon fill="#F58220" points="24.4 12.3 24.4 12.3 22.5 16.1 22.6 16.1 "/><polygon fill="#F58220" points="28.8 5.6 28.9 5.6 27.6 5.6 27.6 5.6 "/><polygon fill="#F58220" points="27.7 11.4 27.7 11.4 27.7 11.4 "/><polygon fill="#F58220" points="32.2 3.5 32.1 3.4 32.1 3.5 "/><polygon fill="#F58220" points="41 24.2 41.4 24.3 41.5 23.8 41.4 23.8 40.9 24.1 "/><rect x="32.1" y="2.1" transform="matrix(-0.9325 -0.3613 0.3613 -0.9325 69.2602 17.6138)" fill="none" width="8.4" height="0.5"/><rect x="30" y="8.4" fill="none" width="4.8" height="0.5"/><rect x="27.3" y="2.9" fill="none" width="8.4" height="0.5"/><rect x="27.6" y="10.5" transform="matrix(-0.9325 0.3611 -0.3611 -0.9325 61.9033 9.9075)" fill="none" width="4.8" height="0.5"/><rect x="23" y="5.7" transform="matrix(-0.9325 0.3612 -0.3612 -0.9325 54.7233 1.6465)" fill="none" width="8.4" height="0.5"/><rect x="26.1" y="13.2" transform="matrix(-0.739 0.6737 -0.6737 -0.739 58.6423 4.126)" fill="none" width="4.8" height="0.5"/><rect x="20" y="9.7" transform="matrix(-0.739 0.6737 -0.6737 -0.739 48.7269 1.0509)" fill="none" width="8.4" height="0.5"/><rect x="25.8" y="16.2" transform="matrix(-0.4457 0.8952 -0.8952 -0.4457 55.483 -1.5068)" fill="none" width="4.8" height="0.5"/><rect x="18.7" y="14.5" transform="matrix(-0.4457 0.8952 -0.8952 -0.4457 46.3205 0.8685)" fill="none" width="8.4" height="0.5"/><rect x="26.5" y="19.1" transform="matrix(-9.218334e-02 0.9957 -0.9957 -9.218334e-02 50.8146 -7.6714)" fill="none" width="4.8" height="0.5"/><rect x="19.2" y="19.4" transform="matrix(-9.224412e-02 0.9957 -0.9957 -9.224412e-02 45.1322 -1.7211)" fill="none" width="8.4" height="0.5"/><rect x="28.2" y="21.5" transform="matrix(0.2737 0.9618 -0.9618 0.2737 43.1751 -13.6701)" fill="none" width="4.8" height="0.5"/><rect x="21.4" y="23.9" transform="matrix(0.2737 0.9618 -0.9618 0.2737 41.7865 -7.1059)" fill="none" width="8.4" height="0.5"/><rect x="30.8" y="23.1" transform="matrix(0.6027 0.798 -0.798 0.6027 31.8669 -17.1884)" fill="none" width="4.8" height="0.5"/><rect x="25.1" y="27.2" transform="matrix(0.6027 0.798 -0.798 0.6027 33.5523 -12.5201)" fill="none" width="8.4" height="0.5"/><rect x="33.7" y="23.8" transform="matrix(0.8502 0.5264 -0.5264 0.8502 18.0779 -15.4173)" fill="none" width="4.8" height="0.5"/><rect x="29.8" y="28.9" transform="matrix(0.8503 0.5264 -0.5264 0.8503 20.4653 -13.5244)" fill="none" width="8.4" height="0.5"/><rect x="36.7" y="23.3" transform="matrix(0.983 0.1835 -0.1835 0.983 4.9944 -6.7776)" fill="none" width="4.8" height="0.5"/><rect x="34.8" y="28.9" transform="matrix(0.983 0.1837 -0.1837 0.983 6.019 -6.664)" fill="none" width="8.4" height="0.5"/><rect x="39.3" y="21.8" transform="matrix(0.983 -0.1837 0.1837 0.983 -3.3464 8.0409)" fill="none" width="4.8" height="0.5"/><rect x="39.4" y="27.1" transform="matrix(0.983 -0.1838 0.1838 0.983 -4.2777 8.4801)" fill="none" width="8.4" height="0.5"/><rect x="41.2" y="19.5" transform="matrix(0.8501 -0.5265 0.5265 0.8501 -3.8716 25.904)" fill="none" width="4.8" height="0.5"/><rect x="43" y="23.7" transform="matrix(0.8503 -0.5264 0.5264 0.8503 -5.5373 28.4463)" fill="none" width="8.4" height="0.5"/><rect x="42.1" y="16.6" transform="matrix(0.6025 -0.7981 0.7981 0.6025 4.2124 42.223)" fill="none" width="4.8" height="0.5"/><rect x="45.2" y="19.2" transform="matrix(0.6027 -0.798 0.798 0.6027 4.0915 47.1777)" fill="none" width="8.4" height="0.5"/><rect x="41.9" y="13.6" transform="matrix(0.2738 -0.9618 0.9618 0.2738 18.8344 52.7479)" fill="none" width="4.8" height="0.5"/><rect x="45.7" y="14.3" transform="matrix(0.2736 -0.9618 0.9618 0.2736 22.2367 58.5379)" fill="none" width="8.4" height="0.5"/><rect x="40.6" y="10.9" transform="matrix(-9.207402e-02 -0.9958 0.9958 -9.207402e-02 35.8333 55.0922)" fill="none" width="4.8" height="0.5"/><rect x="44.2" y="9.5" transform="matrix(-9.218109e-02 -0.9957 0.9957 -9.218109e-02 43.1132 58.9333)" fill="none" width="8.4" height="0.5"/><rect x="38.4" y="8.8" transform="matrix(-0.4458 -0.8951 0.8951 -0.4458 50.9116 49.737)" fill="none" width="4.8" height="0.5"/><rect x="41.2" y="5.6" transform="matrix(-0.4456 -0.8952 0.8952 -0.4456 60.346 49.0899)" fill="none" width="8.4" height="0.5"/><rect x="35.7" y="7.7" transform="matrix(-0.739 -0.6737 0.6737 -0.739 60.9718 39.499)" fill="none" width="4.8" height="0.5"/><rect x="37" y="3" transform="matrix(-0.7389 -0.6738 0.6738 -0.7389 69.3987 33.4429)" fill="none" width="8.4" height="0.5"/><rect x="32.7" y="7.5" transform="matrix(-0.9325 -0.3612 0.3612 -0.9325 65.0681 27.7208)" fill="none" width="4.8" height="0.5"/><polygon fill="none" points="42.4 9 41.7 8.3 41.4 8.1 41.1 7.8 40.8 7.5 40.5 7.2 40.2 7 39.9 6.7 39.7 6.5 39.6 6.8 39.5 7.2 39.3 7.1 39 7 38.7 6.9 38.4 6.8 38.1 6.7 37.8 6.6 37.6 6.5 37.3 6.3 37 6.2 36.7 6.1 36.6 6.1 36.3 6 36.2 5.9 36.2 6.6 35.9 6.6 35.6 6.6 35.3 6.6 35 6.6 34.7 6.6 34.4 6.6 34.1 6.6 33.7 6.6 33.4 6.6 33.1 6.6 32.8 6.6 32.5 6.6 32.8 7.3 32.8 7.4 32.8 7.4 32.5 7.5 32.2 7.6 31.9 7.8 31.6 7.9 31.2 8 31.1 8.1 29.4 8.7 29.9 9.3 28.5 10.5 27.3 11.7 28 12 26.5 15.2 26.4 15.2 26.5 15.3 27.2 15.3 26.8 18.8 27.6 18.6 28.5 22.1 28.5 22.1 29.2 21.6 31.1 24.2 31.2 24.3 31.4 24.5 31.6 24.2 31.8 23.8 31.9 23.9 32.2 24.1 32.5 24.3 32.8 24.5 33.1 24.7 33.4 24.9 33.7 25.1 34.1 25.3 34.4 25.5 34.7 25.7 34.8 25.7 35 25 35 25 35.3 25 35.6 25.1 35.9 25.1 36.3 25.2 36.6 25.3 36.7 25.3 37 25.3 37.3 25.4 37.6 25.5 37.8 25.5 38.1 25.6 38.4 25.6 38.5 25.6 38.4 25.4 38.3 24.9 38.4 24.8 38.7 24.8 39 24.7 39.3 24.7 39.6 24.6 39.9 24.6 40.2 24.5 40.5 24.5 40.8 24.4 41.1 24.3 41.4 24.3 41.7 24.2 41.8 24.2 41.7 24 41.4 23.6 41.7 23.4 43.9 22 44.5 21.7 43.9 21.3 43.9 21.2 43.9 21.1 46 18.4 45.3 18.2 46.3 14.8 45.5 14.8 45.2 11.3 44.5 11.6 43.9 10.6 42.9 8.4 "/><polygon fill="#FBB317" points="47 21.9 47 20.1 46.7 20.3 46.7 22.1 "/><polygon fill="#FBB317" points="47 19.6 47 12.2 46.8 12.9 46.7 11.2 46.7 20 "/><polygon fill="#FBB317" points="47 24.8 47 23.2 46.7 23.3 46.7 24.8 "/><polygon fill="#FAAE1B" points="47.4 19 47.4 16.5 47.3 16.6 47.4 16.2 47.4 10.7 47 12.2 47 19.6 "/><polygon fill="#FAAE1B" points="47.4 24.7 47.4 23.2 47 23.2 47 24.8 "/><polygon fill="#FAAE1B" points="47.4 21.6 47.4 19.8 47 20.1 47 21.9 "/><polygon fill="#FBAA1B" points="47.9 21.3 47.9 19.6 47.4 19.8 47.4 21.6 "/><polygon fill="#FBAA1B" points="47.9 14.7 47.9 9.2 47.4 10.7 47.4 16.2 "/><polygon fill="#FBAA1B" points="47.9 18.4 47.9 15.9 47.4 16.5 47.4 19 "/><polygon fill="#FBAA1B" points="47.9 24.6 47.9 23.1 47.4 23.2 47.4 24.7 "/><polygon fill="#FAA51D" points="48.3 21.1 48.3 19.3 47.9 19.6 47.9 21.3 "/><polygon fill="#FAA51D" points="48.3 13.2 48.3 8.7 48 8.6 47.9 9.2 47.9 14.7 "/><polygon fill="#FAA51D" points="48.3 17.9 48.3 15.4 47.9 15.9 47.9 18.4 "/><polygon fill="#FAA51D" points="48.3 24.5 48.3 24.2 48.1 23 47.9 23.1 47.9 24.6 "/><polygon fill="#F9A01F" points="48.4 24.5 48.3 24.2 48.3 24.5 "/><polygon fill="#F9A01F" points="48.7 20.8 48.7 19 48.3 19.3 48.3 21.1 "/><polygon fill="#F9A01F" points="48.7 11.7 48.7 8.8 48.3 8.7 48.3 13.2 "/><polygon fill="#F9A01F" points="48.7 17.3 48.7 14.8 48.3 15.4 48.3 17.9 "/><polygon fill="#F99B1F" points="49.2 10.2 49.2 9 48.7 8.8 48.7 11.7 "/><polygon fill="#F99B1F" points="49.2 20.6 49.2 18.8 48.7 19 48.7 20.8 "/><polygon fill="#F99B1F" points="49.2 16.7 49.2 14.2 48.7 14.8 48.7 17.3 "/><polygon fill="#F89621" points="49.5 9.1 49.2 9 49.2 10.2 "/><polygon fill="#F89621" points="49.6 20.3 49.6 18.5 49.2 18.8 49.2 20.6 "/><polygon fill="#F89621" points="49.6 16.2 49.6 13.7 49.2 14.2 49.2 16.7 "/><polygon fill="#F79221" points="50 15.6 50 13.4 49.8 13.3 49.6 13.7 49.6 16.2 "/><polygon fill="#F79221" points="50 20 50 18.6 49.8 18.4 49.6 18.5 49.6 20.3 "/><polygon fill="#F78C21" points="50.4 15 50.4 13.8 50 13.4 50 15.6 "/><polygon fill="#F78C21" points="50.4 19.8 50.4 19.3 50 18.6 50 20 "/><polygon fill="#F68720" points="50.6 19.6 50.4 19.3 50.4 19.8 "/><polygon fill="#F68720" points="50.9 14.5 50.9 14.1 50.4 13.8 50.4 15 "/><polygon fill="#F58220" points="51 14.2 50.9 14.1 50.9 14.5 "/><polygon fill="#FCB918" points="41.7 23.4 41.7 24 41.8 24.2 41.7 24.2 41.7 25.8 43.9 25.3 43.9 23.8 43.9 23.8 43.9 23.8 43.9 22 "/><polygon fill="#FCB918" points="43.9 21.3 43.9 21.1 43.9 21.2 "/><polygon fill="#FCB918" points="43.9 28.2 43.9 26.6 41.7 26.2 41.7 27.8 "/><polygon fill="#FCB918" points="42.4 9 42.9 8.4 43.9 10.6 43.9 7.2 41.7 2.7 41.7 6.1 41.9 6.5 41.7 6.3 41.7 8.3 "/><polygon fill="#FCB918" points="46.7 24.8 46.7 23.3 43.9 23.8 43.9 25.3 "/><polygon fill="#FCB918" points="44.4 28.3 44.7 26.8 43.9 26.6 43.9 28.2 "/><polygon fill="#FCB918" points="46.7 20 46.7 11.2 46.1 4.8 44.6 5 45 9.3 43.9 7.2 43.9 10.6 44.5 11.6 45.2 11.3 45.5 14.8 46.3 14.8 45.3 18.2 46 18.4 43.9 21.1 43.9 21.3 44.5 21.7 43.9 22 43.9 23.8 46.7 22.1 46.7 20.3 46.2 20.6 "/><polygon fill="#FFD78B" points="36.7 28.6 36.7 26.9 36.6 26.8 36.6 28.6 "/><polygon fill="#FFD78B" points="36.6 1.6 36.6 3.7 36.7 3.7 36.7 1.7 "/><polygon fill="#FFD78B" points="36.7 6.1 36.7 4.5 36.6 4.5 36.6 6.1 "/><polygon fill="#FFD78B" points="36.6 25.3 36.6 26.8 36.7 26.8 36.7 25.3 "/><polygon fill="#FFD586" points="37 6.2 37 4.6 36.7 4.5 36.7 6.1 "/><polygon fill="#FFD586" points="36.7 1.7 36.7 3.7 37 4 37 2 "/><polygon fill="#FFD586" points="37 28.8 37 27.1 36.7 26.9 36.7 28.6 "/><polygon fill="#FFD586" points="36.7 25.3 36.7 26.8 37 26.9 37 25.3 "/><polygon fill="#FFD380" points="37.3 29 37.3 27.2 37 27.1 37 28.8 "/><polygon fill="#FFD380" points="37 2 37 4 37.3 4.3 37.3 2.2 "/><polygon fill="#FFD380" points="37.3 6.3 37.3 4.7 37 4.6 37 6.2 "/><polygon fill="#FFD380" points="37 25.3 37 26.9 37.3 26.9 37.3 25.4 "/><polygon fill="#FFD17A" points="37.3 25.4 37.3 26.9 37.6 27 37.6 25.5 "/><polygon fill="#FFD17A" points="37.6 29.2 37.6 27.4 37.3 27.2 37.3 29 "/><polygon fill="#FFD17A" points="37.6 6.5 37.6 4.8 37.3 4.7 37.3 6.3 "/><polygon fill="#FFD17A" points="37.3 2.2 37.3 4.3 37.6 4.5 37.6 2.5 "/><polygon fill="#FFD076" points="37.8 6.6 37.8 5 37.6 4.8 37.6 6.5 "/><polygon fill="#FFD076" points="37.6 2.5 37.6 4.5 37.8 4.8 37.8 2.8 "/><polygon fill="#FFD076" points="37.8 29.4 37.8 27.6 37.6 27.4 37.6 29.2 "/><polygon fill="#FFD076" points="37.6 25.5 37.6 27 37.8 27 37.8 25.5 "/><polygon fill="#FFCF70" points="38.1 29.6 38.1 27.8 37.8 27.6 37.8 29.4 "/><polygon fill="#FFCF70" points="37.8 25.5 37.8 27 38.1 27.1 38.1 25.6 "/><polygon fill="#FFCF70" points="38.1 6.7 38.1 3 37.8 2.8 37.8 4.8 38.1 5.1 37.8 5 37.8 6.6 "/><polygon fill="#FFCC69" points="38.4 29.7 38.4 28 38.1 27.8 38.1 29.6 "/><polygon fill="#FFCC69" points="38.4 25.4 38.4 24.8 38.3 24.9 "/><polygon fill="#FFCC69" points="38.1 25.6 38.1 27.1 38.4 27.1 38.4 25.6 "/><polygon fill="#FFCC69" points="38.4 6.8 38.4 3.3 38.1 3 38.1 6.7 "/><polygon fill="#FFCA63" points="38.4 24.8 38.4 25.4 38.5 25.6 38.4 25.6 38.4 27.1 38.7 27.2 38.7 24.8 "/><polygon fill="#FFCA63" points="38.7 29.9 38.7 28.2 38.4 28 38.4 29.7 "/><polygon fill="#FFCA63" points="38.7 6.9 38.7 3.6 38.4 3.3 38.4 6.8 "/><polygon fill="#FFC95B" points="39 30.1 39 28.3 38.7 28.2 38.7 29.9 "/><polygon fill="#FFC95B" points="39 7 39 3.9 38.7 3.6 38.7 6.9 "/><polygon fill="#FFC95B" points="38.7 24.8 38.7 27.2 39 27.3 39 24.7 "/><polygon fill="#FFC655" points="39 24.7 39 27.3 39.3 27.3 39.3 24.7 "/><polygon fill="#FFC655" points="39.3 7.1 39.3 4.1 39 3.9 39 7 "/><polygon fill="#FFC655" points="39.3 30.3 39.3 28.5 39 28.3 39 30.1 "/><polygon fill="#FFC54F" points="39.5 7.2 39.6 6.8 39.6 4.4 39.3 4.1 39.3 7.1 "/><polygon fill="#FFC54F" points="39.3 24.7 39.3 27.3 39.6 27.4 39.6 24.6 "/><polygon fill="#FFC54F" points="39.4 30.3 39.6 30 39.6 28.7 39.3 28.5 39.3 30.3 "/><polygon fill="#FEC445" points="39.7 6.5 39.9 6.7 39.9 4.7 39.6 4.4 39.6 6.8 "/><polygon fill="#FEC445" points="39.9 29.5 39.9 28.9 39.6 28.7 39.6 30 "/><polygon fill="#FEC445" points="39.6 24.6 39.6 27.4 39.9 27.4 39.9 24.6 "/><polygon fill="#FDC13D" points="40.2 7 40.2 4.9 39.9 4.7 39.9 6.7 "/><polygon fill="#FDC13D" points="40 2.7 40.2 3.1 40.2 2.6 "/><polygon fill="#FDC13D" points="39.9 24.6 39.9 27.4 40.2 27.5 40.2 24.5 "/><polygon fill="#FDC13D" points="40.2 29.1 39.9 28.9 39.9 29.5 "/><polygon fill="#FEBF35" points="40.2 2.6 40.2 3.1 40.5 3.7 40.5 2.5 "/><polygon fill="#FEBF35" points="40.2 24.5 40.2 27.5 40.5 27.5 40.5 26 40.5 26 40.5 26 40.5 24.5 "/><polygon fill="#FEBF35" points="40.5 7.2 40.5 5.2 40.2 4.9 40.2 7 "/><polygon fill="#FEBE2E" points="40.5 24.5 40.5 26 40.8 25.9 40.8 24.4 "/><polygon fill="#FEBE2E" points="40.5 2.5 40.5 3.7 40.8 4.3 40.8 2.3 "/><polygon fill="#FEBE2E" points="40.8 7.5 40.8 5.5 40.5 5.2 40.5 7.2 "/><polygon fill="#FEBE2E" points="40.8 27.6 40.8 26.1 40.5 26 40.5 27.5 "/><polygon fill="#FEBC25" points="41.1 27.6 41.1 26.1 40.8 26.1 40.8 27.6 "/><polygon fill="#FEBC25" points="40.8 2.3 40.8 4.3 41.1 4.9 41.1 2.2 "/><polygon fill="#FEBC25" points="41.1 7.8 41.1 5.8 40.8 5.5 40.8 7.5 "/><polygon fill="#FEBC25" points="40.8 24.4 40.8 25.9 41.1 25.9 41.1 24.3 "/><polygon fill="#FCBA1D" points="41.4 27.7 41.4 26.2 41.1 26.1 41.1 27.6 "/><polygon fill="#FCBA1D" points="41.4 8.1 41.4 6 41.1 5.8 41.1 7.8 "/><polygon fill="#FCBA1D" points="41.1 24.3 41.1 25.9 41.4 25.8 41.4 24.3 "/><polygon fill="#FCBA1D" points="41.4 2.1 41.1 2.2 41.1 4.9 41.4 5.5 41.4 2.1 "/><polygon fill="#FCB918" points="41.7 8.3 41.7 6.3 41.4 6 41.4 8.1 "/><polygon fill="#FCB918" points="41.4 2.1 41.4 5.5 41.7 6.1 41.7 2.7 "/><polygon fill="#FCB918" points="41.7 24 41.7 23.4 41.4 23.6 "/><polygon fill="#FCB918" points="41.4 24.3 41.4 25.8 41.7 25.8 41.7 24.2 "/><polygon fill="#FCB918" points="41.7 27.8 41.7 26.2 41.4 26.2 41.4 27.7 "/><polygon fill="#FCBA1D" points="31.1 2.3 31.1 4 31.2 4 31.2 2.4 "/><polygon fill="#FCBA1D" points="31.2 8 31.2 5.1 31.1 5.1 31.1 8.1 "/><polygon fill="#FCBA1D" points="31.1 24.2 31.1 26.7 31.2 26.8 31.2 24.3 "/><polygon fill="#FEBC25" points="31.2 2.4 31.2 4 31.6 4.1 31.6 2.5 "/><polygon fill="#FEBC25" points="31.6 7.9 31.6 5.1 31.2 5.1 31.2 8 "/><polygon fill="#FEBC25" points="31.4 24.5 31.2 24.3 31.2 26.8 31.6 27.2 31.6 24.2 "/><polygon fill="#FEBE2E" points="31.6 2.5 31.6 4.1 31.9 4.3 31.9 2.6 "/><polygon fill="#FEBE2E" points="31.9 7.8 31.9 5.1 31.6 5.1 31.6 7.9 "/><polygon fill="#FEBE2E" points="31.8 23.8 31.6 24.2 31.6 27.2 31.9 27.7 31.9 23.9 "/><polygon fill="#FEBF35" points="31.9 2.6 31.9 4.3 32.2 4.4 32.2 2.8 "/><polygon fill="#FEBF35" points="31.9 23.9 31.9 27.7 32.2 28.1 32.2 24.1 "/><polygon fill="#FEBF35" points="32.2 7.6 32.2 5.1 31.9 5.1 31.9 7.8 "/><polygon fill="#FDC13D" points="32.5 7.5 32.5 5.1 32.2 5.1 32.2 7.6 "/><polygon fill="#FDC13D" points="32.2 24.1 32.2 28.1 32.5 28.5 32.5 24.3 "/><polygon fill="#FDC13D" points="32.2 2.8 32.2 4.4 32.5 4.5 32.5 2.9 "/><polygon fill="#FEC445" points="32.5 2.9 32.5 4.5 32.8 4.6 32.8 3 "/><polygon fill="#FEC445" points="32.5 24.3 32.5 28.5 32.8 28.9 32.8 26.4 32.6 26.1 32.8 26.3 32.8 24.5 "/><polygon fill="#FEC445" points="32.8 7.4 32.8 7.3 32.5 6.6 32.8 6.6 32.8 5.1 32.5 5.1 32.5 7.5 "/><polygon fill="#FFC54F" points="33.1 29.3 33.1 26.8 32.8 26.4 32.8 28.9 "/><rect x="32.8" y="5.1" fill="#FFC54F" width="0.3" height="1.5"/><polygon fill="#FFC54F" points="32.8 24.5 32.8 26.3 33.1 26.5 33.1 24.7 "/><polygon fill="#FFC54F" points="32.8 3 32.8 4.6 33.1 4.7 33.1 3.1 "/><polygon fill="#FFC54F" points="32.8 7.3 32.8 7.4 32.8 7.4 "/><polygon fill="#FFC655" points="33.4 29.7 33.4 27.2 33.1 26.8 33.1 29.3 "/><polygon fill="#FFC655" points="33.1 24.7 33.1 26.5 33.4 26.6 33.4 24.9 "/><rect x="33.1" y="5.1" fill="#FFC655" width="0.3" height="1.5"/><polygon fill="#FFC655" points="33.1 3.1 33.1 4.7 33.4 4.9 33.4 3.2 "/><rect x="33.4" y="5.1" fill="#FFC95B" width="0.3" height="1.5"/><polygon fill="#FFC95B" points="33.4 3.2 33.4 4.9 33.7 5 33.7 3.4 "/><polygon fill="#FFC95B" points="33.7 30.1 33.7 27.6 33.4 27.2 33.4 29.7 "/><polygon fill="#FFC95B" points="33.4 24.9 33.4 26.6 33.7 26.8 33.7 25.1 "/><polygon fill="#FFCA63" points="34.1 6.6 34.1 3.5 33.7 3.4 33.7 5 34 5.1 33.7 5.1 33.7 6.6 "/><polygon fill="#FFCA63" points="34 30.4 34.1 30.4 34.1 28.1 33.7 27.6 33.7 30.1 "/><polygon fill="#FFCA63" points="33.7 25.1 33.7 26.8 34.1 27 34.1 25.3 "/><polygon fill="#FFCC69" points="34.1 25.3 34.1 27 34.4 27.2 34.4 25.5 "/><polygon fill="#FFCC69" points="34.4 30.1 34.4 28.5 34.1 28.1 34.1 30.4 "/><polygon fill="#FFCC69" points="34.4 6.6 34.4 3.6 34.1 3.5 34.1 6.6 "/><polygon fill="#FFCF70" points="34.7 29.9 34.7 28.9 34.4 28.5 34.4 30.1 "/><polygon fill="#FFCF70" points="34.4 25.5 34.4 27.2 34.7 27.4 34.7 25.7 "/><polygon fill="#FFCF70" points="34.7 6.6 34.7 3.7 34.4 3.6 34.4 6.6 "/><polygon fill="#FFD076" points="35 29.6 35 29.3 34.7 28.9 34.7 29.9 "/><polygon fill="#FFD076" points="35 25 34.8 25.7 34.7 25.7 34.7 27.4 35 27.6 35 25 "/><polygon fill="#FFD076" points="35 6.6 35 3.9 34.7 3.7 34.7 6.6 "/><polygon fill="#FFD17A" points="35.3 6.6 35.3 4 35 3.9 35 6.6 "/><polygon fill="#FFD17A" points="35.2 29.5 35 29.3 35 29.6 "/><polygon fill="#FFD17A" points="35 25 35 27.6 35.3 27.8 35.3 25 "/><polygon fill="#FFD17A" points="35.1 2.3 35.3 2.5 35.3 2 "/><polygon fill="#FFD380" points="35.6 6.6 35.6 4.1 35.3 4 35.3 6.6 "/><polygon fill="#FFD380" points="35.3 25 35.3 27.8 35.6 28 35.6 25.1 "/><polygon fill="#FFD380" points="35.3 2 35.3 2.5 35.6 2.8 35.6 1.7 "/><polygon fill="#FFD586" points="35.6 25.1 35.6 28 35.9 28.2 35.9 25.1 "/><polygon fill="#FFD586" points="35.9 6.6 35.9 4.2 35.6 4.1 35.6 6.6 "/><polygon fill="#FFD586" points="35.6 1.7 35.6 2.8 35.9 3.1 35.9 1.3 "/><polygon fill="#FFD78B" points="36.2 6.6 36.2 5.9 36.3 6 36.3 4.3 35.9 4.2 35.9 6.6 "/><polygon fill="#FFD78B" points="35.9 25.1 35.9 28.2 36.3 28.4 36.3 25.2 "/><polygon fill="#FFD78B" points="36.1 1.2 35.9 1.3 35.9 3.1 36.3 3.4 36.3 1.3 "/><polygon fill="#FFDA91" points="36.6 6.1 36.6 4.5 36.3 4.3 36.3 6 "/><polygon fill="#FFDA91" points="36.3 1.3 36.3 3.4 36.6 3.7 36.6 1.6 "/><polygon fill="#FFDA91" points="36.3 25.2 36.3 28.4 36.6 28.6 36.6 26.8 36.5 26.8 36.6 26.8 36.6 25.3 "/><polygon fill="#FCB918" points="28.5 22.1 27.6 18.6 26.8 18.8 27.2 15.3 26.5 15.3 26.5 22.6 26.6 20.9 28.5 27.6 28.5 22.1 "/><polygon fill="#FCB918" points="28 12 27.3 11.7 28.5 10.5 28.5 7.4 26.5 8.2 26.5 9.8 27.5 9.4 26.5 10.4 26.5 15.2 "/><rect x="26.5" y="5.1" fill="#FCB918" width="2.1" height="1.5"/><polygon fill="#FCB918" points="29.9 9.3 29.4 8.7 31.1 8.1 31.1 5.1 28.5 5.1 28.5 6.6 30.8 6.6 28.5 7.4 28.5 10.5 "/><polygon fill="#FCB918" points="30.8 2.2 30.2 3.6 31.1 4 31.1 2.3 "/><polygon fill="#FCB918" points="29.2 21.6 28.5 22.1 28.5 27.6 28.8 28.6 30.3 28.2 29.1 23.9 31.1 26.7 31.1 24.2 "/><polygon fill="#F58220" points="21.6 14.8 21.8 15 21.8 14.7 "/><polygon fill="#F68720" points="21.8 14.7 21.8 15 22.2 15.5 22.2 14.3 "/><polygon fill="#F78C21" points="22.2 14.3 22.2 15.5 22.6 16 22.6 15.9 22.6 13.9 "/><polygon fill="#F78C21" points="22.3 20.2 22.6 20.4 22.6 19.5 "/><polygon fill="#F79221" points="23.1 9.6 23.1 9.6 23.1 9.6 "/><polygon fill="#F79221" points="22.6 13.9 22.6 15.9 23.1 15.5 23.1 13.5 "/><polygon fill="#F79221" points="22.6 19.5 22.6 20.4 23.1 20.6 23.1 18.6 "/><polygon fill="#F89621" points="23.1 9.6 23.1 9.6 23.5 10.7 23.5 9.4 "/><polygon fill="#F89621" points="23.1 18.6 23.1 20.6 23.5 20.9 23.5 17.8 "/><polygon fill="#F89621" points="23.1 13.5 23.1 15.5 23.5 15.2 23.5 13.1 "/><polygon fill="#F99B1F" points="23.5 13.1 23.5 15.2 23.9 14.8 23.9 12.7 "/><polygon fill="#F99B1F" points="23.5 17.8 23.5 20.9 23.6 20.9 23.9 20.3 23.9 16.9 "/><polygon fill="#F99B1F" points="23.5 9.4 23.5 10.7 23.6 11 23.9 10.8 23.9 9.2 "/><polygon fill="#F9A01F" points="23.9 9.2 23.9 10.8 24.3 10.7 24.3 9.1 "/><polygon fill="#F9A01F" points="23.9 12.7 23.9 14.8 24.3 14.4 24.3 12.3 "/><polygon fill="#F9A01F" points="23.9 16.9 23.9 20.3 24.3 19.5 24.3 16.1 "/><polygon fill="#FAA51D" points="24.7 25 24.8 25 24.8 24.7 "/><polygon fill="#FAA51D" points="24.3 16.1 24.3 19.5 24.8 18.6 24.8 15.2 "/><polygon fill="#FAA51D" points="24.3 12.3 24.3 14.4 24.8 14 24.8 11.9 "/><polygon fill="#FAA51D" points="24.3 9.1 24.3 10.7 24.8 10.5 24.8 8.9 "/><polygon fill="#FBAA1B" points="24.8 15.2 24.8 18.6 25.2 17.7 25.2 14.4 "/><polygon fill="#FBAA1B" points="24.8 11.9 24.8 14 25.2 13.6 25.2 11.6 "/><polygon fill="#FBAA1B" points="24.8 24.7 24.8 25 25.2 25.1 25.2 20.1 "/><polygon fill="#FBAA1B" points="24.8 8.9 24.8 10.5 25.2 10.3 25.2 8.7 "/><polygon fill="#FAAE1B" points="25.2 14.4 25.2 17.7 25.5 17.2 25.2 20.1 25.2 25.1 25.6 25.1 25.6 13.5 "/><polygon fill="#FAAE1B" points="25.2 11.6 25.2 13.6 25.6 13.2 25.6 11.2 "/><polygon fill="#FAAE1B" points="25.2 8.7 25.2 10.3 25.6 10.2 25.6 8.6 "/><polygon fill="#FBB317" points="25.6 8.6 25.6 10.2 26.1 10 26.1 8.4 "/><polygon fill="#FBB317" points="25.6 11.2 25.6 13.2 25.9 13 25.6 13.5 25.6 25.1 26.1 25.2 26.1 10.8 "/><rect x="26.3" y="5.1" fill="#FCB918" width="0.1" height="1.5"/><polygon fill="#FCB918" points="26.1 8.4 26.1 10 26.5 9.8 26.5 8.2 "/><polygon fill="#FCB918" points="26.4 15.2 26.5 15.2 26.5 10.4 26.1 10.8 26.1 25.2 26.2 25.2 26.5 22.6 26.5 15.3 "/><polygon fill="none" points="42.9 8.4 42.4 9 39.7 6.5 39.5 7.2 36.2 5.9 36.2 6.6 32.5 6.6 32.8 7.4 29.4 8.7 29.9 9.3 27.3 11.7 28 12 26.4 15.2 27.2 15.3 26.8 18.8 27.6 18.6 28.5 22.1 29.2 21.6 31.4 24.5 31.8 23.8 34.8 25.7 35 25 38.5 25.6 38.3 24.9 41.8 24.2 41.4 23.6 44.5 21.7 43.9 21.2 46 18.4 45.3 18.2 46.3 14.8 45.5 14.8 45.2 11.3 44.5 11.6 "/><polygon fill="none" points="36.1 1.2 41.9 6.5 40 2.7 41.4 2.1 45 9.3 44.6 5 46.1 4.8 46.8 12.9 48 8.6 49.5 9.1 47.3 16.6 49.8 13.3 51 14.2 46.2 20.6 49.8 18.4 50.6 19.6 43.9 23.8 48.1 23 48.4 24.5 40.5 26 44.7 26.8 44.4 28.3 36.5 26.8 40.2 29.1 39.4 30.3 32.6 26.1 35.2 29.5 34 30.4 29.1 23.9 30.3 28.2 28.8 28.6 26.6 20.9 26.2 25.2 24.7 25 25.5 17.2 23.6 20.9 22.3 20.2 25.9 13 22.6 16 21.6 14.8 27.5 9.4 23.6 11 23.1 9.6 30.8 6.6 26.3 6.6 26.3 5.1 34 5.1 30.2 3.6 30.8 2.2 38.1 5.1 35.1 2.3 "/><polygon fill="none" points="25.3 20.1 25.8 21.8 25.9 21.7 26.5 22.4 27 16.8 "/><polygon fill="none" points="29.6 26.5 29.5 26.4 29.6 26.6 "/><polygon fill="none" points="46.5 11.2 46.6 11.3 46.5 11 "/><path fill="#F58220" d="M47.3 16.6l0.4-1.3 0-0.1 0-0.1 0-0.1 -0.1-0.1 -0.4-3.9 -0.5 1.7 -0.5-5.4 -0.1 0 0.3 3.4 -0.2 0 -1.5-3.1L45 9.3l-2.5-5 -0.2 0.1 1.6 3.3 -0.1-0.1 0-0.1 -0.1 0 -2.5-2.3 0.6 1.2 -4.2-3.8 -0.2 0.2 2.7 2.4L37 4.1l1.1 1 -5.5-2.1 -0.1 0.2 3.3 1.3h-3.6L34 5.1h-5.8v0.1H32l-0.4 0.2 -0.1 0 0 0.1 -3.1 1.2h2.1l0.9-0.4 1.3 0.5 -0.1-0.2h2.4l-2.3-0.9 0.9-0.4 -0.1-0.2h1.7l-0.1 0.1 1.1 1V5.9l2 0.8 -1.8-1.6h1.2l1.5 0.6 0.9-0.4 -0.9 0.5 0.5 1 0-0.1 1.8 1.6 -1-1.9 1 0.4 0-0.1 1.3 1.2L43 8.6l1.2 2.4 -0.2-2.3 0.8 0.7 0 0 0.8 1.6 -0.3 1.1 0.2 2.7 0.7-2.5 0.4 0.8 0.1-0.1 0.2 1.7L46 16l-0.6 2.2 0.1 0 1.5-2.1 0.1 1 0.2 0 -0.5 1.6L44.8 20l-0.9 1.2 0.4 0.3 2.2-1.4 -0.1 0.3 1.2-1.6 1.1-4L47.3 16.6zM46.5 11.2l0-0.1 0 0.3L46.5 11.2zM45.3 23.7l0.1-0.1 -1.1 0.2 -0.6 0.8 0.1 0.1 -1.5 0.9 -3.7-0.7 -0.3 0.1 0.1 0.8L35 25l-0.1 0.8 -3.1-1.9 -0.4 0.6 -2.2-2.9 -0.7 0.5 -1-3.5 -0.7 0.2 0.3-3.5 -0.5 0 -1.2 2.5 -0.4 4 0.9 3.3 0.3 0 0.1-1.4 -0.1-0.5 0.2 0.2 0 0.2 0 0 0.3-2.8 0.7 2.6 0.3-3.7 1.6 5.6 -0.8-0.5L28.5 25l-1-1.4 0.6 2 2 2.7 0.3-0.1 -0.3-1.2 -0.3-0.4 0.1 0 0.1 0 -0.8-2.6 1.3 1.8 -0.9-3.3 3.6 4.8 -1-0.2 0 0.1 -1.2-0.7 1.2 1.6 2.7 1.7 0.3-0.2 -0.7-0.9L33.5 28l0.2 0 0.1 0.1 0.1-0.1 0.2 0 -1.5-2 1.7 1 -2.1-2.8 4.9 3.1 -0.9 0.2 0 0.1 -1.4-0.3 1.7 1.1 3.5 0.7 0.1-0.2 -1.3-0.8 -1-0.2 0.2 0 0.1 0.1 0.1-0.1 0.2 0 -1.9-1.2 2 0.4 -3.2-2 5.8 1.1 -0.9 0.5 0.1 0.1 -1.7 0.3 2 0.4 4-0.8 0 0 -2-0.4L42 26.6l0.2-0.1 0.1 0 0-0.1 0 0L40.5 26l3.5-0.7 3.5-2.2 -2 0.4L45.3 23.7zM26.5 22.4l-0.6-0.7 -0.1 0.1 -0.5-1.6 1.7-3.4L26.5 22.4zM29.6 26.5l0 0.1L29.6 26.5 29.6 26.5z"/><polygon fill="#F58220" points="46.3 20.5 46.1 21.2 46.2 21.2 45.2 22.5 42.2 23.1 41.4 23.6 41.8 24.2 44 23.8 46.3 22.3 48.8 19 "/><polygon fill="#F58220" points="26.6 9.8 28 8.5 30 8.5 32.5 7.5 29.1 7.5 29.6 7 27.6 7.8 24.6 10.6 26.6 9.8 "/><polygon fill="#F58220" points="24.9 13.6 24.8 13.6 25.6 12 27.9 11.1 29.9 9.3 26.3 10.7 26.4 10.5 24.9 11.8 23 15.6 24.9 13.9 "/><polygon fill="#F58220" points="23.6 20.9 24.8 18.4 24.6 17.7 24.5 17.7 24.7 16 27.2 13.7 28 12 27.7 11.9 25.3 14.1 23.9 17.1 23.5 20.9 "/><polygon fill="none" points="42.9 8.4 42.4 9 39.7 6.5 39.5 7.2 36.2 5.9 36.2 6.6 32.5 6.6 32.8 7.4 29.4 8.7 29.9 9.3 27.3 11.7 28 12 26.4 15.2 27.2 15.3 26.8 18.8 27.6 18.6 28.5 22.1 29.2 21.6 31.4 24.5 31.8 23.8 34.8 25.7 35 25 38.5 25.6 38.3 24.9 41.8 24.2 41.4 23.6 44.5 21.7 43.9 21.2 46 18.4 45.3 18.2 46.3 14.8 45.5 14.8 45.2 11.3 44.5 11.6 "/><polygon fill="none" points="36.1 1.2 41.9 6.5 40 2.7 41.4 2.1 45 9.3 44.6 5 46.1 4.8 46.8 12.9 48 8.6 49.5 9.1 47.3 16.6 49.8 13.3 51 14.2 46.2 20.6 49.8 18.4 50.6 19.6 43.9 23.8 48.1 23 48.4 24.5 40.5 26 44.7 26.8 44.4 28.3 36.5 26.8 40.2 29.1 39.4 30.3 32.6 26.1 35.2 29.5 34 30.4 29.1 23.9 30.3 28.2 28.8 28.6 26.6 20.9 26.2 25.2 24.7 25 25.5 17.2 23.6 20.9 22.3 20.2 25.9 13 22.6 16 21.6 14.8 27.5 9.4 23.6 11 23.1 9.6 30.8 6.6 26.3 6.6 26.3 5.1 34 5.1 30.2 3.6 30.8 2.2 38.1 5.1 35.1 2.3 "/><polygon fill="none" points="40.6 25.6 40.4 25.5 40.1 25.5 39.9 25.4 39.6 25.4 39.4 25.3 39.1 25.3 38.9 25.3 38.6 25.2 38.4 25.2 38.1 25.1 37.8 25.1 37.6 25 37.3 25 37.1 24.9 36.8 24.9 36.8 24.9 36.5 24.8 36.3 24.8 36 24.7 35.8 24.7 36 24.8 36.3 25 36.5 25.1 36.8 25.3 36.8 25.3 37.1 25.5 37.3 25.6 37.6 25.8 37.8 25.9 38.1 26.1 38.4 26.3 38.6 26.4 38.9 26.6 39.1 26.7 39.1 26.7 39.4 26.6 39.6 26.6 39.9 26.5 40.1 26.5 40.4 26.5 40.6 26.4 40.8 26.4 40.7 26.3 40.9 26.2 41.1 26 41.6 25.8 41.1 25.7 40.9 25.6 "/><polygon fill="none" points="32.2 23.2 32.2 23.1 32.5 22.6 32.5 22.7 32.8 22.8 33.1 23 33.4 23.2 33.7 23.4 34 23.5 34.2 23.7 34.5 23.9 34.8 24.1 35.1 24.2 35.1 24.1 35.2 23.6 35.4 23.6 35.7 23.7 36 23.7 36.3 23.8 36.5 23.8 36.8 23.9 36.8 23.9 37.1 23.9 37.3 24 37.6 24 37.8 24.1 38.1 24.1 38.2 24.1 38.1 23.6 38.1 23.5 38.1 23.5 38.4 23.4 38.6 23.4 38.9 23.3 39.1 23.3 39.4 23.2 39.6 23.2 39.9 23.1 40.1 23.1 40.4 23 40.6 23 40.9 23 41 22.9 40.9 22.7 40.7 22.4 40.9 22.2 41.1 22.1 43.3 20.8 42.7 20.4 43.4 19.6 44.6 18 44 17.8 44.8 14.9 44.1 15 43.8 11.9 43.4 12.1 43.2 12.2 41.9 9.6 41.4 10 41.1 9.7 40.9 9.5 40.6 9.3 40.4 9 40.1 8.8 39.9 8.6 39.6 8.3 39.4 8.1 39.2 7.9 39.1 8.1 39 8.5 38.9 8.5 38.6 8.4 38.4 8.3 38.1 8.2 37.8 8.1 37.6 8 37.3 7.9 37.1 7.8 36.8 7.7 36.8 7.7 36.5 7.6 36.3 7.5 36.2 7.5 36.2 8 36 8 35.7 8 35.4 8 35.1 8 34.8 8 34.5 8 34.2 8 34 8 33.7 8 33.4 8 33.1 8 33.1 8 33.1 8.1 33.4 8.7 33.1 8.8 32.8 8.9 32.5 9 32.2 9.1 32 9.2 31.9 9.3 30.4 9.8 30.9 10.3 29.2 11.9 28.6 12.4 29.2 12.6 29.3 12.7 29.2 12.9 27.9 15.4 28.6 15.4 28.3 18.4 28.9 18.3 29.2 19.1 29.8 21.2 30.3 20.8 31.9 22.8 32 22.9 "/><polygon fill="none" points="46.7 20.7 46.6 20.7 46.9 19.7 46.9 19.7 46.9 19.7 46.5 19.9 46.1 20.2 43.4 21.9 41.9 22.8 43.4 22.5 45.7 22.1 46.1 21.5 46.5 21 "/><polygon fill="none" points="41.1 23.9 40.9 23.9 40.6 24 40.4 24 40.1 24.1 39.9 24.1 39.6 24.2 39.4 24.2 39.1 24.3 39 24.3 39.1 24.3 39.4 24.4 39.6 24.4 39.9 24.4 40.1 24.5 40.4 24.5 40.6 24.6 40.9 24.6 41.1 24.7 42.8 25 43.4 24.7 44.3 24.1 44.2 24 44.8 23.2 43.4 23.5 "/><polygon fill="none" points="32.8 25.7 32.5 25.3 32.2 24.9 32 24.5 31.9 24.5 30 21.9 31 25.7 31.9 26.2 32 26.2 32.2 26.4 32.5 26.6 32.6 26.6 32.6 26.5 32.8 26.5 33.1 26.6 33.4 26.6 33.6 26.7 33.4 26.4 33.1 26.1 "/><polygon fill="none" points="24.5 14.8 24.5 14.8 24.5 14.9 "/><polygon fill="none" points="47.1 10.8 47 10.6 47 10.7 "/><polygon fill="none" points="37.1 26.6 36.8 26.5 36.8 26.5 36.5 26.3 36.3 26.1 36 25.9 35.7 25.8 35.4 25.6 35.1 25.4 34.8 25.2 34.5 25 34.2 24.9 34 24.7 33.7 24.5 33.4 24.3 33.1 24.2 32.8 24 32.7 23.9 32.8 24.1 33.1 24.4 33.4 24.8 33.7 25.2 34 25.6 34.2 26 34.5 26.3 34.8 26.7 35 26.9 35.1 27 35.4 27 35.7 27.1 36 27.1 36.3 27.2 36.5 27.2 36.7 27.3 36.7 27.1 36.8 27.1 36.8 27.1 37.1 27.1 37.3 27 37.6 27 37.6 27 37.6 26.9 37.3 26.8 "/><polygon fill="none" points="31.9 8.2 32 8.2 32.2 8.1 32.5 8 32.2 8 32 8 31.9 8 29.2 8 28.5 8 27 9.3 27.2 9.4 26.9 9.9 26.8 10.2 26.9 10.1 29.2 9.3 "/><polygon fill="none" points="46.9 14.9 47.3 14.3 47.4 14.2 47.3 13.8 47.2 12.5 47.1 12.6 46.9 12.2 46.7 11.8 46.5 12.6 46.1 13.9 45.2 17.2 46.1 16 46.5 15.4 "/><polygon fill="none" points="29.2 10.3 26.9 11.2 26.5 11.3 26.1 11.5 26.1 11.5 25.7 12.4 25.3 13.1 25.4 13.1 25.3 14.1 25.7 13.7 26.1 13.4 26.5 13 26.9 12.6 29.2 10.6 29.6 10.1 "/><polygon fill="none" points="34 5.5 34.2 5.6 34.5 5.8 34.8 5.9 35.1 6 35.4 6.1 35.7 6.2 36 6.3 36.3 6.4 36.5 6.5 36.8 6.6 36.8 6.6 37.1 6.7 37.3 6.8 37.6 6.9 37.8 7 38.1 7.1 38.4 7.2 38.4 7.3 38.4 7.2 38.1 7 37.8 6.7 37.6 6.5 37.3 6.3 37.1 6 36.8 5.8 36.8 5.8 36.5 5.5 36.3 5.3 36 5 35.7 4.8 35.6 4.7 35.7 4.6 35.7 4.6 35.7 4.6 35.4 4.6 35.1 4.6 34.8 4.6 34.5 4.6 34.2 4.6 34 4.6 34 4.6 34 4.6 34 4.8 34 4.9 33.7 5 33.4 5.1 33.1 5.2 33.4 5.3 33.7 5.4 "/><polygon fill="none" points="46.9 18.5 47.3 18.3 47.3 18.2 47.8 16.7 47.6 16.7 47.5 15.7 47.3 15.9 46.9 16.5 46.5 17.1 46.1 17.6 44 20.3 46.1 19 46.5 18.8 "/><polygon fill="none" points="32.2 7 32.5 7 32.8 7 33.1 7 33.4 7 33.7 7 34 7 34.2 7 34.5 7 34.8 7 35.1 7 34.8 6.9 34.5 6.8 34.2 6.7 34 6.6 33.7 6.5 33.4 6.4 33.1 6.2 32.8 6.1 32.5 6 32.2 5.9 32 5.8 31.9 5.8 31.8 5.7 30.1 6.4 30.1 6.5 29.5 7 31.9 7 32 7 "/><polygon fill="none" points="43.4 10.4 43.7 11.1 43.4 7.2 43.4 7.2 42.1 6.1 42.1 6.1 41.1 5.8 41 5.7 41.1 5.9 "/><polygon fill="none" points="37.6 5.2 37.8 5.4 38.1 5.6 38.4 5.9 38.6 6.1 38.9 6.3 39.1 6.6 39.4 6.8 39.6 7 39.9 7.2 40.1 7.5 40.4 7.7 40.6 7.9 40.9 8.2 41.1 8.4 41.4 8.7 41.1 8.1 40.9 7.6 40.6 7.1 40.4 6.6 40.1 6.1 39.9 5.6 39.7 5.2 39.9 5.1 40.1 5 40.4 4.8 40.6 4.8 40.4 4.8 40.1 5 39.9 5.1 39.7 5.2 39.6 5.2 39.4 5.1 39.1 5 38.9 4.9 38.6 4.8 38.4 4.7 38.2 4.6 38.1 4.6 37.8 4.6 37.6 4.6 37.3 4.6 37.1 4.6 37 4.6 37.1 4.7 37.3 4.9 "/><polygon fill="none" points="30 25.9 30.1 26.1 30.1 26 "/><polygon fill="none" points="46.1 10.5 45.3 8.9 45.2 8.9 44.4 8.2 45 14.2 "/><polygon fill="none" points="26.1 19.1 25.8 19.6 26.1 20.6 26.3 21.3 26.4 21.2 26.5 21.3 26.9 21.8 27 21.9 27.5 16.3 26.9 17.4 26.5 18.2 "/><polygon fill="none" points="27.9 23.1 29 24.5 29 24.4 29.2 24.5 29.8 24.9 29.2 22.7 28.2 19.3 "/><polygon fill="none" points="26.1 14.7 25.7 15 25.3 15.4 25.2 15.5 25 17.2 25.1 17.2 25.3 17.7 25.4 18.2 25.7 17.7 26.1 16.9 26.5 16 26.9 15.2 28.1 12.8 26.9 13.9 26.5 14.3 "/><polygon fill="#FBB317" points="46.5 18.8 46.1 19 46.1 20.2 46.5 19.9 "/><polygon fill="#FBB317" points="46.3 26.1 46.2 25.4 46.1 25.4 46.1 26.1 "/><polygon fill="#FBB317" points="46.5 12.6 46.5 9.6 46.1 8.8 46.1 13.9 "/><polygon fill="#FBB317" points="46.1 21.5 46.1 22.7 46.5 22.2 46.5 21 "/><polygon fill="#FBB317" points="46.5 15.4 46.1 16 46.1 17.6 46.5 17.1 "/><polygon fill="#FBB317" points="46.5 23.6 46.5 22.7 46.1 23 46.1 23.8 "/><polygon fill="#FAAE1B" points="46.5 15.4 46.5 17.1 46.9 16.5 46.9 14.9 "/><polygon fill="#FAAE1B" points="46.9 23.3 46.9 22.5 46.5 22.7 46.5 23.6 "/><polygon fill="#FAAE1B" points="46.7 7.1 46.9 9 46.9 7 "/><polygon fill="#FAAE1B" points="46.5 19.9 46.9 19.7 46.9 18.5 46.5 18.8 "/><polygon fill="#FAAE1B" points="46.7 11.8 46.9 12.2 46.9 10.4 46.9 10.4 46.5 9.6 46.5 12.6 "/><polygon fill="#FAAE1B" points="46.6 20.7 46.7 20.7 46.5 21 46.5 22.2 46.9 21.7 46.9 19.7 "/><polygon fill="#FBAA1B" points="47.3 23.1 47.3 22.2 46.9 22.5 46.9 23.3 "/><polygon fill="#FBAA1B" points="47.3 18.3 46.9 18.5 46.9 19.7 46.9 19.7 46.9 19.7 46.9 21.7 47.3 21.1 47.3 18.2 "/><path fill="#FBAA1B" d="M47.1 12.6l0.1-0.1 0.1 1.3V7l-0.4 0v2l0.1 1.4 -0.1 0v1.7L47.1 12.6zM47 10.6l0 0.3L47 10.7 47 10.6z"/><polygon fill="#FBAA1B" points="46.9 16.5 47.3 15.9 47.3 14.3 46.9 14.9 "/><polygon fill="#FAA51D" points="47.8 22.8 47.8 21.9 47.3 22.2 47.3 23.1 "/><polygon fill="#FAA51D" points="47.4 14.2 47.3 14.3 47.3 15.9 47.5 15.7 47.6 16.7 47.8 16.7 47.3 18.2 47.3 21.1 47.8 20.5 47.8 10.5 47.5 7 47.3 7 47.3 13.8 "/><polygon fill="#F9A01F" points="48.2 19.9 48.2 18.7 47.8 19.2 47.9 19 48.2 17.8 48.2 15.1 48.2 15.1 48.2 14.8 48.2 14.7 48.2 14.6 48.2 14.6 47.8 10.5 47.8 20.5 "/><polygon fill="#F9A01F" points="48.2 22.5 48.2 21.6 47.8 21.9 47.8 22.8 "/><polygon fill="#F99B1F" points="48.7 19.3 48.7 18.1 48.2 18.7 48.2 19.9 "/><polygon fill="#F99B1F" points="48.7 22.2 48.7 21.4 48.2 21.6 48.2 22.5 "/><polygon fill="#F99B1F" points="48.7 16.3 48.7 13.5 48.2 15.1 48.2 17.8 "/><polygon fill="#F99B1F" points="48.3 14.7 48.2 14.6 48.2 14.7 "/><polygon fill="#F89621" points="49.1 18.7 49.1 17.5 48.7 18.1 48.7 19.3 "/><polygon fill="#F89621" points="49.1 22 49.1 21.5 48.9 21.2 48.7 21.4 48.7 22.2 "/><polygon fill="#F89621" points="49.1 14.7 49.1 12 48.7 13.5 48.7 16.3 "/><polygon fill="#F79221" points="49.3 21.8 49.1 21.5 49.1 22 "/><polygon fill="#F79221" points="49.5 13.2 49.5 11.4 49.3 11.4 49.1 12 49.1 14.7 "/><polygon fill="#F79221" points="49.5 18.2 49.5 16.9 49.1 17.5 49.1 18.7 "/><polygon fill="#F78C21" points="50 17.6 50 16.3 49.5 16.9 49.5 18.2 "/><polygon fill="#F78C21" points="50 11.6 50 11.6 49.5 11.4 49.5 13.2 "/><polygon fill="#F68720" points="50 11.6 50 11.6 50 11.6 "/><polygon fill="#F68720" points="50.4 17 50.4 16.6 50 16.3 50 16.3 50 17.6 "/><polygon fill="#F58220" points="50.6 16.7 50.4 16.6 50.4 17 "/><polygon fill="#FCB918" points="43.4 21.9 43.4 19.6 42.7 20.4 43.3 20.8 41.1 22.1 41.1 23.9 43.4 23.5 43.4 22.5 41.9 22.8 "/><polygon fill="#FCB918" points="42 29 42.1 28.3 41.1 28.1 41.1 28.9 "/><polygon fill="#FCB918" points="42.8 25 41.1 24.7 41.1 25.7 41.6 25.8 41.1 26 41.1 27.1 43.4 26.7 43.4 25.9 42.5 26.1 42.7 26 42.8 26 42.8 25.9 43.4 25.5 43.4 24.7 "/><polygon fill="#FCB918" points="42.8 3.9 43.4 5 43.4 3.6 "/><polygon fill="#FCB918" points="42.1 6.1 42.1 6.1 43.4 7.2 43.4 6.2 41.1 4.2 41.1 5.8 "/><polygon fill="#FCB918" points="41.4 8.7 41.1 8.4 41.1 9.7 41.4 10 41.9 9.6 43.2 12.2 43.4 12.1 43.4 10.4 41.1 5.9 41.1 8.1 "/><polygon fill="#FCB918" points="46.1 26.1 46.1 25.4 43.4 25.9 43.4 26.7 "/><path fill="#FCB918" d="M43.4 7.2l0.4 3.9 -0.4-0.7v1.8l0.4-0.2 0.3 3 0.7-0.1L44 17.8l0.6 0.2 -1.2 1.6v2.3l2.7-1.7V19L44 20.3l2.1-2.7V16l-0.9 1.2 0.9-3.2V8.8l-2.6-5.3 -0.1 0V5l1.1 2.1 -0.1-0.1 0-0.1 -0.1 0 -0.9-0.8L43.4 7.2 43.4 7.2zM45.2 8.9L45.2 8.9l0.8 1.6L45 14.2l-0.6-6L45.2 8.9z"/><polygon fill="#FCB918" points="46.1 22.7 46.1 21.5 45.7 22.1 43.4 22.5 43.4 23.5 44.8 23.2 44.2 24 44.3 24.1 43.4 24.7 43.4 25.5 46.1 23.8 46.1 23 45.8 23.2 45.9 23 46 23 46 22.9 "/><rect x="36.8" y="27.1" fill="#FFD78B" width="0" height="0.9"/><polygon fill="#FFD78B" points="36.8 5.8 36.8 3.3 36.8 3.3 36.8 5.8 "/><polygon fill="#FFD78B" points="36.8 30.1 36.8 29.3 36.8 29.3 36.8 30.1 "/><rect x="36.8" y="23.9" fill="#FFD78B" width="0" height="1"/><polygon fill="#FFD78B" points="36.8 26.5 36.8 25.3 36.8 25.3 36.8 26.5 "/><polygon fill="#FFD78B" points="36.8 6.6 36.8 7.7 36.8 7.7 36.8 6.6 "/><polygon fill="#FFD586" points="37.1 6 37.1 4.7 37 4.6 37.1 4.6 37.1 3.4 36.8 3.3 36.8 5.8 "/><polygon fill="#FFD586" points="36.8 27.1 36.8 28 37.1 28.1 37.1 27.1 "/><polygon fill="#FFD586" points="36.8 23.9 36.8 24.9 37.1 24.9 37.1 23.9 "/><polygon fill="#FFD586" points="37.1 26.6 37.1 25.5 36.8 25.3 36.8 26.5 "/><polygon fill="#FFD586" points="36.8 30.1 37.1 29.7 37.1 29.4 36.8 29.3 36.8 30.1 "/><polygon fill="#FFD586" points="36.8 6.6 36.8 7.7 37.1 7.8 37.1 6.7 "/><polygon fill="#FFD380" points="37.1 27.1 37.1 28.1 37.3 28.1 37.3 27 "/><polygon fill="#FFD380" points="37.1 6.7 37.1 7.8 37.3 7.9 37.3 6.8 "/><polygon fill="#FFD380" points="37.3 26.8 37.3 25.6 37.1 25.5 37.1 26.6 "/><polygon fill="#FFD380" points="37.1 23.9 37.1 24.9 37.3 25 37.3 24 "/><polygon fill="#FFD380" points="37.3 4.6 37.3 3.5 37.1 3.4 37.1 4.6 "/><polygon fill="#FFD380" points="37.3 4.9 37.1 4.7 37.1 6 37.3 6.3 "/><polygon fill="#FFD380" points="37.2 29.5 37.1 29.4 37.1 29.7 "/><polygon fill="#FFD17A" points="37.3 26.8 37.6 26.9 37.6 25.8 37.3 25.6 "/><polygon fill="#FFD17A" points="37.3 6.8 37.3 7.9 37.6 8 37.6 6.9 "/><polygon fill="#FFD17A" points="37.6 4.6 37.6 3.6 37.3 3.5 37.3 4.6 "/><polygon fill="#FFD17A" points="37.3 4.9 37.3 6.3 37.6 6.5 37.6 5.2 "/><polygon fill="#FFD17A" points="37.3 27 37.3 28.1 37.6 28.2 37.6 27 "/><polygon fill="#FFD17A" points="37.3 24 37.3 25 37.6 25 37.6 24 "/><polygon fill="#FFD076" points="37.6 25.8 37.6 26.9 37.6 27 37.6 27 37.6 28.2 37.8 28.2 37.8 25.9 "/><polygon fill="#FFD076" points="37.6 6.9 37.6 8 37.8 8.1 37.8 7 "/><polygon fill="#FFD076" points="37.6 5.2 37.6 6.5 37.8 6.7 37.8 5.4 "/><polygon fill="#FFD076" points="37.8 4.6 37.8 3.7 37.6 3.6 37.6 4.6 "/><polygon fill="#FFD076" points="37.6 24 37.6 25 37.8 25.1 37.8 24.1 "/><polygon fill="#FFCF70" points="38.1 4.6 38.1 3.8 37.8 3.7 37.8 4.6 "/><polygon fill="#FFCF70" points="37.8 24.1 37.8 25.1 38.1 25.1 38.1 24.1 "/><polygon fill="#FFCF70" points="38.1 23.5 38.1 23.6 38.1 23.5 "/><polygon fill="#FFCF70" points="37.8 7 37.8 8.1 38.1 8.2 38.1 7.1 "/><polygon fill="#FFCF70" points="38.1 2.4 38.1 2.4 38.1 2.3 "/><polygon fill="#FFCF70" points="37.8 5.4 37.8 6.7 38.1 7 38.1 5.6 "/><polygon fill="#FFCF70" points="37.8 25.9 37.8 28.2 38.1 28.3 38.1 26.1 "/><polygon fill="#FFCC69" points="38.1 2.3 38.1 2.4 38.4 2.6 38.4 2.1 "/><polygon fill="#FFCC69" points="38.1 23.5 38.1 23.6 38.2 24.1 38.1 24.1 38.1 25.1 38.4 25.2 38.4 23.4 "/><polygon fill="#FFCC69" points="38.2 4.6 38.4 4.7 38.4 3.9 38.1 3.8 38.1 4.6 "/><polygon fill="#FFCC69" points="38.1 26.1 38.1 28.3 38.4 28.3 38.4 26.3 "/><polygon fill="#FFCC69" points="38.1 7.1 38.1 8.2 38.4 8.3 38.4 7.2 "/><polygon fill="#FFCC69" points="38.1 5.6 38.1 7 38.4 7.2 38.4 5.9 "/><polygon fill="#FFCA63" points="38.4 5.9 38.4 7.2 38.4 7.3 38.4 7.2 38.4 8.3 38.6 8.4 38.6 6.1 "/><polygon fill="#FFCA63" points="38.6 4.8 38.6 4 38.4 3.9 38.4 4.7 "/><polygon fill="#FFCA63" points="38.4 23.4 38.4 25.2 38.6 25.2 38.6 23.4 "/><polygon fill="#FFCA63" points="38.6 1.8 38.4 2.1 38.4 2.6 38.6 2.9 38.6 1.9 "/><polygon fill="#FFCA63" points="38.4 26.3 38.4 28.3 38.6 28.4 38.6 27.6 38.4 27.6 38.6 27.5 38.6 27.6 38.6 26.4 "/><polygon fill="#FFC95B" points="38.6 26.4 38.6 27.6 38.7 27.6 38.7 27.5 38.9 27.5 38.9 26.6 "/><polygon fill="#FFC95B" points="38.6 6.1 38.6 8.4 38.9 8.5 38.9 6.3 "/><polygon fill="#FFC95B" points="38.6 23.4 38.6 25.2 38.9 25.3 38.9 23.3 "/><polygon fill="#FFC95B" points="38.9 4.9 38.9 4.1 38.6 4 38.6 4.8 "/><polygon fill="#FFC95B" points="38.6 1.9 38.6 2.9 38.9 3.1 38.9 2.1 "/><polygon fill="#FFC95B" points="38.9 28.4 38.9 27.7 38.6 27.6 38.6 28.4 "/><polygon fill="#FFC655" points="39.1 5 39.1 4.2 38.9 4.1 38.9 4.9 "/><polygon fill="#FFC655" points="39.1 28.5 39.1 27.7 38.9 27.7 38.9 28.4 "/><polygon fill="#FFC655" points="38.9 23.3 38.9 25.3 39.1 25.3 39.1 24.3 39 24.3 39.1 24.3 39.1 23.3 "/><polygon fill="#FFC655" points="38.9 2.1 38.9 3.1 39.1 3.3 39.1 2.3 "/><polygon fill="#FFC655" points="39.1 26.7 38.9 26.6 38.9 27.5 39.1 27.4 39.1 26.7 "/><polygon fill="#FFC655" points="38.9 6.3 38.9 8.5 39 8.5 39.1 8.1 39.1 6.6 "/><polygon fill="#FFC54F" points="39.1 6.6 39.1 8.1 39.2 7.9 39.4 8.1 39.4 6.8 "/><polygon fill="#FFC54F" points="39.1 2.3 39.1 3.3 39.4 3.6 39.4 2.6 "/><polygon fill="#FFC54F" points="39.4 28.5 39.4 27.8 39.1 27.7 39.1 28.5 "/><polygon fill="#FFC54F" points="39.1 26.7 39.1 27.4 39.4 27.4 39.4 26.6 "/><polygon fill="#FFC54F" points="39.4 25.3 39.4 24.4 39.1 24.3 39.1 25.3 "/><polygon fill="#FFC54F" points="39.4 5.1 39.4 4.3 39.1 4.2 39.1 5 "/><polygon fill="#FFC54F" points="39.1 23.3 39.1 24.3 39.4 24.2 39.4 23.2 "/><polygon fill="#FEC445" points="39.6 5.2 39.6 4.4 39.4 4.3 39.4 5.1 "/><polygon fill="#FEC445" points="39.4 2.6 39.4 3.6 39.6 3.8 39.6 2.8 "/><polygon fill="#FEC445" points="39.6 25.4 39.6 24.4 39.4 24.4 39.4 25.3 "/><polygon fill="#FEC445" points="39.4 6.8 39.4 8.1 39.6 8.3 39.6 7 "/><polygon fill="#FEC445" points="39.4 23.2 39.4 24.2 39.6 24.2 39.6 23.2 "/><polygon fill="#FEC445" points="39.6 28.6 39.6 27.8 39.4 27.8 39.4 28.5 "/><polygon fill="#FEC445" points="39.4 26.6 39.4 27.4 39.6 27.4 39.6 26.6 "/><polygon fill="#FDC13D" points="39.6 7 39.6 8.3 39.9 8.6 39.9 7.2 "/><polygon fill="#FDC13D" points="39.7 5.2 39.9 5.1 39.9 4.5 39.6 4.4 39.6 5.2 "/><polygon fill="#FDC13D" points="39.7 5.2 39.9 5.6 39.9 5.1 "/><polygon fill="#FDC13D" points="39.6 26.6 39.6 27.4 39.9 27.3 39.9 26.5 "/><polygon fill="#FDC13D" points="39.6 2.8 39.6 3.8 39.9 4 39.9 3 "/><polygon fill="#FDC13D" points="39.9 28.6 39.9 27.9 39.6 27.8 39.6 28.6 "/><polygon fill="#FDC13D" points="39.9 25.4 39.9 24.4 39.6 24.4 39.6 25.4 "/><polygon fill="#FDC13D" points="39.6 23.2 39.6 24.2 39.9 24.1 39.9 23.1 "/><polygon fill="#FEBF35" points="39.9 26.5 39.9 27.3 40.1 27.3 40.1 26.5 "/><polygon fill="#FEBF35" points="39.9 7.2 39.9 8.6 40.1 8.8 40.1 7.5 "/><polygon fill="#FEBF35" points="40.1 28.7 40.1 27.9 39.9 27.9 39.9 28.6 "/><polygon fill="#FEBF35" points="39.9 23.1 39.9 24.1 40.1 24.1 40.1 23.1 "/><polygon fill="#FEBF35" points="40.1 25.5 40.1 24.5 39.9 24.4 39.9 25.4 "/><polygon fill="#FEBF35" points="39.9 3 39.9 4 40.1 4.3 40.1 3.3 "/><polygon fill="#FEBF35" points="40.1 5 40.1 4.6 39.9 4.5 39.9 5.1 "/><polygon fill="#FEBF35" points="39.9 5.1 39.9 5.6 40.1 6.1 40.1 5 "/><polygon fill="#FEBE2E" points="40.1 26.5 40.1 27.3 40.4 27.2 40.4 26.5 "/><polygon fill="#FEBE2E" points="40.1 7.5 40.1 8.8 40.4 9 40.4 7.7 "/><polygon fill="#FEBE2E" points="40.4 25.5 40.4 24.5 40.1 24.5 40.1 25.5 "/><polygon fill="#FEBE2E" points="40.1 3.3 40.1 4.3 40.4 4.5 40.4 3.5 "/><polygon fill="#FEBE2E" points="40.1 23.1 40.1 24.1 40.4 24 40.4 23 "/><polygon fill="#FEBE2E" points="40.1 6.1 40.4 6.6 40.4 4.8 40.1 5 "/><polygon fill="#FEBE2E" points="40.4 4.8 40.4 4.7 40.1 4.6 40.1 5 "/><polygon fill="#FEBE2E" points="40.4 28.7 40.4 28 40.1 27.9 40.1 28.7 "/><polygon fill="#FEBC25" points="40.4 23 40.4 24 40.6 24 40.6 23 "/><polygon fill="#FEBC25" points="40.6 25.6 40.6 24.6 40.4 24.5 40.4 25.5 "/><polygon fill="#FEBC25" points="40.6 28.8 40.6 28 40.4 28 40.4 28.7 "/><polygon fill="#FEBC25" points="40.4 7.7 40.4 9 40.6 9.3 40.6 7.9 "/><polygon fill="#FEBC25" points="40.4 3.5 40.4 4.5 40.6 4.7 40.6 3.7 "/><polygon fill="#FEBC25" points="40.6 4.8 40.4 4.8 40.4 6.6 40.6 7.1 40.6 4.8 40.4 4.7 40.4 4.8 "/><polygon fill="#FEBC25" points="40.4 26.5 40.4 27.2 40.6 27.2 40.6 26.4 "/><polygon fill="#FCBA1D" points="40.9 28.8 40.9 28 40.6 28 40.6 28.8 "/><polygon fill="#FCBA1D" points="40.6 7.1 40.9 7.6 40.9 4 40.6 3.7 40.6 4.7 40.7 4.8 40.6 4.8 "/><polygon fill="#FCBA1D" points="40.9 25.6 40.9 24.6 40.6 24.6 40.6 25.6 "/><polygon fill="#FCBA1D" points="40.7 26.3 40.8 26.4 40.6 26.4 40.6 27.2 40.9 27.1 40.9 26.2 "/><polygon fill="#FCBA1D" points="40.6 23 40.6 24 40.9 23.9 40.9 23 "/><polygon fill="#FCBA1D" points="40.7 22.4 40.9 22.7 40.9 22.2 "/><polygon fill="#FCBA1D" points="40.6 7.9 40.6 9.3 40.9 9.5 40.9 8.2 "/><polygon fill="#FCB918" points="40.9 25.6 41.1 25.7 41.1 24.7 40.9 24.6 "/><polygon fill="#FCB918" points="40.9 22.7 41 22.9 40.9 23 40.9 23.9 41.1 23.9 41.1 22.1 40.9 22.2 "/><polygon fill="#FCB918" points="40.9 26.2 40.9 27.1 41.1 27.1 41.1 26 "/><polygon fill="#FCB918" points="41.1 28.9 41.1 28.1 40.9 28 40.9 28.8 "/><polygon fill="#FCB918" points="40.9 8.2 40.9 9.5 41.1 9.7 41.1 8.4 "/><polygon fill="#FCB918" points="40.9 7.6 41.1 8.1 41.1 5.9 41 5.7 41.1 5.8 41.1 4.2 40.9 4 "/><polygon fill="#FCBA1D" points="32 29.1 32 28.5 31.9 28.4 31.9 29.2 "/><polygon fill="#FCBA1D" points="31.9 26.2 31.9 27.1 32 27.1 32 26.2 "/><rect x="31.9" y="7" fill="#FCBA1D" width="0.1" height="1"/><polygon fill="#FCBA1D" points="31.9 8.2 31.9 9.3 32 9.2 32 8.2 "/><polygon fill="#FCBA1D" points="32 22.9 31.9 22.8 31.9 24.5 32 24.5 "/><polygon fill="#FCBA1D" points="32 5.8 32 4.8 31.9 4.9 31.9 4.9 31.9 5.8 "/><rect x="31.9" y="3.9" fill="#FCBA1D" width="0.1" height="0.7"/><rect x="32" y="3.9" fill="#FEBC25" width="0.3" height="0.7"/><polygon fill="#FEBC25" points="32 8.2 32 9.2 32.2 9.1 32.2 8.1 "/><polygon fill="#FEBC25" points="32.2 23.2 32 22.9 32 24.5 32.2 24.9 32.2 23.1 "/><polygon fill="#FEBC25" points="32 26.2 32 27.1 32.2 27.3 32.2 26.4 "/><rect x="32" y="7" fill="#FEBC25" width="0.3" height="1"/><polygon fill="#FEBC25" points="32.2 5.9 32.2 4.7 32.1 4.8 32 4.8 32 4.8 32 5.8 "/><polygon fill="#FEBC25" points="32.2 28.9 32.2 28.9 32 28.5 32 29.1 "/><polygon fill="#FEBE2E" points="32.5 22.6 32.2 23.1 32.2 24.9 32.5 25.3 32.5 22.7 "/><polygon fill="#FEBE2E" points="32.2 26.4 32.2 27.3 32.5 27.5 32.5 26.6 "/><polygon fill="#FEBE2E" points="32.5 6 32.5 3.9 32.2 3.9 32.2 4.6 32.5 4.6 32.2 4.7 32.2 5.9 "/><polygon fill="#FEBE2E" points="32.3 28.9 32.2 28.9 32.2 28.9 "/><polygon fill="#FEBE2E" points="32.2 7 32.2 8 32.5 8 32.2 8.1 32.2 9.1 32.5 9 32.5 7 "/><polygon fill="#FEBF35" points="32.8 6.1 32.8 3.9 32.5 3.9 32.5 6 "/><polygon fill="#FEBF35" points="32.6 26.5 32.6 26.6 32.5 26.6 32.5 27.5 32.8 27.6 32.8 26.5 "/><polygon fill="#FEBF35" points="32.5 22.7 32.5 25.3 32.8 25.7 32.8 24.1 32.7 23.9 32.8 24 32.8 22.8 "/><polygon fill="#FEBF35" points="32.5 7 32.5 9 32.8 8.9 32.8 7 "/><polygon fill="#FDC13D" points="32.8 26.5 32.8 27.6 33.1 27.8 33.1 26.6 "/><polygon fill="#FDC13D" points="32.8 7 32.8 8.9 33.1 8.8 33.1 8.1 33.1 8 33.1 8 33.1 7 "/><polygon fill="#FDC13D" points="33 2.6 33.1 2.6 33.1 2.5 "/><polygon fill="#FDC13D" points="33.1 6.2 33.1 3.9 32.8 3.9 32.8 6.1 "/><polygon fill="#FDC13D" points="32.8 22.8 32.8 24 33.1 24.2 33.1 23 "/><polygon fill="#FDC13D" points="33.1 26.1 33.1 24.4 32.8 24.1 32.8 25.7 "/><polygon fill="#FEC445" points="33.4 8.7 33.1 8.1 33.1 8.8 "/><polygon fill="#FEC445" points="33.4 6.4 33.4 5.3 33.1 5.2 33.4 5.1 33.4 3.9 33.1 3.9 33.1 6.2 "/><polygon fill="#FEC445" points="33.3 1.9 33.1 2.5 33.1 2.6 33.4 2.8 33.4 2 "/><polygon fill="#FEC445" points="33.1 26.1 33.4 26.4 33.4 24.8 33.1 24.4 "/><rect x="33.1" y="7" fill="#FEC445" width="0.3" height="1"/><polygon fill="#FEC445" points="33.1 26.6 33.1 27.8 33.4 28 33.4 26.6 "/><polygon fill="#FEC445" points="33.1 23 33.1 24.2 33.4 24.3 33.4 23.2 "/><polygon fill="#FFC54F" points="33.4 2 33.4 2.8 33.7 2.9 33.7 2.1 "/><rect x="33.4" y="7" fill="#FFC54F" width="0.3" height="1"/><polygon fill="#FFC54F" points="33.7 5 33.7 3.9 33.4 3.9 33.4 5.1 "/><polygon fill="#FFC54F" points="33.7 5.4 33.4 5.3 33.4 6.4 33.7 6.5 "/><polygon fill="#FFC54F" points="33.4 23.2 33.4 24.3 33.7 24.5 33.7 23.4 "/><polygon fill="#FFC54F" points="33.4 24.8 33.4 26.4 33.6 26.7 33.4 26.6 33.4 28 33.7 28.2 33.7 25.2 "/><polygon fill="#FFC655" points="33.7 23.4 33.7 24.5 34 24.7 34 23.5 "/><rect x="33.7" y="7" fill="#FFC655" width="0.3" height="1"/><polygon fill="#FFC655" points="33.7 25.2 33.7 28.2 34 28.4 34 25.6 "/><polygon fill="#FFC655" points="33.7 5.4 33.7 6.5 34 6.6 34 5.5 "/><polygon fill="#FFC655" points="33.7 2.1 33.7 2.9 34 3 34 2.2 "/><polygon fill="#FFC655" points="34 4.9 34 4.6 34 4.6 34 4.6 34 3.9 33.7 3.9 33.7 5 "/><rect x="34" y="7" fill="#FFC95B" width="0.3" height="1"/><rect x="34" y="3.9" fill="#FFC95B" width="0.3" height="0.7"/><polygon fill="#FFC95B" points="34 4.6 34 4.9 34 4.8 "/><polygon fill="#FFC95B" points="34 2.2 34 3 34.2 3.1 34.2 2.3 "/><polygon fill="#FFC95B" points="34 23.5 34 24.7 34.2 24.9 34.2 23.7 "/><polygon fill="#FFC95B" points="34 5.5 34 6.6 34.2 6.7 34.2 5.6 "/><polygon fill="#FFC95B" points="34 25.6 34 28.4 34.2 28.5 34.2 27.7 34 27.5 34.2 27.6 34.2 27.6 34.2 26 "/><rect x="34.2" y="3.9" fill="#FFCA63" width="0.3" height="0.7"/><polygon fill="#FFCA63" points="34.2 5.6 34.2 6.7 34.5 6.8 34.5 5.8 "/><polygon fill="#FFCA63" points="34.2 23.7 34.2 24.9 34.5 25 34.5 23.9 "/><polygon fill="#FFCA63" points="34.2 2.3 34.2 3.1 34.5 3.2 34.5 2.4 "/><polygon fill="#FFCA63" points="34.2 26 34.2 27.6 34.3 27.6 34.4 27.6 34.5 27.6 34.5 26.3 "/><rect x="34.2" y="7" fill="#FFCA63" width="0.3" height="1"/><polygon fill="#FFCA63" points="34.5 28.7 34.5 27.8 34.2 27.7 34.2 28.5 "/><polygon fill="#FFCC69" points="34.8 28.9 34.8 28 34.5 27.8 34.5 28.7 "/><rect x="34.5" y="7" fill="#FFCC69" width="0.3" height="1"/><polygon fill="#FFCC69" points="34.5 23.9 34.5 25 34.8 25.2 34.8 24.1 "/><polygon fill="#FFCC69" points="34.5 2.4 34.5 3.2 34.8 3.3 34.8 2.5 "/><polygon fill="#FFCC69" points="34.5 26.3 34.5 27.6 34.8 27.7 34.8 26.7 "/><rect x="34.5" y="3.9" fill="#FFCC69" width="0.3" height="0.7"/><polygon fill="#FFCC69" points="34.5 5.8 34.5 6.8 34.8 6.9 34.8 5.9 "/><polygon fill="#FFCF70" points="35 26.9 34.8 26.7 34.8 27.7 35.1 27.7 35.1 27 "/><polygon fill="#FFCF70" points="34.8 5.9 34.8 6.9 35.1 7 34.8 7 34.8 8 35.1 8 35.1 6 "/><rect x="34.8" y="3.9" fill="#FFCF70" width="0.3" height="0.7"/><polygon fill="#FFCF70" points="35.1 29.1 35.1 28.2 34.8 28 34.8 28.9 "/><polygon fill="#FFCF70" points="34.8 2.5 34.8 3.3 35.1 3.4 35.1 2.6 "/><polygon fill="#FFCF70" points="35.1 24.2 34.8 24.1 34.8 25.2 35.1 25.4 35.1 24.1 "/><rect x="35.1" y="3.9" fill="#FFD076" width="0.3" height="0.7"/><polygon fill="#FFD076" points="35.2 23.6 35.1 24.1 35.1 25.4 35.4 25.6 35.4 23.6 "/><polygon fill="#FFD076" points="35.1 27 35.1 27.7 35.4 27.8 35.4 27 "/><polygon fill="#FFD076" points="35.1 2.6 35.1 3.4 35.4 3.5 35.4 2.7 "/><polygon fill="#FFD076" points="35.1 6 35.1 8 35.4 8 35.4 6.1 "/><polygon fill="#FFD076" points="35.4 29.2 35.4 28.4 35.1 28.2 35.1 29.1 "/><polygon fill="#FFD17A" points="35.7 29.4 35.7 28.5 35.4 28.4 35.4 29.2 "/><polygon fill="#FFD17A" points="35.4 2.7 35.4 3.5 35.7 3.6 35.7 2.9 "/><polygon fill="#FFD17A" points="35.7 4.8 35.7 4.6 35.6 4.7 "/><polygon fill="#FFD17A" points="35.4 23.6 35.4 25.6 35.7 25.8 35.7 23.7 "/><polygon fill="#FFD17A" points="35.4 6.1 35.4 8 35.7 8 35.7 6.2 "/><polygon fill="#FFD17A" points="35.4 27 35.4 27.8 35.7 27.8 35.7 27.1 "/><rect x="35.4" y="3.9" fill="#FFD17A" width="0.3" height="0.7"/><polygon fill="#FFD380" points="35.7 27.1 35.7 27.8 36 27.9 36 27.1 "/><polygon fill="#FFD380" points="35.7 23.7 35.7 25.8 36 25.9 36 24.8 35.8 24.7 36 24.7 36 23.7 "/><polygon fill="#FFD380" points="35.7 2.9 35.7 3.6 36 3.8 36 3 "/><polygon fill="#FFD380" points="35.7 6.2 35.7 8 36 8 36 6.3 "/><polygon fill="#FFD380" points="36 29.6 36 28.7 35.7 28.5 35.7 29.4 "/><polygon fill="#FFD380" points="35.7 4.6 35.7 4.6 35.7 4.8 36 5 36 3.9 35.7 3.9 35.7 4.6 "/><polygon fill="#FFD586" points="36 3 36 3.8 36.3 3.9 36.3 3.1 "/><polygon fill="#FFD586" points="36.3 29.8 36.3 28.9 36 28.7 36 29.6 "/><polygon fill="#FFD586" points="36.3 5.3 36.3 3.9 36 3.9 36 5 "/><polygon fill="#FFD586" points="36 6.3 36 8 36.2 8 36.2 7.5 36.3 7.5 36.3 6.4 "/><polygon fill="#FFD586" points="36 27.1 36 27.9 36.3 27.9 36.3 27.2 "/><polygon fill="#FFD586" points="36.3 26.1 36.3 25 36 24.8 36 25.9 "/><polygon fill="#FFD586" points="36 23.7 36 24.7 36.3 24.8 36.3 23.8 "/><polygon fill="#FFD78B" points="36.5 5.5 36.5 3.2 36.3 3.1 36.3 3.9 36.3 3.9 36.3 3.9 36.3 5.3 "/><polygon fill="#FFD78B" points="36.5 26.3 36.5 25.1 36.3 25 36.3 26.1 "/><polygon fill="#FFD78B" points="36.5 30 36.5 29.1 36.3 28.9 36.3 29.8 "/><polygon fill="#FFD78B" points="36.3 27.2 36.3 27.9 36.5 28 36.5 27.2 "/><polygon fill="#FFD78B" points="36.3 6.4 36.3 7.5 36.5 7.6 36.5 6.5 "/><polygon fill="#FFD78B" points="36.3 23.8 36.3 24.8 36.5 24.8 36.5 23.8 "/><polygon fill="#FFDA91" points="36.8 30.1 36.8 29.3 36.5 29.1 36.5 30 "/><polygon fill="#FFDA91" points="36.8 26.5 36.8 25.3 36.5 25.1 36.5 26.3 "/><polygon fill="#FFDA91" points="36.8 5.8 36.8 3.3 36.5 3.2 36.5 5.5 "/><polygon fill="#FFDA91" points="36.5 23.8 36.5 24.8 36.8 24.9 36.8 23.9 "/><polygon fill="#FFDA91" points="36.5 6.5 36.5 7.6 36.8 7.7 36.8 6.6 "/><polygon fill="#FFDA91" points="36.7 27.1 36.7 27.3 36.5 27.2 36.5 28 36.8 28 36.8 27.1 "/><polygon fill="#FCB918" points="29.2 9.3 26.9 10.1 26.9 11.2 29.2 10.3 "/><polygon fill="#FCB918" points="29 24.4 29 24.5 27.9 23.1 28.2 19.3 29.2 22.7 29.2 19.1 28.9 18.3 28.3 18.4 28.6 15.4 27.9 15.4 29.2 12.9 29.2 12.6 28.6 12.4 29.2 11.9 29.2 10.6 26.9 12.6 26.9 13.9 28.1 12.8 26.9 15.2 26.9 17.4 27.5 16.3 27 21.9 26.9 21.8 26.9 23.2 27 23.2 29.2 26 29.2 24.5 "/><polygon fill="#FCB918" points="27.1 26.7 27.8 26.5 26.9 23.6 26.9 26.3 "/><rect x="28.6" y="3.9" fill="#FCB918" width="0.6" height="0.7"/><polygon fill="#FCB918" points="27.2 9.4 27 9.3 28.5 8 29.2 8 29.2 5.9 26.9 6.8 26.9 7.6 28.4 7.1 26.9 8.4 26.9 9.9 "/><polygon fill="#FCB918" points="29.2 12.6 29.2 12.9 29.3 12.7 "/><polygon fill="#FCB918" points="30.4 9.8 31.9 9.3 31.9 8.2 29.2 9.3 29.2 10.3 29.6 10.1 29.2 10.6 29.2 11.9 30.9 10.3 "/><polygon fill="#FCB918" points="31.9 8 31.9 7 29.5 7 30.1 6.5 30.1 6.4 31.8 5.7 31.9 5.8 31.9 4.9 29.2 5.9 29.2 8 "/><rect x="29.2" y="3.9" fill="#FCB918" width="2.7" height="0.7"/><path fill="#FCB918" d="M31 25.7L30 21.9l1.9 2.6v-1.6l-1.6-2.1 -0.6 0.4 -0.6-2.1v3.6l0.6 2.2 -0.6-0.4V26l2.5 3.3 0.2-0.2v-0.8l-1.7-2.3 0.1 0 1.6 1v-0.9L31 25.7zM30 25.9L30 25.9l0.1 0.2L30 25.9z"/><polygon fill="#F58220" points="22.2 17.7 22.4 17.8 22.4 17.4 "/><polygon fill="#F68720" points="22.5 12.4 22.8 12.8 22.8 12.1 "/><polygon fill="#F68720" points="22.4 17.4 22.4 17.8 22.8 18 22.8 16.5 "/><polygon fill="#F78C21" points="22.8 12.1 22.8 12.8 23 13 23.2 12.8 23.2 11.8 "/><polygon fill="#F78C21" points="22.8 16.5 22.8 18 22.9 18 23.2 17.4 23.2 15.7 "/><polygon fill="#F79221" points="23.2 15.7 23.2 17.4 23.6 16.5 23.6 14.9 "/><polygon fill="#F79221" points="23.2 11.8 23.2 12.8 23.6 12.4 23.6 11.4 "/><polygon fill="#F89621" points="23.6 11.4 23.6 12.4 24 12 24 11 "/><polygon fill="#F89621" points="23.6 14.9 23.6 16.5 24 15.7 24 14 "/><polygon fill="#F89621" points="23.8 22.7 24 22.7 24 19.8 "/><polygon fill="#F99B1F" points="24 19.8 24 22.7 24.5 22.7 24.5 15.4 "/><polygon fill="#F99B1F" points="24 11 24 12 24.5 11.6 24.5 10.6 "/><polygon fill="#F99B1F" points="24 14 24 15.7 24.4 14.9 24.5 14.9 24.5 13.2 "/><path fill="#F9A01F" d="M24.5 13.2v1.7l0 0 0 0.4v7.4l0.1 0 0.3-3.8 0 0v-6.6L24.5 13.2zM24.5 14.8L24.5 14.8 24.5 14.8 24.5 14.8z"/><polygon fill="#F9A01F" points="24.5 10.6 24.5 11.6 24.9 11.3 24.9 10.3 "/><polygon fill="#F9A01F" points="24.8 7.6 24.9 7.9 24.9 7.6 "/><polygon fill="#FAA51D" points="24.9 10.3 24.9 11.3 25.3 10.9 25.3 9.9 "/><polygon fill="#FAA51D" points="25.1 17.2 25 17.2 25.2 15.5 25.3 15.4 25.3 11.5 24.9 12.4 24.9 19 24.9 19.2 24.9 19.3 25 19.3 25.3 20.5 25.3 17.7 "/><polygon fill="#FAA51D" points="24.9 7.6 24.9 7.9 25 8.3 25.3 8.2 25.3 7.4 "/><polygon fill="#FBAA1B" points="25.4 18.2 25.3 17.7 25.3 20.5 25.7 21.9 25.7 17.7 "/><polygon fill="#FBAA1B" points="25.3 7.4 25.3 8.2 25.7 8.1 25.7 7.3 "/><polygon fill="#FBAA1B" points="25.3 9.9 25.3 10.9 25.7 10.5 25.7 9.5 "/><polygon fill="#FBAA1B" points="25.7 15 25.7 13.7 25.3 14.1 25.4 13.1 25.3 13.1 25.7 12.4 25.7 10.6 25.7 10.6 25.7 10.7 25.3 11.5 25.3 15.4 "/><polygon fill="#FAAE1B" points="25.8 19.6 26.1 19.1 26.1 16.9 25.7 17.7 25.7 21.9 26.1 23.4 26.1 20.6 "/><polygon fill="#FAAE1B" points="26.1 13.4 25.7 13.7 25.7 15 26.1 14.7 "/><polygon fill="#FAAE1B" points="25.7 7.3 25.7 8.1 26.1 7.9 26.1 7.1 "/><polygon fill="#FAAE1B" points="26.1 11.5 26.1 9.1 25.7 9.5 25.7 10.5 25.9 10.4 25.8 10.6 25.7 10.6 25.7 12.4 "/><polygon fill="#FBB317" points="26.1 11.5 26.5 11.3 26.5 8.8 26.1 9.1 26.1 11.5 "/><polygon fill="#FBB317" points="26.5 14.3 26.5 13 26.1 13.4 26.1 14.7 "/><polygon fill="#FBB317" points="26.5 18.2 26.5 16 26.1 16.9 26.1 19.1 "/><polygon fill="#FBB317" points="26.1 7.1 26.1 7.9 26.5 7.8 26.5 7 "/><polygon fill="#FBB317" points="26.4 21.2 26.3 21.3 26.1 20.6 26.1 23.4 26.5 24.8 26.5 21.3 "/><polygon fill="#FCB918" points="26.5 7 26.5 7.8 26.9 7.6 26.9 6.8 "/><polygon fill="#FCB918" points="26.9 11.2 26.9 10.1 26.8 10.2 26.9 9.9 26.9 8.4 26.5 8.8 26.5 11.3 "/><polygon fill="#FCB918" points="26.5 21.3 26.5 24.8 26.9 26.3 26.9 23.6 26.7 22.8 26.9 23 26.9 23.2 26.9 23.2 26.9 21.8 "/><polygon fill="#FCB918" points="26.5 14.3 26.9 13.9 26.9 12.6 26.5 13 "/><polygon fill="#FCB918" points="26.5 18.2 26.9 17.4 26.9 15.2 26.5 16 "/><polygon fill="none" points="41.9 9.6 41.4 10 39.2 7.9 39 8.5 36.2 7.5 36.2 8 33.1 8 33.4 8.7 30.4 9.8 30.9 10.3 28.6 12.4 29.3 12.7 27.9 15.4 28.6 15.4 28.3 18.4 28.9 18.3 29.8 21.2 30.3 20.8 32.2 23.2 32.5 22.6 35.1 24.2 35.2 23.6 38.2 24.1 38.1 23.5 41 22.9 40.7 22.4 43.3 20.8 42.7 20.4 44.6 18 44 17.8 44.8 14.9 44.1 15 43.8 11.9 43.2 12.2 "/><polygon fill="none" points="33.1 5.2 38.4 7.3 35.6 4.7 35.7 4.6 34 4.6 34 4.8 "/><polygon fill="none" points="29.5 7 35.1 7 31.8 5.7 30.1 6.4 30.1 6.5 "/><polygon fill="none" points="26.8 10.2 32.5 8 28.5 8 27 9.3 27.2 9.4 "/><polygon fill="none" points="25.3 14.1 29.6 10.1 26.1 11.5 25.3 13.1 25.4 13.1 "/><polygon fill="none" points="24.5 14.9 24.5 14.8 24.5 14.8 "/><polygon fill="none" points="25.4 18.2 28.1 12.8 25.2 15.5 25 17.2 25.1 17.2 "/><polygon fill="none" points="27 21.9 27.5 16.3 25.8 19.6 26.3 21.3 26.4 21.2 "/><polygon fill="none" points="29.8 24.9 28.2 19.3 27.9 23.1 29 24.5 29 24.4 "/><polygon fill="none" points="30.1 26.1 30.1 26 30 25.9 "/><polygon fill="none" points="33.6 26.7 30 21.9 31 25.7 32.6 26.6 32.6 26.5 "/><polygon fill="none" points="37.6 27 32.7 23.9 35 26.9 36.7 27.3 36.7 27.1 "/><polygon fill="none" points="41.6 25.8 35.8 24.7 39.1 26.7 40.8 26.4 40.7 26.3 "/><polygon fill="none" points="44.8 23.2 39 24.3 42.8 25 44.3 24.1 44.2 24 "/><polygon fill="none" points="46.9 19.7 41.9 22.8 45.7 22.1 46.7 20.7 46.6 20.7 "/><polygon fill="none" points="47.5 15.7 44 20.3 47.3 18.3 47.8 16.7 47.6 16.7 "/><polygon fill="none" points="46.7 11.8 45.2 17.2 47.4 14.2 47.2 12.5 47.1 12.6 "/><polygon fill="none" points="47 10.6 47 10.7 47.1 10.8 "/><polygon fill="none" points="44.4 8.2 45 14.2 46.1 10.5 45.3 8.9 45.2 8.9 "/><polygon fill="none" points="44.3 7 44.3 7 44.3 7.1 44.4 7.2 42.8 3.9 43.5 3.6 46.9 10.4 47 10.5 46.7 7.1 47.5 7 48.2 14.6 48.3 14.7 48.2 14.8 48.2 15.1 49.3 11.4 50 11.6 47.9 19 47.8 19.2 50 16.3 50.6 16.7 46 22.9 46 23 45.9 23 45.8 23.2 48.9 21.2 49.3 21.8 42.8 25.9 42.8 26 42.7 26 42.5 26.1 46.2 25.4 46.3 26.1 38.7 27.5 38.7 27.6 38.6 27.5 38.4 27.6 42.1 28.3 42 29 34.4 27.6 34.3 27.6 34.2 27.6 34 27.5 37.2 29.5 36.8 30.1 30.2 26.1 30.1 26.1 32.3 28.9 31.7 29.3 27 23.2 26.9 23.2 26.9 23 26.7 22.8 27.8 26.5 27.1 26.7 25 19.3 24.9 19.3 24.9 19.2 24.9 19 24.5 22.7 23.8 22.7 24.5 15 24.4 14.9 22.9 18 22.2 17.7 25.7 10.7 25.7 10.6 25.8 10.6 25.9 10.4 23 13 22.5 12.4 28.4 7.1 25 8.3 24.8 7.6 31.9 4.9 32 4.8 32.1 4.8 32.5 4.6 28.6 4.6 28.6 3.9 36.3 3.9 33 2.6 33.3 1.9 40.7 4.8 38.1 2.4 38.6 1.8 "/><polygon fill="none" points="41.4 8.7 39.7 5.2 40.6 4.8 41 5.7 43.7 11.1 43.4 7.2 42.1 6.1 42.1 6.1 41 5.7 40.6 4.8 39.7 5.2 38.2 4.6 37 4.6 "/></svg>