<svg xmlns="http://www.w3.org/2000/svg" fill="currentColor" class="logo--small" version="1.1" viewBox="0 0 379.8 113" xml:space="preserve"><path d="M224.5 89.7H213V18.1h11.5v28.1c3.3-4.3 8.7-6 13.7-6 11.9 0 17.6 8.5 17.6 19.1v30.5h-11.5V61.2c0-5.9-2.7-10.7-9.9-10.7 -6.3 0-9.8 4.7-10 10.9V89.7zM278.6 62.1l12.4-1.9c2.8-0.4 3.6-1.8 3.6-3.5 0-4.1-2.8-7.3-9.1-7.3 -6 0-9.4 3.9-9.9 8.7L265 55.7c0.9-8.3 8.4-15.7 20.3-15.7 14.8 0 20.5 8.4 20.5 18v23.9c0 4.4 0.5 7.2 0.6 7.7h-10.7c-0.1-0.3-0.5-2.3-0.5-6.1 -2.3 3.7-7 7.6-14.8 7.6 -10.1 0-16.3-6.9-16.3-14.5C264 68 270.4 63.3 278.6 62.1zM294.5 69.7v-2.2l-12.6 1.9c-3.6 0.6-6.4 2.6-6.4 6.5 0 3.3 2.5 6.2 7 6.2C288.9 82.1 294.5 79.1 294.5 69.7zM321.2 17.1c4.2 0 7.5 3.4 7.5 7.5s-3.4 7.4-7.5 7.4c-4.1 0-7.4-3.3-7.4-7.4S317.2 17.1 321.2 17.1zM315.6 89.7V41.5H327v48.1H315.6zM348.4 89.7h-11.5V41.5h11.2v6.4c3.2-5.5 8.9-7.8 14.2-7.8 11.8 0 17.4 8.5 17.4 19.1v30.5h-11.5V61.2c0-5.9-2.7-10.7-9.9-10.7 -6.5 0-10 5-10 11.4V89.7zM196.1 64.9c-3 8-9.5 14.9-21.1 14.9 -12 0-23.2-8.7-23.2-25.1 0-17 11.6-25.4 23.1-25.4 11.1 0 18.1 6.5 20.9 13.8l9.6-5.5c-4.1-10.8-14.3-19.5-30.5-19.5 -18.2 0-35.3 13.7-35.3 36.6s16.5 36.5 35.4 36.5c16.6 0 26.9-9.8 30.9-20.6L196.1 64.9z"/><polygon points="98.8 33.7 86.8 40.7 103 50 103 82.7 74.7 99.1 46.4 82.7 46.4 50 62.7 40.6 60.4 39.3 50.6 33.7 34.3 43.1 34.3 89.7 74.7 113 115.1 89.7 115.1 43.1 "/><polygon points="40.4 0 0 23.3 0 69.9 16.3 79.3 26.1 73.7 28.3 72.4 12 63 12 30.2 40.4 13.9 68.7 30.2 68.7 63 52.5 72.3 64.5 79.3 80.7 69.9 80.7 23.3 "/></svg>