<svg xmlns="http://www.w3.org/2000/svg" version="1.1" x="0" y="0" viewBox="0 0 512 177.8" enable-background="new 0 0 512 177.846" xml:space="preserve"><rect x="227.8" y="66" fill="#4E8EF7" width="3.7" height="69.6"/><path fill="#4E8EF7" d="M283.7 64.3c-20.9 0-36.6 15.8-36.6 36.5 0 20.9 15.8 36.5 36.6 36.5 20.9 0 36.6-15.6 36.6-36.5C320.4 80.1 304.6 64.3 283.7 64.3zM283.7 133.9c-18.8 0-33-14.2-33-33.1 0-18.9 14.2-33.1 33-33.1 18.8 0 33 14.2 33 33.1C316.7 119.7 302.5 133.9 283.7 133.9zM389.8 71.3c-7.9-6.4-17.3-7-22.2-7 -11 0-23.2 5.1-27.6 15.1h-0.3V66h-3.7v69.6h3.7V95.6c0-17.5 10.8-27.8 28.2-27.8 10.5 0 16.1 3.4 19.7 6.6 5.3 4.7 8.5 12.5 8.5 24.6v36.8h3.7V98.9C399.9 86.4 396.7 77.1 389.8 71.3z"/><rect x="420.3" y="66" fill="#4E8EF7" width="3.7" height="69.6"/><path fill="#4E8EF7" d="M476.2 133.9c-17.7 0-33-13.4-33-33.1 0-9.5 3.9-18.6 9.6-23.8 7.2-6.4 13.7-9.3 23.5-9.3 13.7 0 25.7 7.6 30.5 20.9h4.1c-5.5-16.4-20.5-24.3-34.7-24.3 -21.1 0-36.6 16-36.6 36.6 0 21.7 16.4 36.4 36.6 36.4 16.5 0 29.7-9.5 34.5-23.6h-4.1C503.3 124.1 492 133.9 476.2 133.9z"/><circle fill="#4E8EF7" cx="229.6" cy="44.5" r="4"/><circle fill="#4E8EF7" cx="422.1" cy="44.5" r="4"/><circle fill="#4E8EF7" cx="90" cy="88.9" r="36.3"/><path fill="#4E8EF7" d="M164.1 27.3c0-6.9-5.6-12.5-12.5-12.5 -3.1 0-6 1.2-8.2 3.1C128.6 6.7 110.1 0 90 0 41 0 1.1 39.9 1.1 88.9c0 49 39.9 88.9 88.9 88.9s88.9-39.9 88.9-88.9c0-20-6.7-38.5-17.9-53.4C163 33.3 164.1 30.4 164.1 27.3zM90 174.9c-47.4 0-85.9-38.5-85.9-85.9S42.6 3 90 3c19.3 0 37.1 6.4 51.4 17.1 -1.4 2-2.3 4.5-2.3 7.2 0 6.9 5.6 12.5 12.5 12.5 2.7 0 5.2-0.9 7.2-2.3 10.7 14.3 17.1 32.2 17.1 51.4C176 136.3 137.4 174.9 90 174.9z"/></svg>