<?xml version="1.0" encoding="utf-8"?>
<!-- Generator: Adobe Illustrator 16.0.0, SVG Export Plug-In . SVG Version: 6.00 Build 0)  -->
<!DOCTYPE svg PUBLIC "-//W3C//DTD SVG 1.1//EN" "http://www.w3.org/Graphics/SVG/1.1/DTD/svg11.dtd">
<svg version="1.1" id="Layer_1" xmlns="http://www.w3.org/2000/svg" xmlns:xlink="http://www.w3.org/1999/xlink" x="0px" y="0px"
	  viewBox="0 0 359.606 126.3" enable-background="new 0 0 359.606 126.3" xml:space="preserve">
<path fill-rule="evenodd" clip-rule="evenodd" fill="#4B8BF8" d="M62.199,121.614c-31.048,0.011-57.388-24.502-59.07-54.972
	C1.337,34.173,24.195,6.784,56.091,3.433c8.455-0.887,16.852-0.116,24.956,2.77c4.057,1.445,5.729,3.727,4.526,6.593
	c-1.491,3.553-4.229,3.4-7.373,2.412C56.083,8.257,34.02,15.416,21.217,34.37C9.862,51.182,9.027,69.135,18.992,86.755
	c10.221,18.074,26.436,26.652,47.169,25.216c31.647-2.191,52.892-33.382,43.874-63.732c-0.343-1.155-0.744-2.301-0.977-3.478
	c-0.53-2.679,0.165-4.933,2.975-5.75c2.672-0.777,5,0.283,5.803,2.938c1.348,4.468,2.754,9.009,3.278,13.616
	C125.142,90.979,97.736,121.601,62.199,121.614z"/>
<path fill-rule="evenodd" clip-rule="evenodd" fill="#4B8BF8" d="M35.602,62.428c0.399-15.413,10.982-26.455,26.597-26.75
	c14.646-0.278,26.729,11.87,26.825,26.372c0.099,14.807-11.859,27.025-26.558,27.132C47.713,89.291,35.697,77.324,35.602,62.428z"/>
<path fill-rule="evenodd" clip-rule="evenodd" fill="#4B8BF8" d="M237.506,42.413c5.969-4.138,11.583-6.552,18.206-6.386
	c11.313,0.284,19.003,6.52,19.899,17.856c0.798,10.114,0.515,20.323,0.417,30.488c-0.012,1.083-0.206,2.508-1.45,3.007
	c-0.398,0.158-2.138,0.215-2.404,0.224c-8.157,0.243-8.159,0.243-8.166-7.97c-0.004-6.694,0.08-13.391-0.033-20.083
	c-0.111-6.667-2.521-10.731-6.822-11.971c-5.303-1.528-13.248,1.129-16.163,5.649c-0.729,1.131-0.938,2.758-0.953,4.163
	c-0.084,8.033-0.024,16.066-0.041,24.1c-0.012,6.075-0.05,6.096-5.921,6.104c-0.135,0-0.268,0-0.402,0
	c-5.576-0.003-5.795-0.183-5.812-5.949c-0.032-11.782-0.01-23.563-0.011-35.346c0-1.07,0.031-2.144-0.012-3.212
	c-0.101-2.533-0.712-5.375,3.02-5.84C234.241,36.823,237.537,36.755,237.506,42.413z"/>
<path fill-rule="evenodd" clip-rule="evenodd" fill="#4B8BF8" d="M168.619,62.255c0.015-14.553,11.276-26.182,25.358-26.186
	c14.333-0.003,25.513,11.604,25.466,26.442c-0.044,14.657-11.675,26.573-25.729,26.365
	C179.817,88.674,168.603,76.775,168.619,62.255z M180.002,62.137c-0.07,8.482,6.359,15.714,13.953,15.693
	c7.747-0.02,14.143-7.012,14.181-15.505c0.036-8.203-6.323-15.088-13.998-15.154C186.411,47.105,180.071,53.817,180.002,62.137z"/>
<path fill-rule="evenodd" clip-rule="evenodd" fill="#4B8BF8" d="M309.071,61.568c0.302-8.996,4.551-16.869,13.203-21.892
	c8.169-4.741,16.705-5.323,25.194-0.497c0.924,0.524,1.793,1.173,2.609,1.857c5.541,4.638,5.479,5.719,0.176,10.396
	c-1.893,1.67-3.179,1.712-5.11,0.057c-5.673-4.866-11.229-5.583-16.483-2.437c-5.669,3.394-8.412,10.073-6.998,17.034
	c1.24,6.104,6.08,10.741,12.312,11.606c4.734,0.655,8.81-1.028,11.907-4.481c3.25-3.625,5.275-0.935,7.686,0.921
	c2.751,2.12,1.545,4.049-0.009,6.157c-8.486,11.507-28.02,11.293-38.062-0.42C311.218,74.881,309.16,69.096,309.071,61.568z"/>
<path fill-rule="evenodd" clip-rule="evenodd" fill="#4B8BF8" d="M160.035,62.348c0,7.099-0.084,14.198,0.039,21.295
	c0.052,2.981-1.167,3.957-4.059,3.994c-8.059,0.102-8.059,0.195-8.062-7.735c-0.004-12.322-0.006-24.644-0.008-36.965
	c0-5.47,0.277-5.756,5.552-5.77c6.536-0.016,6.55-0.016,6.564,5.894c0.017,6.43,0.004,12.858,0.004,19.286
	C160.055,62.348,160.044,62.348,160.035,62.348z"/>
<path fill-rule="evenodd" clip-rule="evenodd" fill="#4B8BF8" d="M287.805,62.461c0.006-6.966,0.125-13.937-0.044-20.897
	c-0.083-3.373,1.308-4.662,4.524-4.442c1.333,0.091,2.678,0.009,4.018,0.027c2.436,0.031,3.6,1.117,3.589,3.709
	c-0.063,14.335-0.056,28.669-0.001,43.003c0.011,2.771-1.191,3.706-3.89,3.777c-8.187,0.217-8.188,0.299-8.201-7.896
	C287.792,73.981,287.799,68.221,287.805,62.461z"/>
<path fill-rule="evenodd" clip-rule="evenodd" fill="#4B8BF8" d="M101.025,11.945c6.695,0.086,12.028,5.51,11.826,12.028
	c-0.215,6.907-5.619,12.057-12.462,11.875c-6.494-0.172-11.559-5.38-11.576-11.905C88.795,17.033,94.064,11.855,101.025,11.945z"/>
</svg>
